<svg width="40" height="40" viewBox="0 0 40 40" fill="none" xmlns="http://www.w3.org/2000/svg">
<g id="Property 1=call">
<ellipse id="Container" cx="12" cy="12" rx="12" ry="12" fill="#F9605A"/>
<path id="primary" d="M20 11.6667C22.2101 11.6667 24.3298 12.5447 25.8926 14.1075C27.4554 15.6703 28.3333 17.7899 28.3333 20.0001" stroke="black" stroke-width="2" stroke-linecap="round" stroke-linejoin="round"/>
<path id="primary_2" d="M25 35.0001C22.4167 34.384 19.9661 33.3055 17.7667 31.8168L20.8 27.4668C21.2987 26.786 22.037 26.3197 22.8659 26.162C23.6949 26.0042 24.5529 26.1668 25.2667 26.6168C25.8167 26.9668 26.3834 27.2834 26.9334 27.6001C27.3474 27.8025 27.7149 28.0886 28.0128 28.4402C28.3107 28.7919 28.5324 29.2015 28.6639 29.6431C28.7955 30.0848 28.834 30.5489 28.7771 31.0063C28.7203 31.4636 28.5691 31.9041 28.3334 32.3001L27.3 33.8834C27.1154 34.3154 26.7811 34.6662 26.3586 34.8713C25.936 35.0765 25.4536 35.1222 25 35.0001ZM6.1167 12.7834L7.78337 11.7501C8.16986 11.4993 8.60416 11.3313 9.05885 11.2568C9.51354 11.1823 9.97874 11.2028 10.4251 11.3171C10.8714 11.4315 11.2892 11.6371 11.6521 11.921C12.015 12.2049 12.315 12.561 12.5334 12.9668C12.85 13.5668 13.1667 14.1334 13.5167 14.6334C13.9667 15.3473 14.1292 16.2052 13.9715 17.0342C13.8137 17.8632 13.3474 18.6014 12.6667 19.1001L8.23337 22.1834C6.73251 20.0028 5.6372 17.5695 5.00003 15.0001C4.89978 14.5584 4.9564 14.0957 5.16016 13.6912C5.36392 13.2867 5.70211 12.9658 6.1167 12.7834Z" stroke="black" stroke-width="2" stroke-linecap="round" stroke-linejoin="round"/>
<path id="primary_3" d="M8.23328 22.1833C9.45803 24.1044 10.901 25.8773 12.5333 27.4667C14.1226 29.099 15.8955 30.5419 17.8166 31.7667" stroke="black" stroke-width="2" stroke-linecap="round" stroke-linejoin="round"/>
<path id="primary_4" d="M18.3334 5.1C18.8864 5.03298 19.443 4.99959 20 5C23.9783 5 27.7936 6.58036 30.6066 9.3934C33.4197 12.2064 35 16.0218 35 20C35.0005 20.5571 34.9671 21.1136 34.9 21.6667" stroke="black" stroke-width="2" stroke-linecap="round" stroke-linejoin="round"/>
</g>
</svg>
