<svg width="40" height="40" viewBox="0 0 40 40" fill="none" xmlns="http://www.w3.org/2000/svg">
<g id="Property 1=email">
<ellipse id="Container" cx="12" cy="12" rx="12" ry="12" fill="#F9605A"/>
<path id="primary" d="M6.13333 9.08325L18.9667 19.1833C19.2609 19.4158 19.625 19.5422 20 19.5422C20.375 19.5422 20.7391 19.4158 21.0333 19.1833L33.8667 9.08325M33.3333 31.6666H6.66667C6.22464 31.6666 5.80072 31.491 5.48816 31.1784C5.17559 30.8659 5 30.4419 5 29.9999V9.99992C5 9.55789 5.17559 9.13397 5.48816 8.82141C5.80072 8.50885 6.22464 8.33325 6.66667 8.33325H33.3333C33.7754 8.33325 34.1993 8.50885 34.5118 8.82141C34.8244 9.13397 35 9.55789 35 9.99992V29.9999C35 30.4419 34.8244 30.8659 34.5118 31.1784C34.1993 31.491 33.7754 31.6666 33.3333 31.6666Z" stroke="black" stroke-width="2" stroke-linecap="round" stroke-linejoin="round"/>
</g>
</svg>
