<svg width="40" height="41" viewBox="12 14 40 41" fill="none" xmlns="http://www.w3.org/2000/svg">
<!-- <g id="BGND"> -->
<!-- <rect y="-0.000732422" width="64" height="64" rx="32" fill="#B4C0ED"/> -->
<g id="Group 21">
<g id="Vector">
<path d="M27.9557 30.3149C27.9557 28.2439 29.6405 26.559 31.7112 26.559C33.782 26.559 35.4668 28.2439 35.4668 30.3149C35.4668 32.3858 33.782 34.0708 31.7112 34.0708C29.6405 34.0708 27.9557 32.3858 27.9557 30.3149Z" fill="#FBFBFB"/>
<path d="M31.7112 35.2265C35.9764 35.2265 39.4723 38.5471 39.7709 42.7383H23.6516C23.9501 38.5471 27.4461 35.2265 31.7112 35.2265Z" fill="#FBFBFB"/>
<path fill-rule="evenodd" clip-rule="evenodd" d="M34.3432 34.4549C35.711 33.582 36.6223 32.0545 36.6223 30.3149C36.6223 27.6068 34.4191 25.4033 31.7112 25.4033C29.0034 25.4033 26.8001 27.6068 26.8001 30.3149C26.8001 32.0545 27.7115 33.582 29.0793 34.4549C25.2605 35.5913 22.4668 39.133 22.4668 43.3161C22.4668 43.6355 22.7253 43.8939 23.0446 43.8939H31.7112H40.3779C40.6972 43.8939 40.9557 43.6355 40.9557 43.3161C40.9557 39.1326 38.1619 35.5913 34.3432 34.4549ZM31.7112 26.559C29.6405 26.559 27.9557 28.2439 27.9557 30.3149C27.9557 32.3858 29.6405 34.0708 31.7112 34.0708C33.782 34.0708 35.4668 32.3858 35.4668 30.3149C35.4668 28.2439 33.782 26.559 31.7112 26.559ZM39.7709 42.7383C39.4723 38.5471 35.9764 35.2265 31.7112 35.2265C27.4461 35.2265 23.9501 38.5471 23.6516 42.7383H39.7709Z" fill="#FBFBFB"/>
</g>
<path id="Vector 18" d="M35.2502 51.754C35.5571 51.754 35.8058 51.5053 35.8058 51.1984C35.8058 50.8916 35.5571 50.6429 35.2502 50.6429V51.754ZM27.9377 50.6429C27.6309 50.6429 27.3822 50.8916 27.3822 51.1984C27.3822 51.5053 27.6309 51.754 27.9377 51.754V50.6429ZM37 15.5614C37.3068 15.5614 37.5556 15.3127 37.5556 15.0059C37.5556 14.699 37.3068 14.4503 37 14.4503V15.5614ZM45.5558 27.498C45.5558 27.1912 45.3071 26.9425 45.0002 26.9425C44.6934 26.9425 44.4447 27.1912 44.4447 27.498H45.5558ZM21.2226 54.5614H30.9169V53.4503H21.2226V54.5614ZM30.9169 54.5614H42.7779V53.4503H30.9169V54.5614ZM33.0836 53.4503H30.9169V54.5614H33.0836V53.4503ZM18.4447 17.2282V48.5502H19.5558V17.2282H18.4447ZM18.4447 48.5502V51.7835H19.5558V48.5502H18.4447ZM45.5558 51.7835V48.5502H44.4447V51.7835H45.5558ZM19.0002 49.1058H45.0002V47.9946H19.0002V49.1058ZM35.2502 50.6429H27.9377V51.754H35.2502V50.6429ZM37 14.4503H21.2226V15.5614H37V14.4503ZM45.5558 48.5502V27.498H44.4447V48.5502H45.5558ZM19.5558 17.2282C19.5558 16.3077 20.3021 15.5614 21.2226 15.5614V14.4503C19.6884 14.4503 18.4447 15.694 18.4447 17.2282H19.5558ZM42.7779 54.5614C44.3121 54.5614 45.5558 53.3177 45.5558 51.7835H44.4447C44.4447 52.7041 43.6984 53.4503 42.7779 53.4503V54.5614ZM21.2226 53.4503C20.3021 53.4503 19.5558 52.7041 19.5558 51.7835H18.4447C18.4447 53.3177 19.6884 54.5614 21.2226 54.5614V53.4503Z" fill="#FBFBFB"/>
<path id="Vector_2" d="M39.9434 15.0103C41.2008 13.6606 43.2392 13.6606 44.4971 15.0103L45.0003 15.5503L45.5034 15.0103C46.7608 13.6606 48.7992 13.6606 50.0566 15.0103C51.3145 16.3595 51.3145 18.5472 50.0566 19.8966L45.5158 24.7695C45.2319 25.0742 44.7681 25.0742 44.4847 24.7695L39.9434 19.8969C38.6855 18.5475 38.6855 16.3595 39.9434 15.0103Z" fill="#FBFBFB"/>
</g>
<!-- </g> -->
</svg>
