<svg width="48" height="48" viewBox="0 0 48 48" fill="none" xmlns="http://www.w3.org/2000/svg">
<g id="person">
<g id="Group">
<g id="Group_2">
<g id="Vector">
<path d="M3.10401 21.7573C3.13947 21.7619 3.17518 21.7644 3.21093 21.7647C3.39148 21.7645 3.56591 21.6993 3.70221 21.5809C3.83851 21.4625 3.92751 21.2989 3.95288 21.1201C4.38683 18.1124 5.4917 15.2408 7.18568 12.7179C8.87966 10.195 11.1194 8.08542 13.739 6.54529C16.3587 5.00516 19.2912 4.07394 22.3195 3.82057C25.3478 3.5672 28.3942 3.99817 31.2334 5.08156C31.4195 5.15227 31.6261 5.14615 31.8076 5.06456C31.9892 4.98297 32.131 4.83259 32.2017 4.6465C32.2724 4.46041 32.2663 4.25385 32.1847 4.07226C32.1031 3.89068 31.9527 3.74895 31.7666 3.67824C28.7169 2.51546 25.4448 2.05337 22.1923 2.32617C18.9399 2.59898 15.7905 3.59969 12.9771 5.25425C10.1637 6.90882 7.75844 9.17487 5.93925 11.8847C4.12006 14.5945 2.93354 17.6788 2.4675 20.9092C2.45357 21.0067 2.45898 21.106 2.48343 21.2014C2.50788 21.2967 2.5509 21.3864 2.61001 21.4652C2.66912 21.5439 2.74317 21.6103 2.82794 21.6604C2.9127 21.7105 3.00651 21.7435 3.10401 21.7573ZM44.8484 17.7847C44.8204 17.6901 44.7739 17.6019 44.7117 17.5252C44.6496 17.4486 44.5729 17.385 44.4861 17.338C44.3992 17.2911 44.304 17.2617 44.2058 17.2516C44.1077 17.2416 44.0084 17.251 43.9139 17.2793C43.8194 17.3076 43.7313 17.3543 43.6549 17.4167C43.5784 17.4792 43.515 17.5561 43.4684 17.643C43.4217 17.73 43.3926 17.8253 43.3828 17.9235C43.3731 18.0217 43.3828 18.1209 43.4114 18.2153C44.4283 21.6345 44.5222 25.2619 43.6835 28.729C42.8448 32.1962 41.1034 35.3796 38.6363 37.956C35.7542 35.3095 32.209 33.4931 28.3773 32.7C30.3385 31.7147 31.9098 30.0965 32.8371 28.1072C33.7644 26.118 33.9934 23.8741 33.487 21.7385C32.9807 19.603 31.7687 17.7007 30.047 16.3395C28.3254 14.9783 26.1948 14.2378 24 14.2378C21.8053 14.2378 19.6747 14.9783 17.9531 16.3395C16.2314 17.7007 15.0194 19.603 14.5131 21.7385C14.0067 23.8741 14.2357 26.118 15.163 28.1072C16.0903 30.0965 17.6616 31.7147 19.6228 32.7C15.7925 33.4929 12.2485 35.3082 9.36695 37.9533C6.44799 34.9197 4.55437 31.0467 3.95288 26.88C3.9249 26.683 3.81983 26.5052 3.66077 26.3857C3.50171 26.2662 3.3017 26.2148 3.10473 26.2428C2.90776 26.2708 2.72997 26.3758 2.61048 26.5349C2.49098 26.694 2.43956 26.894 2.46753 27.0909C2.89478 30.0501 3.92747 32.8895 5.50113 35.4317C7.07478 37.9739 9.15562 40.1644 11.6137 41.8665C14.0718 43.5686 16.8544 44.7456 19.7878 45.3242C22.7211 45.9028 25.7423 45.8704 28.6626 45.2292C31.5829 44.5879 34.3396 43.3515 36.7607 41.5972C39.1818 39.8429 41.2152 37.6083 42.7341 35.033C44.253 32.4576 45.2246 29.5968 45.5884 26.6292C45.9522 23.6615 45.7003 20.6506 44.8484 17.7847ZM15.75 24C15.75 22.3683 16.2339 20.7733 17.1404 19.4166C18.0469 18.0599 19.3354 17.0024 20.8429 16.378C22.3504 15.7536 24.0092 15.5902 25.6095 15.9085C27.2098 16.2269 28.6798 17.0126 29.8336 18.1664C30.9874 19.3202 31.7732 20.7902 32.0915 22.3905C32.4098 23.9909 32.2464 25.6497 31.622 27.1572C30.9976 28.6646 29.9402 29.9531 28.5835 30.8596C27.2268 31.7662 25.6317 32.25 24 32.25C21.8128 32.2474 19.7159 31.3774 18.1692 29.8308C16.6226 28.2842 15.7526 26.1873 15.75 24ZM10.4503 38.9938C14.1576 35.6189 18.991 33.749 24.0044 33.75C29.0178 33.7511 33.8503 35.6231 37.5562 38.9995C33.8509 42.3785 29.0168 44.2511 24.0021 44.25C18.9875 44.249 14.1542 42.3743 10.4503 38.9938Z" fill="white"/>
<path d="M15.75 24C15.75 22.3683 16.2339 20.7733 17.1404 19.4166C18.0469 18.0599 19.3354 17.0024 20.8429 16.378C22.3504 15.7536 24.0092 15.5902 25.6095 15.9085C27.2098 16.2269 28.6798 17.0126 29.8336 18.1664C30.9874 19.3202 31.7732 20.7902 32.0915 22.3905C32.4098 23.9909 32.2464 25.6497 31.622 27.1572C30.9976 28.6646 29.9402 29.9531 28.5835 30.8596C27.2268 31.7662 25.6317 32.25 24 32.25C21.8128 32.2474 19.7159 31.3774 18.1692 29.8308C16.6226 28.2842 15.7526 26.1873 15.75 24Z" fill="white"/>
<path d="M10.4503 38.9938C14.1576 35.6189 18.991 33.749 24.0044 33.75C29.0178 33.7511 33.8503 35.6231 37.5562 38.9995C33.8509 42.3785 29.0168 44.2511 24.0021 44.25C18.9875 44.249 14.1542 42.3743 10.4503 38.9938Z" fill="white"/>
</g>
<g id="Vector_2">
<path d="M31.5981 7.311C31.555 7.44414 31.5499 7.58667 31.5834 7.72255C31.6169 7.85842 31.6877 7.98224 31.7878 8.08005L34.6779 10.8955L33.9953 14.8725C33.9768 14.9802 33.982 15.0906 34.0106 15.1961C34.0392 15.3015 34.0905 15.3994 34.1609 15.483C34.2312 15.5666 34.319 15.6338 34.4181 15.6799C34.5171 15.726 34.6251 15.7499 34.7343 15.75C34.8559 15.7504 34.9757 15.7207 35.083 15.6636L38.6557 13.7856L42.2277 15.6636C42.3516 15.7287 42.4913 15.7579 42.6309 15.7477C42.7705 15.7376 42.9044 15.6886 43.0176 15.6063C43.1308 15.524 43.2187 15.4116 43.2713 15.2819C43.324 15.1523 43.3393 15.0104 43.3154 14.8725L42.6336 10.8954L45.5237 8.08002C45.6239 7.98222 45.6947 7.85835 45.7283 7.7224C45.7618 7.58645 45.7566 7.44384 45.7133 7.31068C45.67 7.17752 45.5904 7.05911 45.4834 6.96882C45.3764 6.87853 45.2462 6.81997 45.1077 6.79974L41.1145 6.21966L39.3281 2.6001C39.2587 2.48357 39.1603 2.38706 39.0424 2.32004C38.9246 2.25301 38.7913 2.21777 38.6557 2.21777C38.5201 2.21777 38.3869 2.25301 38.269 2.32004C38.1511 2.38706 38.0527 2.48357 37.9834 2.6001L36.197 6.21972L32.2038 6.7998C32.0651 6.81982 31.9349 6.87834 31.8278 6.96871C31.7207 7.05907 31.6411 7.17766 31.5981 7.311ZM36.8027 7.64791C36.923 7.63027 37.0371 7.58374 37.1355 7.51231C37.2338 7.44088 37.3134 7.34668 37.3674 7.23777L38.6557 4.6275L39.944 7.23786C39.998 7.34677 40.0776 7.44097 40.1759 7.51241C40.2743 7.58384 40.3885 7.63036 40.5087 7.64801L43.3879 8.06549L41.3041 10.0957C41.2171 10.1808 41.152 10.2858 41.1145 10.4017C41.077 10.5175 41.0682 10.6407 41.0888 10.7607L41.5803 13.6289L39.0043 12.2754C38.8968 12.2191 38.7771 12.1897 38.6557 12.1897C38.5343 12.1897 38.4147 12.2191 38.3071 12.2754L35.7304 13.6289L36.2226 10.7607C36.2432 10.6407 36.2344 10.5175 36.1969 10.4017C36.1594 10.2858 36.0943 10.1808 36.0073 10.0957L33.9235 8.0655L36.8027 7.64791Z" fill="white"/>
<path d="M36.8027 7.64791C36.923 7.63027 37.0371 7.58374 37.1355 7.51231C37.2338 7.44088 37.3134 7.34668 37.3674 7.23777L38.6557 4.6275L39.944 7.23786C39.998 7.34677 40.0776 7.44097 40.1759 7.51241C40.2743 7.58384 40.3885 7.63036 40.5087 7.64801L43.3879 8.06549L41.3041 10.0957C41.2171 10.1808 41.152 10.2858 41.1145 10.4017C41.077 10.5175 41.0682 10.6407 41.0888 10.7607L41.5803 13.6289L39.0043 12.2754C38.8968 12.2191 38.7771 12.1897 38.6557 12.1897C38.5343 12.1897 38.4147 12.2191 38.3071 12.2754L35.7304 13.6289L36.2226 10.7607C36.2432 10.6407 36.2344 10.5175 36.1969 10.4017C36.1594 10.2858 36.0943 10.1808 36.0073 10.0957L33.9235 8.0655L36.8027 7.64791Z" fill="white"/>
</g>
<path id="Vector_3" d="M3 24.75C3.41421 24.75 3.75 24.4142 3.75 24C3.75 23.5858 3.41421 23.25 3 23.25C2.58579 23.25 2.25 23.5858 2.25 24C2.25 24.4142 2.58579 24.75 3 24.75Z" fill="white"/>
</g>
</g>
</g>
</svg>
