<svg width="40" height="40" viewBox="0 0 40 40" fill="none" xmlns="http://www.w3.org/2000/svg">
<g id="communication person">
<g id="Vector">
<path d="M1.9999 20.5986H19.9999C20.3315 20.5986 20.5999 20.3302 20.5999 19.9986C20.5999 15.6546 17.6987 11.9774 13.7331 10.7974C15.1535 9.89104 16.0999 8.30504 16.0999 6.49864C16.0999 3.68664 13.8119 1.39864 10.9999 1.39864C8.1879 1.39864 5.8999 3.68664 5.8999 6.49864C5.8999 8.30504 6.8463 9.89104 8.2667 10.7974C4.3011 11.9774 1.3999 15.6546 1.3999 19.9986C1.3999 20.3302 1.6683 20.5986 1.9999 20.5986ZM7.0999 6.49864C7.0999 4.34824 8.8495 2.59864 10.9999 2.59864C13.1503 2.59864 14.8999 4.34824 14.8999 6.49864C14.8999 8.64904 13.1503 10.3986 10.9999 10.3986C8.8495 10.3986 7.0999 8.64904 7.0999 6.49864ZM10.9999 11.5986C15.4291 11.5986 19.0595 15.0466 19.3695 19.3986H2.6303C2.9403 15.0466 6.5707 11.5986 10.9999 11.5986ZM31.7331 28.7974C33.1535 27.891 34.0999 26.305 34.0999 24.4986C34.0999 21.6866 31.8119 19.3986 28.9999 19.3986C26.1879 19.3986 23.8999 21.6866 23.8999 24.4986C23.8999 26.305 24.8463 27.891 26.2667 28.7974C22.3011 29.9774 19.3999 33.655 19.3999 37.9986C19.3999 38.3302 19.6683 38.5986 19.9999 38.5986H28.9999H37.9999C38.3315 38.5986 38.5999 38.3302 38.5999 37.9986C38.5999 33.6546 35.6987 29.9774 31.7331 28.7974ZM25.0999 24.4986C25.0999 22.3482 26.8495 20.5986 28.9999 20.5986C31.1503 20.5986 32.8999 22.3482 32.8999 24.4986C32.8999 26.649 31.1503 28.3986 28.9999 28.3986C26.8495 28.3986 25.0999 26.649 25.0999 24.4986ZM28.9999 29.5986C33.4291 29.5986 37.0595 33.0466 37.3695 37.3986H20.6303C20.9403 33.0466 24.5707 29.5986 28.9999 29.5986ZM38.5643 7.69224C38.5603 7.68064 38.5583 7.66864 38.5535 7.65744C38.5411 7.62824 38.5255 7.60064 38.5087 7.57384C38.5047 7.56744 38.5023 7.56064 38.4983 7.55464C38.4763 7.52184 38.4511 7.49104 38.4231 7.46304L32.5343 1.57424C32.2999 1.33984 31.9203 1.33984 31.6859 1.57424C31.4515 1.80824 31.4515 2.18864 31.6859 2.42264L36.5511 7.28784H20.3319C20.0003 7.28784 19.7319 7.55624 19.7319 7.88784C19.7319 8.21944 20.0003 8.48784 20.3319 8.48784H36.5515L31.6863 13.353C31.4519 13.587 31.4519 13.967 31.6863 14.2014C31.8035 14.3186 31.9571 14.377 32.1107 14.377C32.2643 14.377 32.4179 14.3186 32.5351 14.2014L38.4239 8.31304C38.4519 8.28504 38.4771 8.25464 38.4991 8.22144C38.5031 8.21544 38.5059 8.20824 38.5095 8.20224C38.5259 8.17544 38.5419 8.14824 38.5543 8.11864C38.5591 8.10744 38.5611 8.09544 38.5651 8.08384C38.5739 8.05864 38.5831 8.03344 38.5887 8.00664C38.5967 7.96784 38.6007 7.92824 38.6007 7.88784C38.6007 7.84744 38.5967 7.80784 38.5887 7.76904C38.5835 7.74224 38.5731 7.71744 38.5643 7.69224ZM1.4355 32.305C1.4395 32.3166 1.4415 32.3286 1.4463 32.3398C1.4587 32.369 1.4743 32.3966 1.4911 32.4234C1.4951 32.4298 1.4975 32.4366 1.5015 32.4426C1.5235 32.4754 1.5487 32.5062 1.5767 32.5342L7.4655 38.423C7.5827 38.5402 7.7363 38.5986 7.8899 38.5986C8.0435 38.5986 8.1971 38.5402 8.3143 38.423C8.5487 38.189 8.5487 37.8086 8.3143 37.5746L3.4491 32.7094H19.6679C19.9995 32.7094 20.2679 32.441 20.2679 32.1094C20.2679 31.7778 19.9995 31.5094 19.6679 31.5094H3.4487L8.3139 26.6442C8.5483 26.4102 8.5483 26.0302 8.3139 25.7958C8.0795 25.5614 7.6999 25.5614 7.4655 25.7958L1.5767 31.6842C1.5487 31.7122 1.5235 31.7426 1.5015 31.7758C1.4975 31.7818 1.4947 31.789 1.4911 31.795C1.4747 31.8218 1.4587 31.849 1.4463 31.8786C1.4415 31.8898 1.4395 31.9018 1.4355 31.9134C1.4267 31.9386 1.4175 31.9638 1.4119 31.9906C1.4039 32.0294 1.3999 32.069 1.3999 32.1094C1.3999 32.1498 1.4039 32.1894 1.4119 32.2282C1.4171 32.255 1.4267 32.2798 1.4355 32.305Z" fill="white"/>
<path d="M7.0999 6.49864C7.0999 4.34824 8.8495 2.59864 10.9999 2.59864C13.1503 2.59864 14.8999 4.34824 14.8999 6.49864C14.8999 8.64904 13.1503 10.3986 10.9999 10.3986C8.8495 10.3986 7.0999 8.64904 7.0999 6.49864Z" fill="white"/>
<path d="M10.9999 11.5986C15.4291 11.5986 19.0595 15.0466 19.3695 19.3986H2.6303C2.9403 15.0466 6.5707 11.5986 10.9999 11.5986Z" fill="white"/>
<path d="M25.0999 24.4986C25.0999 22.3482 26.8495 20.5986 28.9999 20.5986C31.1503 20.5986 32.8999 22.3482 32.8999 24.4986C32.8999 26.649 31.1503 28.3986 28.9999 28.3986C26.8495 28.3986 25.0999 26.649 25.0999 24.4986Z" fill="white"/>
<path d="M28.9999 29.5986C33.4291 29.5986 37.0595 33.0466 37.3695 37.3986H20.6303C20.9403 33.0466 24.5707 29.5986 28.9999 29.5986Z" fill="white"/>
</g>
</g>
</svg>
