<svg width="32" height="32" viewBox="0 0 32 32" fill="none" xmlns="http://www.w3.org/2000/svg">
<rect width="32" height="32" rx="16" fill="#B4C0ED" fill-opacity="0.25"/>
<g clip-path="url(#clip0_1397_22670)">
<path d="M24.0625 13.4688C24.0625 13.1771 23.9688 12.9375 23.7812 12.75L22.3594 11.3438C22.1615 11.1458 21.9271 11.0469 21.6562 11.0469C21.3854 11.0469 21.151 11.1458 20.9531 11.3438L14.5781 17.7031L11.0469 14.1719C10.849 13.974 10.6146 13.875 10.3438 13.875C10.0729 13.875 9.83854 13.974 9.64062 14.1719L8.21875 15.5781C8.03125 15.7656 7.9375 16.0052 7.9375 16.2969C7.9375 16.5781 8.03125 16.8125 8.21875 17L13.875 22.6562C14.0729 22.8542 14.3073 22.9531 14.5781 22.9531C14.8594 22.9531 15.099 22.8542 15.2969 22.6562L23.7812 14.1719C23.9688 13.9844 24.0625 13.75 24.0625 13.4688ZM28 16C28 18.1771 27.4635 20.1849 26.3906 22.0234C25.3177 23.862 23.862 25.3177 22.0234 26.3906C20.1849 27.4635 18.1771 28 16 28C13.8229 28 11.8151 27.4635 9.97656 26.3906C8.13802 25.3177 6.68229 23.862 5.60938 22.0234C4.53646 20.1849 4 18.1771 4 16C4 13.8229 4.53646 11.8151 5.60938 9.97656C6.68229 8.13802 8.13802 6.68229 9.97656 5.60938C11.8151 4.53646 13.8229 4 16 4C18.1771 4 20.1849 4.53646 22.0234 5.60938C23.862 6.68229 25.3177 8.13802 26.3906 9.97656C27.4635 11.8151 28 13.8229 28 16Z" fill="#B4C0ED"/>
<path d="M24.0625 13.4688C24.0625 13.1771 23.9688 12.9375 23.7812 12.75L22.3594 11.3438C22.1615 11.1458 21.9271 11.0469 21.6562 11.0469C21.3854 11.0469 21.151 11.1458 20.9531 11.3438L14.5781 17.7031L11.0469 14.1719C10.849 13.974 10.6146 13.875 10.3438 13.875C10.0729 13.875 9.83854 13.974 9.64062 14.1719L8.21875 15.5781C8.03125 15.7656 7.9375 16.0052 7.9375 16.2969C7.9375 16.5781 8.03125 16.8125 8.21875 17L13.875 22.6562C14.0729 22.8542 14.3073 22.9531 14.5781 22.9531C14.8594 22.9531 15.099 22.8542 15.2969 22.6562L23.7812 14.1719C23.9688 13.9844 24.0625 13.75 24.0625 13.4688Z" fill="#FBFBFB"/>
</g>
<defs>
<clipPath id="clip0_1397_22670">
<rect width="24" height="24" fill="white" transform="translate(4 4)"/>
</clipPath>
</defs>
</svg>
