<svg width="78" height="78" viewBox="0 0 78 78" fill="none" xmlns="http://www.w3.org/2000/svg">
<rect width="78" height="78" rx="39" fill="#EAEEFA"/>
<rect x="7" y="7" width="64" height="64" rx="32" fill="#B4C0ED"/>
<path d="M37.667 29V41.0267H45.3928" stroke="#FBFBFB" stroke-width="4" stroke-linecap="round"/>
<path d="M55.8042 38.708C56.0888 28.5235 48.1471 19.9809 37.9632 19.6723C27.4769 19.3546 18.7139 28.221 19.0072 38.708C19.2925 48.9127 27.7593 57.0176 37.9632 56.7083" stroke="#FBFBFB" stroke-width="4" stroke-linecap="round"/>
<path d="M44.9879 47.0497C46.6403 45.5251 49.3191 45.5251 50.9722 47.0497L51.6335 47.6596L52.2947 47.0497C53.9471 45.5251 56.626 45.5251 58.2784 47.0497C59.9315 48.5736 59.9315 51.0447 58.2784 52.5689L52.311 58.0731C51.9378 58.4173 51.3284 58.4173 50.9559 58.0731L44.9879 52.5693C43.3348 51.045 43.3348 48.5736 44.9879 47.0497Z" fill="#FBFBFB"/>
</svg>
