<svg width="65" height="64" viewBox="0 0 65 64" fill="none" xmlns="http://www.w3.org/2000/svg">
<g clip-path="url(#clip0_1346_5262)">
<ellipse cx="16.5" cy="26" rx="16" ry="16" fill="#F9605A"/>
<g clip-path="url(#clip1_1346_5262)">
<path d="M11.6119 45.4252C11.3354 45.4247 11.0644 45.3474 10.8292 45.2021C10.594 45.0567 10.4037 44.8489 10.2796 44.6018C10.1555 44.3547 10.1024 44.0779 10.1262 43.8024C10.15 43.5269 10.2499 43.2635 10.4146 43.0414L11.0348 42.1946C11.9502 40.9539 12.5533 39.511 12.793 37.9879L12.9171 37.0225C11.5441 35.705 10.4465 34.1279 9.68827 32.3826C8.92999 30.6374 8.52608 28.7589 8.5 26.8562C8.5 18.1137 17.0052 11 27.4627 11C37.9202 11 46.4308 18.1137 46.4308 26.8562C46.4308 35.5987 37.9202 42.707 27.4627 42.707C24.5331 42.7154 21.6311 42.1416 18.9252 41.0189C17.4344 43.0168 15.3203 44.461 12.9171 45.1231L12.0164 45.3712C11.8847 45.4077 11.7486 45.4258 11.6119 45.4252ZM27.4627 12.618C17.9004 12.618 10.118 19.0036 10.118 26.8562C10.1454 28.6135 10.5334 30.3465 11.2579 31.9477C11.9825 33.549 13.0281 34.9844 14.3301 36.1649L14.6321 36.4454L14.3894 38.2414C14.1094 40.0289 13.4006 41.7221 12.3238 43.1762L11.9085 43.7155L12.4748 43.5591C14.7271 42.9387 16.6744 41.5152 17.949 39.5573L18.3319 38.9748L18.9629 39.2661C21.6271 40.4758 24.5206 41.0975 27.4465 41.089C37.0142 41.089 44.7966 34.7034 44.7966 26.8562C44.7966 19.009 37.0303 12.618 27.4627 12.618Z" fill="#1F253B"/>
<path d="M53.0159 52.5874C52.8775 52.588 52.7396 52.5699 52.606 52.5335L51.6946 52.2854C49.2911 51.6237 47.1781 50.1771 45.6919 48.1757C42.9846 49.3009 40.0807 49.8766 37.1489 49.8692C32.597 49.9222 28.1503 48.4993 24.4748 45.8135C24.3855 45.7483 24.3105 45.6656 24.2544 45.5704C24.1984 45.4752 24.1624 45.3695 24.1488 45.2598C24.1351 45.1501 24.1441 45.0388 24.1751 44.9328C24.2061 44.8267 24.2586 44.7281 24.3292 44.6431C24.4639 44.4812 24.6565 44.3782 24.866 44.356C25.0755 44.3339 25.2853 44.3943 25.451 44.5245C28.8445 46.9993 32.9492 48.307 37.1489 48.2512C40.0798 48.2572 42.9774 47.6299 45.6433 46.4121L46.3013 46.1371L46.6842 46.7249C47.9543 48.6779 49.8929 50.1007 52.1368 50.7267L52.7031 50.8831L52.2878 50.3168C51.2182 48.8679 50.5134 47.1826 50.233 45.4036L49.9957 43.5914L50.2923 43.3056C51.5937 42.1265 52.6394 40.693 53.3649 39.0938C54.0903 37.4945 54.48 35.7635 54.5098 34.0076C54.5098 29.5258 51.9372 25.3299 47.5957 22.6386C47.4187 22.5299 47.2901 22.3576 47.2359 22.1571C47.1818 21.9566 47.2063 21.743 47.3044 21.56C47.3582 21.4621 47.4317 21.3764 47.5203 21.3083C47.6088 21.2402 47.7105 21.1912 47.8189 21.1643C47.9274 21.1375 48.0402 21.1334 48.1503 21.1523C48.2603 21.1712 48.3653 21.2127 48.4586 21.2741C53.3125 24.2566 56.144 28.9703 56.144 34.0184C56.1135 35.9241 55.7045 37.8048 54.9406 39.551C54.1768 41.2972 53.0734 42.8742 51.6946 44.1901L51.824 45.1717C52.0661 46.6866 52.6671 48.1216 53.5768 49.3568L54.1539 50.1442C54.3451 50.3923 54.4571 50.6922 54.4754 51.0048C54.4937 51.3175 54.4173 51.6284 54.2563 51.8971C54.1238 52.1067 53.9408 52.2797 53.7241 52.4003C53.5074 52.5209 53.2639 52.5852 53.0159 52.5874Z" fill="#1F253B"/>
<path d="M36.8633 19.9141H28.2719C27.8251 19.9141 27.4629 20.2763 27.4629 20.7231C27.4629 21.1698 27.8251 21.532 28.2719 21.532H36.8633C37.3101 21.532 37.6723 21.1698 37.6723 20.7231C37.6723 20.2763 37.3101 19.9141 36.8633 19.9141Z" fill="#1F253B"/>
<path d="M25.4724 19.9141H16.7084C16.2616 19.9141 15.8994 20.2763 15.8994 20.7231C15.8994 21.1698 16.2616 21.532 16.7084 21.532H25.4724C25.9192 21.532 26.2814 21.1698 26.2814 20.7231C26.2814 20.2763 25.9192 19.9141 25.4724 19.9141Z" fill="#1F253B"/>
<path d="M36.8094 26.9309H22.0319C21.9221 26.9345 21.8126 26.9165 21.7098 26.8777C21.607 26.839 21.5129 26.7804 21.4327 26.7053C21.3526 26.6302 21.288 26.54 21.2428 26.4399C21.1975 26.3398 21.1724 26.2317 21.1689 26.1219C21.1724 26.0121 21.1975 25.9041 21.2428 25.804C21.288 25.7039 21.3526 25.6137 21.4327 25.5386C21.5129 25.4635 21.607 25.4049 21.7098 25.3662C21.8126 25.3274 21.9221 25.3094 22.0319 25.313H36.8094C37.0302 25.3057 37.245 25.3861 37.4067 25.5367C37.5684 25.6873 37.6639 25.8958 37.6723 26.1165C37.6653 26.3388 37.5705 26.5492 37.4089 26.7018C37.2472 26.8544 37.0316 26.9367 36.8094 26.9309Z" fill="#1F253B"/>
<path d="M18.8657 25.3086H16.7084C16.2616 25.3086 15.8994 25.6708 15.8994 26.1176C15.8994 26.5644 16.2616 26.9266 16.7084 26.9266H18.8657C19.3125 26.9266 19.6747 26.5644 19.6747 26.1176C19.6747 25.6708 19.3125 25.3086 18.8657 25.3086Z" fill="#1F253B"/>
<path d="M36.8636 30.7031H29.0434C28.5966 30.7031 28.2344 31.0653 28.2344 31.5121C28.2344 31.9589 28.5966 32.3211 29.0434 32.3211H36.8636C37.3104 32.3211 37.6726 31.9589 37.6726 31.5121C37.6726 31.0653 37.3104 30.7031 36.8636 30.7031Z" fill="#1F253B"/>
<path d="M21.2927 30.7031H16.7084C16.2616 30.7031 15.8994 31.0653 15.8994 31.5121C15.8994 31.9589 16.2616 32.3211 16.7084 32.3211H21.2927C21.7395 32.3211 22.1017 31.9589 22.1017 31.5121C22.1017 31.0653 21.7395 30.7031 21.2927 30.7031Z" fill="#1F253B"/>
<path d="M25.9415 30.6367H24.5932C24.1464 30.6367 23.7842 30.9989 23.7842 31.4457C23.7842 31.8925 24.1464 32.2547 24.5932 32.2547H25.9415C26.3883 32.2547 26.7505 31.8925 26.7505 31.4457C26.7505 30.9989 26.3883 30.6367 25.9415 30.6367Z" fill="#1F253B"/>
</g>
</g>
<defs>
<clipPath id="clip0_1346_5262">
<rect width="64" height="64" fill="white" transform="translate(0.5)"/>
</clipPath>
<clipPath id="clip1_1346_5262">
<rect width="48" height="42.0674" fill="white" transform="translate(8.5 11)"/>
</clipPath>
</defs>
</svg>
