<svg width="65" height="64" viewBox="0 0 65 64" fill="none" xmlns="http://www.w3.org/2000/svg">
<g clip-path="url(#clip0_1346_5301)">
<ellipse cx="16.5" cy="26" rx="16" ry="16" fill="#F9605A"/>
<g clip-path="url(#clip1_1346_5301)">
<path d="M52.585 21.0682C52.5704 20.9955 52.5441 20.9273 52.5117 20.8625C52.5044 20.8474 52.4961 20.8328 52.4877 20.8183C52.4508 20.7534 52.4083 20.6925 52.3557 20.6399L38.9618 7.24545C38.9093 7.19289 38.8483 7.15096 38.7835 7.1135C38.7684 7.10511 38.7538 7.09673 38.7387 7.08946C38.6744 7.05759 38.6062 7.03131 38.5335 7.01677C38.5313 7.01621 38.5291 7.01677 38.5268 7.01621C38.4754 7.00615 38.4228 7 38.3692 7H15.3821C13.3923 7 11.7737 8.61917 11.7737 10.609V53.7104C11.7737 55.7009 13.3928 57.3195 15.3821 57.3195H48.9927C50.9826 57.3195 52.6012 55.7003 52.6012 53.7104V22.0718C52.6012 22.0181 52.595 21.1269 52.5855 21.076C52.5855 21.0732 52.5855 21.071 52.585 21.0682ZM39.2078 9.86318L49.7386 20.3945H41.1597C40.0834 20.3945 39.2078 19.5189 39.2078 18.4421V9.86318ZM50.9244 53.7104C50.9244 54.7755 50.0578 55.6422 48.9933 55.6422H15.3821C14.3176 55.6422 13.451 54.7755 13.451 53.7104V10.609C13.451 9.54393 14.3176 8.67732 15.3821 8.67732H37.53V18.4421C37.53 20.4437 39.1581 22.0718 41.1591 22.0718H50.9239L50.9244 53.7104Z" fill="#1F253B"/>
<path d="M16.7415 32.159C16.7415 32.6219 17.1172 32.9976 17.5801 32.9976H46.7956C47.2585 32.9976 47.6342 32.6219 47.6342 32.159C47.6342 31.696 47.2585 31.3203 46.7956 31.3203H17.5801C17.1172 31.3203 16.7415 31.696 16.7415 32.159Z" fill="#1F253B"/>
<path d="M46.7956 39.5898H17.5801C17.1172 39.5898 16.7415 39.9656 16.7415 40.4285C16.7415 40.8914 17.1172 41.2672 17.5801 41.2672H46.7956C47.2585 41.2672 47.6342 40.8914 47.6342 40.4285C47.6342 39.9656 47.2585 39.5898 46.7956 39.5898Z" fill="#1F253B"/>
<path d="M46.7956 47.8555H17.5801C17.1172 47.8555 16.7415 48.2312 16.7415 48.6941C16.7415 49.1571 17.1172 49.5328 17.5801 49.5328H46.7956C47.2585 49.5328 47.6342 49.1571 47.6342 48.6941C47.6342 48.2312 47.2585 47.8555 46.7956 47.8555Z" fill="#1F253B"/>
<path d="M19.2696 27.1288H28.8487C29.3116 27.1288 29.6874 26.7531 29.6874 26.2901V23.4566C29.6874 21.6456 28.6049 20.0863 27.0551 19.3818C27.7814 18.6304 28.2315 17.61 28.2315 16.4851C28.2315 14.1844 26.3596 12.3125 24.0594 12.3125C21.7587 12.3125 19.8868 14.1844 19.8868 16.4851C19.8868 17.61 20.3363 18.6309 21.0632 19.3818C19.5133 20.0863 18.4309 21.6456 18.4309 23.456V26.2901C18.4309 26.7531 18.8066 27.1288 19.2696 27.1288ZM24.0594 13.9898C25.4348 13.9898 26.5541 15.1091 26.5541 16.4851C26.5541 17.8605 25.4348 18.9798 24.0594 18.9798C22.6835 18.9798 21.5641 17.8605 21.5641 16.4851C21.5641 15.1091 22.6835 13.9898 24.0594 13.9898ZM20.1082 23.4566C20.1082 21.9129 21.364 20.6571 22.9071 20.6571H25.2112C26.7543 20.6571 28.01 21.9129 28.01 23.4566V25.4515H20.1082V23.4566Z" fill="#1F253B"/>
</g>
</g>
<defs>
<clipPath id="clip0_1346_5301">
<rect width="64" height="64" fill="white" transform="translate(0.5)"/>
</clipPath>
<clipPath id="clip1_1346_5301">
<rect width="41.3737" height="50.3195" fill="white" transform="translate(11.5002 7)"/>
</clipPath>
</defs>
</svg>
