<svg width="20" height="21" viewBox="0 0 20 21" fill="none" xmlns="http://www.w3.org/2000/svg">
<path id="Vector" d="M10 0.0322266C4.486 0.0322266 0 4.51823 0 10.0322C0 15.5462 4.486 20.0322 10 20.0322C15.514 20.0322 20 15.5462 20 10.0322C20 4.51823 15.514 0.0322266 10 0.0322266ZM2 10.0322C2 9.13323 2.156 8.27023 2.431 7.46323L4 9.03223L6 11.0322V13.0322L8 15.0322L9 16.0322V17.9632C5.061 17.4682 2 14.1042 2 10.0322ZM16.33 14.9052C15.677 14.3792 14.687 14.0322 14 14.0322V13.0322C14 12.5018 13.7893 11.9931 13.4142 11.618C13.0391 11.2429 12.5304 11.0322 12 11.0322H8V8.03223C8.53043 8.03223 9.03914 7.82151 9.41421 7.44644C9.78929 7.07137 10 6.56266 10 6.03223V5.03223H11C11.5304 5.03223 12.0391 4.82151 12.4142 4.44644C12.7893 4.07137 13 3.56266 13 3.03223V2.62123C15.928 3.81023 18 6.68223 18 10.0322C17.9998 11.7969 17.4123 13.5114 16.33 14.9052Z" fill="#7D8BBD"/>
</svg>
