<svg width="40" height="40" viewBox="0 0 40 40" fill="none" xmlns="http://www.w3.org/2000/svg">
<g id="Icon Contact ">
<ellipse id="Container" cx="12" cy="12" rx="12" ry="12" fill="#F9605A"/>
<path id="primary" d="M6.13333 9.08301L18.9667 19.183C19.2609 19.4155 19.625 19.542 20 19.542C20.375 19.542 20.7391 19.4155 21.0333 19.183L33.8667 9.08301M33.3333 31.6663H6.66667C6.22464 31.6663 5.80072 31.4907 5.48816 31.1782C5.17559 30.8656 5 30.4417 5 29.9997V9.99967C5 9.55765 5.17559 9.13372 5.48816 8.82116C5.80072 8.5086 6.22464 8.33301 6.66667 8.33301H33.3333C33.7754 8.33301 34.1993 8.5086 34.5118 8.82116C34.8244 9.13372 35 9.55765 35 9.99967V29.9997C35 30.4417 34.8244 30.8656 34.5118 31.1782C34.1993 31.4907 33.7754 31.6663 33.3333 31.6663Z" stroke="#1F253B" stroke-width="2" stroke-linecap="round" stroke-linejoin="round"/>
</g>
</svg>
