<svg width="78" height="78" viewBox="0 0 78 78" fill="none" xmlns="http://www.w3.org/2000/svg">
<rect width="78" height="78" rx="39" fill="#EAEEFA"/>
<rect x="7" y="7" width="64" height="64" rx="32" fill="#B4C0ED"/>
<path d="M37.2538 22.7454C39.7305 20.4182 43.7456 20.4182 46.2233 22.7454L47.2144 23.6765L48.2055 22.7454C50.6822 20.4182 54.6973 20.4182 57.174 22.7454C59.6517 25.0717 59.6517 28.8439 57.174 31.1707L48.2299 39.5727C47.6706 40.0982 46.7572 40.0982 46.1989 39.5727L37.2538 31.1712C34.7761 28.8444 34.7761 25.0717 37.2538 22.7454Z" fill="#FBFBFB"/>
<path d="M57.6874 47.7762C56.9491 46.8767 55.6796 46.6577 54.6925 47.2596L48.3866 51.104L37.4913 47.8208H43.3081C44.5247 47.8208 45.5109 46.8148 45.5109 45.5738C45.5109 44.7228 45.0395 43.9447 44.2932 43.5641L39.9412 41.3445C35.3217 38.9885 29.9614 38.6506 25.0926 40.4086L24.5303 40.6116V50.773L44.261 56.634C46.0979 57.1797 48.075 56.9159 49.7125 55.9066L57.1032 51.3514C58.3314 50.5944 58.6085 48.8985 57.6874 47.7762Z" fill="#FBFBFB"/>
<path d="M22.2246 38.2146H18.333V52.7779H22.2246C22.961 52.7779 23.5579 52.1809 23.5579 51.4446V39.5479C23.5579 38.8116 22.961 38.2146 22.2246 38.2146Z" fill="#FBFBFB"/>
</svg>
