<svg width="78" height="78" viewBox="0 0 78 78" fill="none" xmlns="http://www.w3.org/2000/svg">
<rect width="78" height="78" rx="39" fill="#EAEEFA"/>
<rect x="7" y="7" width="64" height="64" rx="32" fill="#B4C0ED"/>
<path d="M20.2688 37.5968C22.8489 35.0511 27.0316 35.0511 29.6127 37.5968L30.6451 38.6153L31.6775 37.5968C34.2576 35.0511 38.4403 35.0511 41.0203 37.5968C43.6014 40.1415 43.6014 44.2678 41.0203 46.813L31.703 56.0039C31.1203 56.5787 30.1688 56.5787 29.5872 56.0039L20.2688 46.8136C17.6877 44.2684 17.6877 40.1415 20.2688 37.5968Z" fill="#FBFBFB"/>
<path d="M42.7863 48.8291C44.569 47.0717 45.5506 44.7187 45.5506 42.2043C45.5495 39.6899 44.5685 37.3374 42.7863 35.5801C41.0576 33.8745 38.7718 32.9347 36.3489 32.9347C34.2555 32.9347 32.2632 33.6361 30.6451 34.9288C29.0269 33.6366 27.0336 32.9347 24.9402 32.9347C23.3978 32.9347 21.9124 33.319 20.5889 34.0358C19.9757 30.7638 20.9485 27.259 23.5145 24.7287C27.6557 20.6425 34.3722 20.6425 38.5134 24.7287L40.171 26.3633L41.8286 24.7287C45.9698 20.6425 52.6853 20.6425 56.8265 24.7287C60.9687 28.8138 60.9687 35.4375 56.8265 39.5231L41.8691 54.2768C40.9347 55.199 39.4057 55.199 38.4724 54.2768L37.8675 53.6811L42.7863 48.8291Z" fill="#FBFBFB"/>
</svg>
