<svg width="32" height="32" viewBox="0 0 32 32" fill="none" xmlns="http://www.w3.org/2000/svg">
<g id="Property 1=Love">
<path id="Vector" d="M10.7611 8.08946C8.99697 8.08868 7.36393 8.65185 6.18012 9.75988C4.9966 10.8668 4.28239 12.5145 4.28229 14.5681C4.28244 16.7226 5.79815 18.7258 7.85079 20.6922C9.90385 22.6592 12.5449 24.6 14.9622 26.6149C15.1048 26.729 15.3268 26.728 15.4687 26.6142C17.8851 24.601 20.5211 22.6537 22.5797 20.6928C24.6401 18.7317 26.1735 16.7456 26.1742 14.5682C26.1744 12.4921 25.435 10.8617 24.2506 9.75937C23.0662 8.65706 21.4574 8.08966 19.6951 8.08876C17.882 8.0891 16.3503 9.23254 15.2156 10.3917C14.0855 9.23931 12.5705 8.08934 10.7611 8.08946Z" fill="#7D8BBD"/>
</g>
</svg>
