<svg width="65" height="64" viewBox="0 0 65 64" fill="none" xmlns="http://www.w3.org/2000/svg">
<g clip-path="url(#clip0_1346_5282)">
<ellipse cx="16.5" cy="26" rx="16" ry="16" fill="#F9605A"/>
<g clip-path="url(#clip1_1346_5282)">
<path d="M39.6381 45.0626C39.3031 45.0626 38.9943 44.846 38.8904 44.509C38.7631 44.0963 38.9943 43.6575 39.408 43.5307C41.76 42.8066 43.9325 41.4594 45.8677 39.5253C49.0388 36.3537 50.6468 32.4673 50.6468 27.974C50.6468 27.0568 50.5878 26.1667 50.4725 25.3158C49.8856 25.728 49.2277 26.2069 48.5071 26.7474C48.2249 26.9598 47.8357 26.9561 47.5576 26.7401C46.092 25.6027 45.1137 24.8514 44.6499 24.5071C43.6179 23.7151 42.7393 22.8631 42.0261 21.9657C41.604 21.4565 41.2299 20.9624 40.921 20.509C40.907 20.4876 40.8929 20.4662 40.8814 20.4438C40.5297 19.7989 40.2913 19.1405 40.1734 18.4878C39.9563 17.4652 40.0195 16.4525 40.3628 15.4987C40.6826 14.6206 41.2471 13.8281 42.0423 13.1394C42.2708 12.8989 42.5489 12.6902 42.8697 12.518C43.0727 12.4059 43.3153 12.3146 43.6002 12.2462C44.1548 12.0662 44.7089 12.0125 45.2541 12.0876C45.852 12.097 46.4087 12.2446 46.9101 12.5269C47.3797 12.7784 47.8017 13.0805 48.1576 13.4201C48.6313 12.9631 49.1849 12.6046 49.8052 12.3526C50.3911 12.1022 51.0553 12.0114 51.7628 12.0876C52.4671 12.096 53.1344 12.2932 53.748 12.6746C54.348 13.0674 54.8588 13.5667 55.2809 14.1678C55.8892 15.061 56.2153 16.0241 56.256 17.0379C56.3144 17.9368 56.1125 18.8947 55.6539 19.8657C55.4056 20.6008 55.0007 21.265 54.4461 21.8389C54.0506 22.3033 53.5638 22.8271 53.0285 23.3613C52.7311 23.629 52.3654 23.9342 51.8995 24.3026C52.1077 25.4634 52.2146 26.6958 52.2146 27.9735C52.2146 32.8972 50.4517 37.1556 46.9769 40.6314C44.8602 42.7481 42.4685 44.2267 39.8713 45.026C39.792 45.0516 39.7137 45.0626 39.6381 45.0626ZM42.2369 19.6627C42.5134 20.0671 42.8515 20.5106 43.2407 20.9806C43.884 21.7904 44.6734 22.5526 45.5932 23.2586C46.0059 23.5643 46.8323 24.1982 48.0475 25.1394C49.0195 24.4189 49.8704 23.8168 50.5816 23.3467C51.1821 22.8782 51.6428 22.5015 51.9496 22.2271C52.4254 21.7497 52.8856 21.2556 53.2863 20.7876C53.725 20.3321 54.0073 19.8678 54.1805 19.333C54.1915 19.3001 54.205 19.2678 54.2186 19.236C54.576 18.4935 54.7351 17.7819 54.6913 17.1203C54.661 16.3742 54.4325 15.7069 53.9906 15.0589C53.689 14.629 53.3228 14.268 52.9043 13.994C52.5402 13.7676 52.1452 13.6533 51.7158 13.6533C51.6845 13.6533 51.6548 13.6518 51.6235 13.6476C51.1685 13.5933 50.7683 13.6424 50.4057 13.7984C49.9518 13.9831 49.5595 14.2387 49.2256 14.5638C49.1703 14.6321 49.0826 14.725 48.9261 14.8659C48.8963 14.9045 48.8729 14.9368 48.8557 14.9634C48.7466 15.2076 48.5191 15.3813 48.2525 15.4189C47.9567 15.4617 47.6645 15.3328 47.497 15.0881C47.2685 14.7568 47.1986 14.6775 47.1913 14.6697C46.9122 14.376 46.5668 14.1193 46.1551 13.8991C45.8572 13.7311 45.5468 13.6528 45.1941 13.6528C45.1534 13.6528 45.1137 13.6497 45.0746 13.6434C44.7464 13.5923 44.4125 13.6257 44.0619 13.7426C44.0374 13.7509 44.0129 13.7572 43.9883 13.7629C43.8365 13.7973 43.7082 13.8422 43.6184 13.8928C43.4259 13.9951 43.2783 14.1067 43.165 14.2304C43.1426 14.2549 43.1191 14.2779 43.0946 14.2993C42.4883 14.8163 42.0637 15.3996 41.8351 16.032C41.5868 16.7149 41.5461 17.4193 41.7089 18.1857C41.7986 18.686 41.975 19.1754 42.2369 19.6627Z" fill="#1F253B"/>
<path d="M23.0988 53.7989C22.935 53.7989 22.7717 53.7473 22.634 53.6466C20.3216 51.9426 18.5498 50.6382 17.3148 49.7346C15.3666 48.2507 13.7075 46.6813 12.3724 45.0624C11.5 44.0299 10.8051 43.0579 10.312 42.1824C9.64943 40.9871 9.19239 39.8074 8.95082 38.6742C8.5736 36.6973 8.691 34.8718 9.29517 33.2309C9.85239 31.5958 10.8745 30.1062 12.328 28.8207C12.3453 28.805 12.3646 28.7893 12.3839 28.7753C13.2197 28.1627 14.0988 27.6807 14.9978 27.3436C15.0223 27.3342 15.0479 27.3264 15.074 27.3191C15.5273 27.1996 15.975 27.1177 16.4112 27.0728C16.5927 22.5165 18.3098 18.5309 21.5195 15.2179C25.082 11.7655 29.3722 10.0234 34.2912 10.0234C35.8433 10.0234 37.3282 10.1982 38.7066 10.5431C39.1266 10.648 39.3813 11.0732 39.2764 11.4921C39.1715 11.9111 38.7473 12.1667 38.3268 12.0614C37.0736 11.7473 35.715 11.5887 34.2917 11.5887C29.7938 11.5887 25.8693 13.182 22.6277 16.3245C19.7367 19.3094 18.1705 22.912 17.9811 27.0306C18.0004 27.0316 18.0197 27.0332 18.04 27.0347C19.0986 27.1516 20.078 27.4302 20.9868 27.8664C21.9781 28.3333 22.8129 28.9996 23.4599 29.8433C23.4708 29.8573 23.4813 29.872 23.4917 29.8871C23.5068 29.91 23.5517 29.9674 23.666 30.1083C23.8746 29.8401 23.9931 29.717 24.0818 29.6408C25.0053 28.7053 26.0759 28.0114 27.2665 27.5763C28.3152 27.126 29.4687 26.9403 30.6515 27.0358C31.9011 27.1516 33.0374 27.5121 34.0407 28.1095C35.1385 28.8024 36.0578 29.7034 36.7924 30.7965C37.8948 32.4233 38.4933 34.1481 38.5684 35.9226C38.6613 37.6464 38.272 39.412 37.4127 41.1645C36.9635 42.4172 36.2623 43.602 35.3268 44.6841C35.078 44.9695 34.7967 45.2841 34.4821 45.6342C33.9093 46.277 33.2399 46.9219 32.4927 47.5459C30.6573 49.3198 27.6259 51.3895 23.4797 53.6993C23.3607 53.7671 23.2293 53.7989 23.0988 53.7989ZM13.3376 30.0175C12.1058 31.1153 11.2413 32.3727 10.7706 33.7553C10.2593 35.1431 10.1654 36.688 10.4842 38.3659C10.6903 39.3306 11.0936 40.3636 11.6785 41.4196C12.1209 42.2053 12.7595 43.0949 13.575 44.0607C14.8386 45.5946 16.4112 47.0794 18.2513 48.4819C19.4028 49.3245 21.0406 50.5292 23.1557 52.0881C26.9717 49.937 29.752 48.0259 31.4232 46.4038C31.4373 46.3902 31.4519 46.3761 31.467 46.3641C32.164 45.784 32.7854 45.1871 33.3145 44.5923C33.628 44.2443 33.9035 43.9339 34.1451 43.6589C34.9606 42.7151 35.5689 41.6852 35.9534 40.6C35.9644 40.5702 35.9759 40.5426 35.9884 40.5144C36.7413 38.992 37.0835 37.4732 37.0042 35.9993C36.9411 34.5102 36.4334 33.0582 35.4938 31.6746C34.8792 30.76 34.1148 30.0107 33.2206 29.4457C32.4369 28.9793 31.5207 28.6907 30.5133 28.5979C29.5898 28.5217 28.6934 28.6683 27.8414 29.033C26.8204 29.4076 25.936 29.9847 25.1717 30.7662C25.1493 30.7887 25.1258 30.81 25.1013 30.8293C25.1023 30.8293 25.0219 30.9066 24.7945 31.2102C24.7773 31.2321 24.76 31.2535 24.7402 31.2739C24.4569 31.577 24.3619 31.7127 24.3348 31.757C24.2013 31.9678 23.9759 32.1029 23.7275 32.1201C23.4807 32.1405 23.2366 32.0356 23.0753 31.8452C22.4842 31.1476 22.2896 30.905 22.204 30.7824C21.712 30.1464 21.076 29.6419 20.3138 29.2824C19.5588 28.9208 18.7486 28.6902 17.8997 28.5958C17.7103 28.5848 17.474 28.5848 17.2324 28.5989C17.2141 28.6005 17.1959 28.601 17.1766 28.601C17.1745 28.601 17.1724 28.601 17.1703 28.601C16.6465 28.602 16.0882 28.6772 15.5101 28.8264C14.7687 29.1066 14.0378 29.5083 13.3376 30.0175Z" fill="#1F253B"/>
</g>
</g>
<defs>
<clipPath id="clip0_1346_5282">
<rect width="64" height="64" fill="white" transform="translate(0.5)"/>
</clipPath>
<clipPath id="clip1_1346_5282">
<rect width="48" height="43.8261" fill="white" transform="translate(8.5 10)"/>
</clipPath>
</defs>
</svg>
