<svg width="32" height="32" viewBox="0 0 32 32" fill="none" xmlns="http://www.w3.org/2000/svg">
<g id="Component 1">
<path id="Vector" d="M10.761 8.08946C8.99685 8.08868 7.36381 8.65185 6.17999 9.75988C4.99648 10.8668 4.28227 12.5145 4.28217 14.5681C4.28232 16.7226 5.79802 18.7258 7.85067 20.6922C9.90372 22.6592 12.5448 24.6 14.9621 26.6149C15.1047 26.729 15.3266 26.728 15.4686 26.6142C17.885 24.601 20.521 22.6537 22.5796 20.6928C24.6399 18.7317 26.1734 16.7456 26.174 14.5682C26.1742 12.4921 25.4349 10.8617 24.2505 9.75937C23.0661 8.65706 21.4573 8.08966 19.695 8.08876C17.8819 8.0891 16.3501 9.23254 15.2155 10.3917C14.0854 9.23931 12.5704 8.08934 10.761 8.08946Z" fill="#7D8BBD"/>
</g>
</svg>
