<svg width="78" height="78" viewBox="0 0 78 78" fill="none" xmlns="http://www.w3.org/2000/svg">
<rect width="78" height="78" rx="39" fill="#EAEEFA"/>
<rect x="7" y="7" width="64" height="64" rx="32" fill="#B4C0ED"/>
<path fill-rule="evenodd" clip-rule="evenodd" d="M26.54 25.9201C26.9666 23.0329 29.6195 21.5628 32.2779 22.7473L35.5518 24.2061C37.758 25.1892 40.2441 25.1885 42.4488 24.2061L45.7227 22.7473C48.3787 21.5638 51.0343 23.0348 51.4607 25.9201L52.3299 31.8025H25.6707L26.54 25.9201ZM25.2989 34.3188H52.7018L53.2595 38.0931H59.7062C60.0527 38.0931 60.3337 38.3748 60.3337 38.7222V39.9803C60.3337 40.3277 60.0527 40.6094 59.7062 40.6094H18.2944C17.9479 40.6094 17.667 40.3277 17.667 39.9803V38.7222C17.667 38.3748 17.9479 38.0931 18.2944 38.0931H24.7412L25.2989 34.3188ZM31.4709 43.7547C33.7959 43.7547 35.8255 45.0225 36.9095 46.9061C37.5076 46.5049 38.2267 46.2709 39.0003 46.2709C39.774 46.2709 40.4931 46.5049 41.0912 46.9061C42.1752 45.0225 44.2048 43.7547 46.5297 43.7547C48.5825 43.7547 50.4051 44.743 51.5498 46.2709H54.6866C55.0331 46.2709 55.3141 46.5526 55.3141 46.9V48.1581C55.3141 48.5056 55.0331 48.7872 54.6866 48.7872H52.6787C52.7611 49.1937 52.8042 49.6145 52.8042 50.0453C52.8042 53.5195 49.9951 56.3359 46.5297 56.3359C43.0644 56.3359 40.2552 53.5195 40.2552 50.0453C40.2552 49.3505 39.6934 48.7872 39.0003 48.7872C38.3073 48.7872 37.7454 49.3505 37.7454 50.0453C37.7454 53.5195 34.9362 56.3359 31.4709 56.3359C28.0056 56.3359 25.1964 53.5195 25.1964 50.0453C25.1964 49.6145 25.2396 49.1937 25.3219 48.7872H23.3141C22.9675 48.7872 22.6866 48.5056 22.6866 48.1581V46.9C22.6866 46.5526 22.9675 46.2709 23.3141 46.2709H26.4508C27.5956 44.743 29.4181 43.7547 31.4709 43.7547Z" fill="#FBFBFB"/>
</svg>
