<svg width="40" height="40" viewBox="0 0 40 40" fill="none" xmlns="http://www.w3.org/2000/svg">
<g id="Property 1=location">
<ellipse id="Container" cx="12" cy="12" rx="12" ry="12" fill="#F9605A"/>
<path id="primary" d="M26.55 31.0667C26.6287 31.2568 26.6684 31.4608 26.6666 31.6667C26.6666 33.5 23.6833 35 20 35C16.3166 35 13.3333 33.5 13.3333 31.6667C13.3315 31.4608 13.3712 31.2568 13.45 31.0667" stroke="black" stroke-width="2" stroke-linecap="round" stroke-linejoin="round"/>
<path id="primary_2" d="M28.3333 13.3333C28.3333 11.1232 27.4553 9.00358 25.8925 7.44078C24.3297 5.87797 22.2101 5 20 5C17.7898 5 15.6702 5.87797 14.1074 7.44078C12.5446 9.00358 11.6666 11.1232 11.6666 13.3333C11.6666 20 20 28.3333 20 28.3333C20 28.3333 28.3333 20 28.3333 13.3333Z" stroke="black" stroke-width="2" stroke-linecap="round" stroke-linejoin="round"/>
<path id="primary_3" d="M22.3569 11.046C23.0938 11.8043 23.3928 12.5158 23.3331 13.5714C23.2329 15.345 21.7754 16.613 19.9998 16.6667C19.0239 16.6961 18.3678 16.4873 17.6428 15.8333C16.9171 15.1787 16.7067 14.548 16.6665 13.5714C16.6225 12.5011 17.0177 11.7158 17.6428 11.046C18.268 10.3763 19.1158 10 19.9999 10C20.8839 10 21.6551 10.3238 22.3569 11.046Z" stroke="black" stroke-width="2" stroke-linecap="round" stroke-linejoin="round"/>
</g>
</svg>
