<svg width="40" height="40" viewBox="0 0 40 40" fill="none" xmlns="http://www.w3.org/2000/svg">
<g id="Icon Contact ">
<ellipse id="Container" cx="12" cy="12" rx="12" ry="12" fill="#F9605A"/>
<path id="primary" d="M26.5502 31.0664C26.629 31.2565 26.6687 31.4606 26.6669 31.6664C26.6669 33.4997 23.6836 34.9997 20.0002 34.9997C16.3169 34.9997 13.3336 33.4997 13.3336 31.6664C13.3318 31.4606 13.3715 31.2565 13.4502 31.0664" stroke="#1F253B" stroke-width="2" stroke-linecap="round" stroke-linejoin="round"/>
<path id="primary_2" d="M28.3332 13.3333C28.3332 11.1232 27.4552 9.00358 25.8924 7.44078C24.3296 5.87797 22.21 5 19.9998 5C17.7897 5 15.6701 5.87797 14.1073 7.44078C12.5445 9.00358 11.6665 11.1232 11.6665 13.3333C11.6665 20 19.9998 28.3333 19.9998 28.3333C19.9998 28.3333 28.3332 20 28.3332 13.3333Z" stroke="#1F253B" stroke-width="2" stroke-linecap="round" stroke-linejoin="round"/>
<path id="primary_3" d="M22.3568 11.046C23.0936 11.8043 23.3927 12.5158 23.333 13.5714C23.2328 15.345 21.7753 16.613 19.9997 16.6667C19.0238 16.6961 18.3677 16.4873 17.6427 15.8333C16.917 15.1787 16.7066 14.548 16.6664 13.5714C16.6224 12.5011 17.0176 11.7158 17.6427 11.046C18.2678 10.3763 19.1157 10 19.9997 10C20.8838 10 21.6549 10.3238 22.3568 11.046Z" stroke="#1F253B" stroke-width="2" stroke-linecap="round" stroke-linejoin="round"/>
</g>
</svg>
