<svg width="76" height="78" viewBox="0 0 76 78" fill="none" xmlns="http://www.w3.org/2000/svg">
<rect x="0.5" width="75.465" height="78" rx="37.7325" fill="#EAEEFA"/>
<rect x="6.5" y="7" width="64" height="64" rx="32" fill="#B4C0ED"/>
<path d="M20.4999 39.5986H38.4999C38.8315 39.5986 39.0999 39.3302 39.0999 38.9986C39.0999 34.6546 36.1987 30.9774 32.2331 29.7974C33.6535 28.891 34.5999 27.305 34.5999 25.4986C34.5999 22.6866 32.3119 20.3986 29.4999 20.3986C26.6879 20.3986 24.3999 22.6866 24.3999 25.4986C24.3999 27.305 25.3463 28.891 26.7667 29.7974C22.8011 30.9774 19.8999 34.6546 19.8999 38.9986C19.8999 39.3302 20.1683 39.5986 20.4999 39.5986ZM25.5999 25.4986C25.5999 23.3482 27.3495 21.5986 29.4999 21.5986C31.6503 21.5986 33.3999 23.3482 33.3999 25.4986C33.3999 27.649 31.6503 29.3986 29.4999 29.3986C27.3495 29.3986 25.5999 27.649 25.5999 25.4986ZM29.4999 30.5986C33.9291 30.5986 37.5595 34.0466 37.8695 38.3986H21.1303C21.4403 34.0466 25.0707 30.5986 29.4999 30.5986ZM50.2331 47.7974C51.6535 46.891 52.5999 45.305 52.5999 43.4986C52.5999 40.6866 50.3119 38.3986 47.4999 38.3986C44.6879 38.3986 42.3999 40.6866 42.3999 43.4986C42.3999 45.305 43.3463 46.891 44.7667 47.7974C40.8011 48.9774 37.8999 52.655 37.8999 56.9986C37.8999 57.3302 38.1683 57.5986 38.4999 57.5986H47.4999H56.4999C56.8315 57.5986 57.0999 57.3302 57.0999 56.9986C57.0999 52.6546 54.1987 48.9774 50.2331 47.7974ZM43.5999 43.4986C43.5999 41.3482 45.3495 39.5986 47.4999 39.5986C49.6503 39.5986 51.3999 41.3482 51.3999 43.4986C51.3999 45.649 49.6503 47.3986 47.4999 47.3986C45.3495 47.3986 43.5999 45.649 43.5999 43.4986ZM47.4999 48.5986C51.9291 48.5986 55.5595 52.0466 55.8695 56.3986H39.1303C39.4403 52.0466 43.0707 48.5986 47.4999 48.5986ZM57.0643 26.6922C57.0603 26.6806 57.0583 26.6686 57.0535 26.6574C57.0411 26.6282 57.0255 26.6006 57.0087 26.5738C57.0047 26.5674 57.0023 26.5606 56.9983 26.5546C56.9763 26.5218 56.9511 26.491 56.9231 26.463L51.0343 20.5742C50.7999 20.3398 50.4203 20.3398 50.1859 20.5742C49.9515 20.8082 49.9515 21.1886 50.1859 21.4226L55.0511 26.2878H38.8319C38.5003 26.2878 38.2319 26.5562 38.2319 26.8878C38.2319 27.2194 38.5003 27.4878 38.8319 27.4878H55.0515L50.1863 32.353C49.9519 32.587 49.9519 32.967 50.1863 33.2014C50.3035 33.3186 50.4571 33.377 50.6107 33.377C50.7643 33.377 50.9179 33.3186 51.0351 33.2014L56.9239 27.313C56.9519 27.285 56.9771 27.2546 56.9991 27.2214C57.0031 27.2154 57.0059 27.2082 57.0095 27.2022C57.0259 27.1754 57.0419 27.1482 57.0543 27.1186C57.0591 27.1074 57.0611 27.0954 57.0651 27.0838C57.0739 27.0586 57.0831 27.0334 57.0887 27.0066C57.0967 26.9678 57.1007 26.9282 57.1007 26.8878C57.1007 26.8474 57.0967 26.8078 57.0887 26.769C57.0835 26.7422 57.0731 26.7174 57.0643 26.6922ZM19.9355 51.305C19.9395 51.3166 19.9415 51.3286 19.9463 51.3398C19.9587 51.369 19.9743 51.3966 19.9911 51.4234C19.9951 51.4298 19.9975 51.4366 20.0015 51.4426C20.0235 51.4754 20.0487 51.5062 20.0767 51.5342L25.9655 57.423C26.0827 57.5402 26.2363 57.5986 26.3899 57.5986C26.5435 57.5986 26.6971 57.5402 26.8143 57.423C27.0487 57.189 27.0487 56.8086 26.8143 56.5746L21.9491 51.7094H38.1679C38.4995 51.7094 38.7679 51.441 38.7679 51.1094C38.7679 50.7778 38.4995 50.5094 38.1679 50.5094H21.9487L26.8139 45.6442C27.0483 45.4102 27.0483 45.0302 26.8139 44.7958C26.5795 44.5614 26.1999 44.5614 25.9655 44.7958L20.0767 50.6842C20.0487 50.7122 20.0235 50.7426 20.0015 50.7758C19.9975 50.7818 19.9947 50.789 19.9911 50.795C19.9747 50.8218 19.9587 50.849 19.9463 50.8786C19.9415 50.8898 19.9395 50.9018 19.9355 50.9134C19.9267 50.9386 19.9175 50.9638 19.9119 50.9906C19.9039 51.0294 19.8999 51.069 19.8999 51.1094C19.8999 51.1498 19.9039 51.1894 19.9119 51.2282C19.9171 51.255 19.9267 51.2798 19.9355 51.305Z" fill="#FBFBFB"/>
<path d="M25.5999 25.4986C25.5999 23.3482 27.3495 21.5986 29.4999 21.5986C31.6503 21.5986 33.3999 23.3482 33.3999 25.4986C33.3999 27.649 31.6503 29.3986 29.4999 29.3986C27.3495 29.3986 25.5999 27.649 25.5999 25.4986Z" fill="#FBFBFB"/>
<path d="M29.4999 30.5986C33.9291 30.5986 37.5595 34.0466 37.8695 38.3986H21.1303C21.4403 34.0466 25.0707 30.5986 29.4999 30.5986Z" fill="#FBFBFB"/>
<path d="M43.5999 43.4986C43.5999 41.3482 45.3495 39.5986 47.4999 39.5986C49.6503 39.5986 51.3999 41.3482 51.3999 43.4986C51.3999 45.649 49.6503 47.3986 47.4999 47.3986C45.3495 47.3986 43.5999 45.649 43.5999 43.4986Z" fill="#FBFBFB"/>
<path d="M47.4999 48.5986C51.9291 48.5986 55.5595 52.0466 55.8695 56.3986H39.1303C39.4403 52.0466 43.0707 48.5986 47.4999 48.5986Z" fill="#FBFBFB"/>
</svg>
