<svg width="76" height="78" viewBox="0 0 76 78" fill="none" xmlns="http://www.w3.org/2000/svg">
<rect x="0.267578" width="75.465" height="78" rx="37.7325" fill="#EAEEFA"/>
<rect x="7.26758" y="7" width="64" height="64" rx="32" fill="#B4C0ED"/>
<path d="M21.2675 39.5986H39.2675C39.5991 39.5986 39.8675 39.3302 39.8675 38.9986C39.8675 34.6546 36.9663 30.9774 33.0007 29.7974C34.4211 28.891 35.3675 27.305 35.3675 25.4986C35.3675 22.6866 33.0795 20.3986 30.2675 20.3986C27.4555 20.3986 25.1675 22.6866 25.1675 25.4986C25.1675 27.305 26.1139 28.891 27.5343 29.7974C23.5687 30.9774 20.6675 34.6546 20.6675 38.9986C20.6675 39.3302 20.9359 39.5986 21.2675 39.5986ZM26.3675 25.4986C26.3675 23.3482 28.1171 21.5986 30.2675 21.5986C32.4179 21.5986 34.1675 23.3482 34.1675 25.4986C34.1675 27.649 32.4179 29.3986 30.2675 29.3986C28.1171 29.3986 26.3675 27.649 26.3675 25.4986ZM30.2675 30.5986C34.6967 30.5986 38.3271 34.0466 38.6371 38.3986H21.8979C22.2079 34.0466 25.8383 30.5986 30.2675 30.5986ZM51.0007 47.7974C52.4211 46.891 53.3675 45.305 53.3675 43.4986C53.3675 40.6866 51.0795 38.3986 48.2675 38.3986C45.4555 38.3986 43.1675 40.6866 43.1675 43.4986C43.1675 45.305 44.1139 46.891 45.5343 47.7974C41.5687 48.9774 38.6675 52.655 38.6675 56.9986C38.6675 57.3302 38.9359 57.5986 39.2675 57.5986H48.2675H57.2675C57.5991 57.5986 57.8675 57.3302 57.8675 56.9986C57.8675 52.6546 54.9663 48.9774 51.0007 47.7974ZM44.3675 43.4986C44.3675 41.3482 46.1171 39.5986 48.2675 39.5986C50.4179 39.5986 52.1675 41.3482 52.1675 43.4986C52.1675 45.649 50.4179 47.3986 48.2675 47.3986C46.1171 47.3986 44.3675 45.649 44.3675 43.4986ZM48.2675 48.5986C52.6967 48.5986 56.3271 52.0466 56.6371 56.3986H39.8979C40.2079 52.0466 43.8383 48.5986 48.2675 48.5986ZM57.8319 26.6922C57.8279 26.6806 57.8259 26.6686 57.8211 26.6574C57.8087 26.6282 57.7931 26.6006 57.7763 26.5738C57.7723 26.5674 57.7699 26.5606 57.7659 26.5546C57.7439 26.5218 57.7187 26.491 57.6907 26.463L51.8019 20.5742C51.5675 20.3398 51.1879 20.3398 50.9535 20.5742C50.7191 20.8082 50.7191 21.1886 50.9535 21.4226L55.8187 26.2878H39.5995C39.2679 26.2878 38.9995 26.5562 38.9995 26.8878C38.9995 27.2194 39.2679 27.4878 39.5995 27.4878H55.8191L50.9539 32.353C50.7195 32.587 50.7195 32.967 50.9539 33.2014C51.0711 33.3186 51.2247 33.377 51.3783 33.377C51.5319 33.377 51.6855 33.3186 51.8027 33.2014L57.6915 27.313C57.7195 27.285 57.7447 27.2546 57.7667 27.2214C57.7707 27.2154 57.7735 27.2082 57.7771 27.2022C57.7935 27.1754 57.8095 27.1482 57.8219 27.1186C57.8267 27.1074 57.8287 27.0954 57.8327 27.0838C57.8415 27.0586 57.8507 27.0334 57.8563 27.0066C57.8643 26.9678 57.8683 26.9282 57.8683 26.8878C57.8683 26.8474 57.8643 26.8078 57.8563 26.769C57.8511 26.7422 57.8407 26.7174 57.8319 26.6922ZM20.7031 51.305C20.7071 51.3166 20.7091 51.3286 20.7139 51.3398C20.7263 51.369 20.7419 51.3966 20.7587 51.4234C20.7627 51.4298 20.7651 51.4366 20.7691 51.4426C20.7911 51.4754 20.8163 51.5062 20.8443 51.5342L26.7331 57.423C26.8503 57.5402 27.0039 57.5986 27.1575 57.5986C27.3111 57.5986 27.4647 57.5402 27.5819 57.423C27.8163 57.189 27.8163 56.8086 27.5819 56.5746L22.7167 51.7094H38.9355C39.2671 51.7094 39.5355 51.441 39.5355 51.1094C39.5355 50.7778 39.2671 50.5094 38.9355 50.5094H22.7163L27.5815 45.6442C27.8159 45.4102 27.8159 45.0302 27.5815 44.7958C27.3471 44.5614 26.9675 44.5614 26.7331 44.7958L20.8443 50.6842C20.8163 50.7122 20.7911 50.7426 20.7691 50.7758C20.7651 50.7818 20.7623 50.789 20.7587 50.795C20.7423 50.8218 20.7263 50.849 20.7139 50.8786C20.7091 50.8898 20.7071 50.9018 20.7031 50.9134C20.6943 50.9386 20.6851 50.9638 20.6795 50.9906C20.6715 51.0294 20.6675 51.069 20.6675 51.1094C20.6675 51.1498 20.6715 51.1894 20.6795 51.2282C20.6847 51.255 20.6943 51.2798 20.7031 51.305Z" fill="#FBFBFB"/>
<path d="M26.3675 25.4986C26.3675 23.3482 28.1171 21.5986 30.2675 21.5986C32.4179 21.5986 34.1675 23.3482 34.1675 25.4986C34.1675 27.649 32.4179 29.3986 30.2675 29.3986C28.1171 29.3986 26.3675 27.649 26.3675 25.4986Z" fill="#FBFBFB"/>
<path d="M30.2675 30.5986C34.6967 30.5986 38.3271 34.0466 38.6371 38.3986H21.8979C22.2079 34.0466 25.8383 30.5986 30.2675 30.5986Z" fill="#FBFBFB"/>
<path d="M44.3675 43.4986C44.3675 41.3482 46.1171 39.5986 48.2675 39.5986C50.4179 39.5986 52.1675 41.3482 52.1675 43.4986C52.1675 45.649 50.4179 47.3986 48.2675 47.3986C46.1171 47.3986 44.3675 45.649 44.3675 43.4986Z" fill="#FBFBFB"/>
<path d="M48.2675 48.5986C52.6967 48.5986 56.3271 52.0466 56.6371 56.3986H39.8979C40.2079 52.0466 43.8383 48.5986 48.2675 48.5986Z" fill="#FBFBFB"/>
</svg>
