<svg width="76" height="78" viewBox="0 0 76 78" fill="none" xmlns="http://www.w3.org/2000/svg">
<rect x="0.267578" width="75.465" height="78" rx="37.7325" fill="#EAEEFA"/>
<rect x="7.26758" y="6.99951" width="64" height="64" rx="32" fill="#B4C0ED"/>
<path d="M35.2233 37.3149C35.2233 35.2439 36.9081 33.559 38.9788 33.559C41.0496 33.559 42.7344 35.2439 42.7344 37.3149C42.7344 39.3858 41.0496 41.0708 38.9788 41.0708C36.9081 41.0708 35.2233 39.3858 35.2233 37.3149Z" fill="#FBFBFB"/>
<path d="M38.9788 42.2265C43.244 42.2265 46.7399 45.5471 47.0384 49.7383H30.9192C31.2177 45.5471 34.7137 42.2265 38.9788 42.2265Z" fill="#FBFBFB"/>
<path fill-rule="evenodd" clip-rule="evenodd" d="M41.6108 41.4549C42.9786 40.582 43.8899 39.0545 43.8899 37.3149C43.8899 34.6068 41.6867 32.4033 38.9788 32.4033C36.271 32.4033 34.0677 34.6068 34.0677 37.3149C34.0677 39.0545 34.9791 40.582 36.3469 41.4549C32.5281 42.5913 29.7344 46.133 29.7344 50.3161C29.7344 50.6355 29.9928 50.8939 30.3122 50.8939H38.9788H47.6455C47.9648 50.8939 48.2233 50.6355 48.2233 50.3161C48.2233 46.1326 45.4295 42.5913 41.6108 41.4549ZM38.9788 33.559C36.9081 33.559 35.2233 35.2439 35.2233 37.3149C35.2233 39.3858 36.9081 41.0708 38.9788 41.0708C41.0496 41.0708 42.7344 39.3858 42.7344 37.3149C42.7344 35.2439 41.0496 33.559 38.9788 33.559ZM47.0384 49.7383C46.7399 45.5471 43.244 42.2265 38.9788 42.2265C34.7137 42.2265 31.2177 45.5471 30.9192 49.7383H47.0384Z" fill="#FBFBFB"/>
<path d="M42.5178 58.754C42.8247 58.754 43.0734 58.5053 43.0734 58.1984C43.0734 57.8916 42.8247 57.6429 42.5178 57.6429V58.754ZM35.2053 57.6429C34.8985 57.6429 34.6497 57.8916 34.6497 58.1984C34.6497 58.5053 34.8985 58.754 35.2053 58.754V57.6429ZM44.2676 22.5614C44.5744 22.5614 44.8232 22.3127 44.8232 22.0059C44.8232 21.699 44.5744 21.4503 44.2676 21.4503V22.5614ZM52.8234 34.498C52.8234 34.1912 52.5747 33.9425 52.2678 33.9425C51.961 33.9425 51.7122 34.1912 51.7122 34.498H52.8234ZM28.4901 61.5614H38.1845V60.4503H28.4901V61.5614ZM38.1845 61.5614H50.0455V60.4503H38.1845V61.5614ZM40.3512 60.4503H38.1845V61.5614H40.3512V60.4503ZM25.7122 24.2282V55.5502H26.8234V24.2282H25.7122ZM25.7122 55.5502V58.7835H26.8234V55.5502H25.7122ZM52.8234 58.7835V55.5502H51.7122V58.7835H52.8234ZM26.2678 56.1058H52.2678V54.9946H26.2678V56.1058ZM42.5178 57.6429H35.2053V58.754H42.5178V57.6429ZM44.2676 21.4503H28.4901V22.5614H44.2676V21.4503ZM52.8234 55.5502V34.498H51.7122V55.5502H52.8234ZM26.8234 24.2282C26.8234 23.3077 27.5696 22.5614 28.4901 22.5614V21.4503C26.956 21.4503 25.7122 22.694 25.7122 24.2282H26.8234ZM50.0455 61.5614C51.5797 61.5614 52.8234 60.3177 52.8234 58.7835H51.7122C51.7122 59.7041 50.966 60.4503 50.0455 60.4503V61.5614ZM28.4901 60.4503C27.5696 60.4503 26.8234 59.7041 26.8234 58.7835H25.7122C25.7122 60.3177 26.956 61.5614 28.4901 61.5614V60.4503Z" fill="#FBFBFB"/>
<path d="M47.211 22.0103C48.4684 20.6606 50.5068 20.6606 51.7647 22.0103L52.2678 22.5503L52.771 22.0103C54.0284 20.6606 56.0668 20.6606 57.3242 22.0103C58.5821 23.3595 58.5821 25.5472 57.3242 26.8966L52.7834 31.7695C52.4994 32.0742 52.0357 32.0742 51.7523 31.7695L47.211 26.8969C45.9531 25.5475 45.9531 23.3595 47.211 22.0103Z" fill="#FBFBFB"/>
</svg>
