<svg width="76" height="78" viewBox="0 0 76 78" fill="none" xmlns="http://www.w3.org/2000/svg">
<rect x="0.267578" width="75.465" height="78" rx="37.7325" fill="#EAEEFA"/>
<rect x="7.26758" y="7" width="64" height="64" rx="32" fill="#B4C0ED"/>
<path d="M18.3716 36.7573C18.407 36.7619 18.4428 36.7644 18.4785 36.7647C18.6591 36.7645 18.8335 36.6993 18.9698 36.5809C19.1061 36.4625 19.1951 36.2989 19.2205 36.1201C19.6544 33.1124 20.7593 30.2408 22.4533 27.7179C24.1472 25.195 26.387 23.0854 29.0066 21.5453C31.6263 20.0052 34.5588 19.0739 37.5871 18.8206C40.6153 18.5672 43.6618 18.9982 46.501 20.0816C46.6871 20.1523 46.8936 20.1462 47.0752 20.0646C47.2568 19.983 47.3985 19.8326 47.4692 19.6465C47.5399 19.4604 47.5338 19.2538 47.4522 19.0723C47.3707 18.8907 47.2203 18.7489 47.0342 18.6782C43.9845 17.5155 40.7123 17.0534 37.4599 17.3262C34.2075 17.599 31.0581 18.5997 28.2447 20.2543C25.4313 21.9088 23.026 24.1749 21.2068 26.8847C19.3876 29.5945 18.2011 32.6788 17.7351 35.9092C17.7211 36.0067 17.7266 36.106 17.751 36.2014C17.7755 36.2967 17.8185 36.3864 17.8776 36.4652C17.9367 36.5439 18.0108 36.6103 18.0955 36.6604C18.1803 36.7105 18.2741 36.7435 18.3716 36.7573ZM60.116 32.7847C60.0879 32.6901 60.0415 32.6019 59.9793 32.5252C59.9171 32.4486 59.8404 32.385 59.7536 32.338C59.6668 32.2911 59.5716 32.2617 59.4734 32.2516C59.3752 32.2416 59.276 32.251 59.1815 32.2793C59.0869 32.3076 58.9989 32.3543 58.9225 32.4167C58.846 32.4792 58.7826 32.5561 58.7359 32.643C58.6893 32.73 58.6602 32.8253 58.6504 32.9235C58.6406 33.0217 58.6503 33.1209 58.679 33.2153C59.6959 36.6345 59.7897 40.2619 58.9511 43.729C58.1124 47.1962 56.371 50.3796 53.9038 52.956C51.0218 50.3095 47.4766 48.4931 43.6449 47.7C45.606 46.7147 47.1774 45.0965 48.1047 43.1072C49.0319 41.118 49.2609 38.8741 48.7546 36.7385C48.2483 34.603 47.0363 32.7007 45.3146 31.3395C43.5929 29.9783 41.4624 29.2378 39.2676 29.2378C37.0729 29.2378 34.9423 29.9783 33.2207 31.3395C31.499 32.7007 30.287 34.603 29.7806 36.7385C29.2743 38.8741 29.5033 41.118 30.4306 43.1072C31.3579 45.0965 32.9292 46.7147 34.8904 47.7C31.0601 48.4929 27.516 50.3082 24.6345 52.9533C21.7156 49.9197 19.822 46.0467 19.2205 41.88C19.1925 41.683 19.0874 41.5052 18.9284 41.3857C18.7693 41.2662 18.5693 41.2148 18.3723 41.2428C18.1753 41.2708 17.9976 41.3758 17.8781 41.5349C17.7586 41.694 17.7071 41.894 17.7351 42.0909C18.1624 45.0501 19.195 47.8895 20.7687 50.4317C22.3424 52.9739 24.4232 55.1644 26.8813 56.8665C29.3394 58.5686 32.122 59.7456 35.0554 60.3242C37.9887 60.9028 41.0098 60.8704 43.9301 60.2292C46.8504 59.5879 49.6072 58.3515 52.0283 56.5972C54.4494 54.8429 56.4828 52.6083 58.0017 50.033C59.5205 47.4576 60.4922 44.5968 60.856 41.6292C61.2197 38.6615 60.9678 35.6506 60.116 32.7847ZM31.0176 39C31.0176 37.3683 31.5014 35.7733 32.408 34.4166C33.3145 33.0599 34.603 32.0024 36.1104 31.378C37.6179 30.7536 39.2767 30.5902 40.8771 30.9085C42.4774 31.2269 43.9474 32.0126 45.1012 33.1664C46.255 34.3202 47.0407 35.7902 47.3591 37.3905C47.6774 38.9909 47.514 40.6497 46.8896 42.1572C46.2652 43.6646 45.2077 44.9531 43.851 45.8596C42.4943 46.7662 40.8993 47.25 39.2676 47.25C37.0803 47.2474 34.9834 46.3774 33.4368 44.8308C31.8902 43.2842 31.0202 41.1873 31.0176 39ZM25.7179 53.9938C29.4252 50.6189 34.2585 48.749 39.2719 48.75C44.2854 48.7511 49.1179 50.6231 52.8238 53.9995C49.1185 57.3785 44.2844 59.2511 39.2697 59.25C34.2551 59.249 29.4218 57.3743 25.7179 53.9938Z" fill="#FBFBFB"/>
<path d="M31.0176 39C31.0176 37.3683 31.5014 35.7733 32.408 34.4166C33.3145 33.0599 34.603 32.0024 36.1104 31.378C37.6179 30.7536 39.2767 30.5902 40.8771 30.9085C42.4774 31.2269 43.9474 32.0126 45.1012 33.1664C46.255 34.3202 47.0407 35.7902 47.3591 37.3905C47.6774 38.9909 47.514 40.6497 46.8896 42.1572C46.2652 43.6646 45.2077 44.9531 43.851 45.8596C42.4943 46.7662 40.8993 47.25 39.2676 47.25C37.0803 47.2474 34.9834 46.3774 33.4368 44.8308C31.8902 43.2842 31.0202 41.1873 31.0176 39Z" fill="#FBFBFB"/>
<path d="M25.7179 53.9938C29.4252 50.6189 34.2585 48.749 39.2719 48.75C44.2854 48.7511 49.1179 50.6231 52.8238 53.9995C49.1185 57.3785 44.2844 59.2511 39.2697 59.25C34.2551 59.249 29.4218 57.3743 25.7179 53.9938Z" fill="#FBFBFB"/>
<path d="M46.8657 22.311C46.8225 22.4441 46.8175 22.5867 46.851 22.7225C46.8845 22.8584 46.9553 22.9822 47.0554 23.0801L49.9455 25.8955L49.2629 29.8725C49.2444 29.9802 49.2496 30.0906 49.2782 30.1961C49.3068 30.3015 49.3581 30.3994 49.4284 30.483C49.4988 30.5666 49.5866 30.6338 49.6857 30.6799C49.7847 30.726 49.8926 30.7499 50.0019 30.75C50.1235 30.7504 50.2432 30.7207 50.3505 30.6636L53.9233 28.7856L57.4953 30.6636C57.6192 30.7287 57.7588 30.7579 57.8984 30.7477C58.038 30.7376 58.172 30.6886 58.2852 30.6063C58.3984 30.524 58.4863 30.4116 58.5389 30.2819C58.5915 30.1523 58.6068 30.0104 58.583 29.8725L57.9011 25.8954L60.7913 23.08C60.8915 22.9822 60.9623 22.8583 60.9958 22.7224C61.0293 22.5864 61.0242 22.4438 60.9809 22.3107C60.9376 22.1775 60.858 22.0591 60.751 21.9688C60.644 21.8785 60.5138 21.82 60.3753 21.7997L56.3821 21.2197L54.5957 17.6001C54.5263 17.4836 54.4279 17.3871 54.31 17.32C54.1922 17.253 54.0589 17.2178 53.9233 17.2178C53.7877 17.2178 53.6544 17.253 53.5366 17.32C53.4187 17.3871 53.3203 17.4836 53.2509 17.6001L51.4646 21.2197L47.4714 21.7998C47.3327 21.8198 47.2024 21.8783 47.0954 21.9687C46.9883 22.0591 46.9087 22.1777 46.8657 22.311ZM52.0703 22.6479C52.1905 22.6303 52.3047 22.5837 52.4031 22.5123C52.5014 22.4409 52.581 22.3467 52.635 22.2378L53.9233 19.6275L55.2116 22.2379C55.2656 22.3468 55.3452 22.441 55.4435 22.5124C55.5419 22.5838 55.6561 22.6304 55.7763 22.648L58.6555 23.0655L56.5717 25.0957C56.4847 25.1808 56.4196 25.2858 56.3821 25.4017C56.3446 25.5175 56.3358 25.6407 56.3564 25.7607L56.8478 28.6289L54.2719 27.2754C54.1643 27.2191 54.0447 27.1897 53.9233 27.1897C53.8019 27.1897 53.6822 27.2191 53.5747 27.2754L50.998 28.6289L51.4902 25.7607C51.5108 25.6407 51.502 25.5175 51.4645 25.4017C51.427 25.2858 51.3619 25.1808 51.2748 25.0957L49.1911 23.0655L52.0703 22.6479Z" fill="#FBFBFB"/>
<path d="M52.0703 22.6479C52.1905 22.6303 52.3047 22.5837 52.4031 22.5123C52.5014 22.4409 52.581 22.3467 52.635 22.2378L53.9233 19.6275L55.2116 22.2379C55.2656 22.3468 55.3452 22.441 55.4435 22.5124C55.5419 22.5838 55.6561 22.6304 55.7763 22.648L58.6555 23.0655L56.5717 25.0957C56.4847 25.1808 56.4196 25.2858 56.3821 25.4017C56.3446 25.5175 56.3358 25.6407 56.3564 25.7607L56.8478 28.6289L54.2719 27.2754C54.1643 27.2191 54.0447 27.1897 53.9233 27.1897C53.8019 27.1897 53.6822 27.2191 53.5747 27.2754L50.998 28.6289L51.4902 25.7607C51.5108 25.6407 51.502 25.5175 51.4645 25.4017C51.427 25.2858 51.3619 25.1808 51.2748 25.0957L49.1911 23.0655L52.0703 22.6479Z" fill="#FBFBFB"/>
<path d="M18.2676 39.75C18.6818 39.75 19.0176 39.4142 19.0176 39C19.0176 38.5858 18.6818 38.25 18.2676 38.25C17.8534 38.25 17.5176 38.5858 17.5176 39C17.5176 39.4142 17.8534 39.75 18.2676 39.75Z" fill="#FBFBFB"/>
</svg>
