<svg width="76" height="78" viewBox="0 0 76 78" fill="none" xmlns="http://www.w3.org/2000/svg">
<rect x="0.5" width="75.465" height="78" rx="37.7325" fill="#EAEEFA"/>
<rect x="6.5" y="7" width="64" height="64" rx="32" fill="#B4C0ED"/>
<path d="M34.4554 35.3134C34.4554 33.2429 36.1402 31.5583 38.211 31.5583C40.2818 31.5583 41.9666 33.2429 41.9666 35.3134C41.9666 37.384 40.2818 39.0686 38.211 39.0686C36.1402 39.0686 34.4554 37.384 34.4554 35.3134Z" fill="#FBFBFB"/>
<path d="M38.211 40.2241C42.4762 40.2241 45.9721 43.544 46.2706 47.7344H30.1514C30.4499 43.544 33.9458 40.2241 38.211 40.2241Z" fill="#FBFBFB"/>
<path fill-rule="evenodd" clip-rule="evenodd" d="M40.843 39.4526C42.2108 38.5799 43.1221 37.0528 43.1221 35.3134C43.1221 32.6059 40.9189 30.4028 38.211 30.4028C35.5031 30.4028 33.2999 32.6059 33.2999 35.3134C33.2999 37.0528 34.2112 38.5799 35.579 39.4526C31.7603 40.5888 28.9666 44.1298 28.9666 48.3121C28.9666 48.6314 29.225 48.8898 29.5443 48.8898H38.211H46.8777C47.197 48.8898 47.4554 48.6314 47.4554 48.3121C47.4554 44.1294 44.6617 40.5888 40.843 39.4526ZM38.211 31.5583C36.1402 31.5583 34.4554 33.2429 34.4554 35.3134C34.4554 37.384 36.1402 39.0686 38.211 39.0686C40.2818 39.0686 41.9666 37.384 41.9666 35.3134C41.9666 33.2429 40.2818 31.5583 38.211 31.5583ZM46.2706 47.7344C45.9721 43.544 42.4762 40.2241 38.211 40.2241C33.9458 40.2241 30.4499 43.544 30.1514 47.7344H46.2706Z" fill="#FBFBFB"/>
<path d="M41.75 56.7489C42.0568 56.7489 42.3056 56.5002 42.3056 56.1933C42.3056 55.8865 42.0568 55.6377 41.75 55.6377V56.7489ZM34.4375 55.6377C34.1307 55.6377 33.8819 55.8865 33.8819 56.1933C33.8819 56.5002 34.1307 56.7489 34.4375 56.7489V55.6377ZM43.4998 20.5634C43.8066 20.5634 44.0553 20.3147 44.0553 20.0078C44.0553 19.701 43.8066 19.4522 43.4998 19.4522V20.5634ZM52.0556 32.4976C52.0556 32.1907 51.8068 31.942 51.5 31.942C51.1932 31.942 50.9444 32.1907 50.9444 32.4976H52.0556ZM27.7223 59.5558H37.4167V58.4446H27.7223V59.5558ZM37.4167 59.5558H49.2777V58.4446H37.4167V59.5558ZM39.5833 58.4446H37.4167V59.5558H39.5833V58.4446ZM24.9444 22.2301V53.5456H26.0556V22.2301H24.9444ZM24.9444 53.5456V56.7779H26.0556V53.5456H24.9444ZM52.0556 56.7779V53.5456H50.9444V56.7779H52.0556ZM25.5 54.1012H51.5V52.99H25.5V54.1012ZM41.75 55.6377H34.4375V56.7489H41.75V55.6377ZM43.4998 19.4522H27.7223V20.5634H43.4998V19.4522ZM52.0556 53.5456V32.4976H50.9444V53.5456H52.0556ZM26.0556 22.2301C26.0556 21.3096 26.8018 20.5634 27.7223 20.5634V19.4522C26.1881 19.4522 24.9444 20.6959 24.9444 22.2301H26.0556ZM49.2777 59.5558C50.8119 59.5558 52.0556 58.3121 52.0556 56.7779H50.9444C50.9444 57.6984 50.1982 58.4446 49.2777 58.4446V59.5558ZM27.7223 58.4446C26.8018 58.4446 26.0556 57.6984 26.0556 56.7779H24.9444C24.9444 58.3121 26.1881 59.5558 27.7223 59.5558V58.4446Z" fill="#FBFBFB"/>
<path d="M46.4432 20.0121C47.7006 18.6626 49.739 18.6626 50.9969 20.0121L51.5 20.552L52.0032 20.0121C53.2605 18.6626 55.299 18.6626 56.5563 20.0121C57.8142 21.361 57.8142 23.5483 56.5563 24.8974L52.0156 29.7693C51.7316 30.074 51.2679 30.074 50.9845 29.7693L46.4432 24.8977C45.1853 23.5486 45.1853 21.361 46.4432 20.0121Z" fill="#FBFBFB"/>
</svg>
