<svg width="78" height="78" viewBox="0 0 78 78" fill="none" xmlns="http://www.w3.org/2000/svg">
<rect width="78" height="78" rx="39" fill="#B4C0ED" fill-opacity="0.25"/>
<g clip-path="url(#clip0_1354_163)">
<path d="M39 7C32.671 7 26.4841 8.87677 21.2218 12.393C15.9594 15.9092 11.8579 20.9069 9.43587 26.7541C7.01386 32.6014 6.38016 39.0355 7.61489 45.2429C8.84961 51.4503 11.8973 57.1521 16.3726 61.6274C20.8479 66.1027 26.5497 69.1504 32.7571 70.3851C38.9645 71.6198 45.3986 70.9861 51.2459 68.5641C57.0931 66.1421 62.0908 62.0406 65.607 56.7782C69.1232 51.5159 71 45.329 71 39C71 30.5131 67.6286 22.3737 61.6274 16.3726C55.6263 10.3714 47.4869 7 39 7ZM39 60.7406C38.2329 60.7406 37.4829 60.5131 36.8451 60.0869C36.2072 59.6607 35.7101 59.0549 35.4165 58.3462C35.1229 57.6374 35.0461 56.8575 35.1958 56.1051C35.3454 55.3527 35.7148 54.6615 36.2573 54.1191C36.7997 53.5766 37.4909 53.2072 38.2433 53.0576C38.9957 52.9079 39.7756 52.9847 40.4844 53.2783C41.1931 53.5719 41.7989 54.069 42.2251 54.7069C42.6513 55.3447 42.8788 56.0947 42.8788 56.8618C42.8788 57.8905 42.4701 58.8771 41.7427 59.6045C41.0153 60.3319 40.0287 60.7406 39 60.7406ZM44.8182 43.9454C44.2223 44.237 43.7227 44.6935 43.3789 45.2608C43.0351 45.8282 42.8615 46.4823 42.8788 47.1454V49.1527C42.8788 49.4099 42.7766 49.6565 42.5948 49.8384C42.4129 50.0202 42.1663 50.1224 41.9091 50.1224H36.0909C35.8337 50.1224 35.5871 50.0202 35.4052 49.8384C35.2234 49.6565 35.1212 49.4099 35.1212 49.1527V47.1454C35.1012 44.9975 35.6982 42.8889 36.8413 41.0703C37.9844 39.2517 39.6255 37.7994 41.5697 36.8861C42.6956 36.3766 43.6435 35.542 44.2915 34.4897C44.9394 33.4374 45.258 32.2153 45.2061 30.9806C45.122 29.4272 44.4665 27.9597 43.3655 26.8605C42.2646 25.7613 40.796 25.1082 39.2424 25.0267C38.4061 24.9926 37.5716 25.1283 36.7891 25.4257C36.0067 25.723 35.2926 26.1758 34.69 26.7566C34.0874 27.3375 33.6087 28.0345 33.2828 28.8054C32.9569 29.5764 32.7906 30.4054 32.7939 31.2424C32.7939 31.4996 32.6918 31.7462 32.5099 31.9281C32.3281 32.11 32.0814 32.2121 31.8243 32.2121H26.0061C25.7489 32.2121 25.5022 32.11 25.3204 31.9281C25.1385 31.7462 25.0364 31.4996 25.0364 31.2424C25.035 29.3629 25.4131 27.5025 26.1479 25.7726C26.8828 24.0428 27.9593 22.4791 29.313 21.1752C30.6666 19.8713 32.2696 18.8542 34.0258 18.1846C35.7819 17.5151 37.6552 17.207 39.5333 17.2788C42.6737 17.3992 45.6818 18.5746 48.0717 20.6153C50.4617 22.656 52.094 25.4427 52.7049 28.5254C53.3158 31.6081 52.8698 34.8068 51.4387 37.6047C50.0077 40.4026 47.6753 42.6365 44.8182 43.9454Z" fill="#B4C0ED"/>
<path d="M44.8182 43.9454C44.2223 44.237 43.7227 44.6935 43.3789 45.2608C43.0351 45.8282 42.8615 46.4823 42.8788 47.1454V49.1527C42.8788 49.4099 42.7766 49.6565 42.5948 49.8384C42.4129 50.0202 42.1663 50.1224 41.9091 50.1224H36.0909C35.8337 50.1224 35.5871 50.0202 35.4052 49.8384C35.2234 49.6565 35.1212 49.4099 35.1212 49.1527V47.1454C35.1012 44.9975 35.6982 42.8889 36.8413 41.0703C37.9844 39.2517 39.6255 37.7994 41.5697 36.8861C42.6956 36.3766 43.6435 35.542 44.2915 34.4897C44.9394 33.4374 45.258 32.2153 45.2061 30.9806C45.122 29.4272 44.4665 27.9597 43.3655 26.8605C42.2646 25.7613 40.796 25.1082 39.2424 25.0267C38.4061 24.9926 37.5716 25.1283 36.7891 25.4257C36.0067 25.723 35.2926 26.1758 34.69 26.7566C34.0874 27.3375 33.6087 28.0345 33.2828 28.8054C32.9569 29.5764 32.7906 30.4054 32.7939 31.2424C32.7939 31.4996 32.6918 31.7462 32.5099 31.9281C32.3281 32.11 32.0814 32.2121 31.8243 32.2121H26.0061C25.7489 32.2121 25.5022 32.11 25.3204 31.9281C25.1385 31.7462 25.0364 31.4996 25.0364 31.2424C25.035 29.3629 25.4131 27.5025 26.1479 25.7726C26.8828 24.0428 27.9593 22.4791 29.313 21.1752C30.6666 19.8713 32.2696 18.8542 34.0258 18.1846C35.7819 17.5151 37.6552 17.207 39.5333 17.2788C42.6737 17.3992 45.6818 18.5746 48.0717 20.6153C50.4617 22.656 52.094 25.4427 52.7049 28.5254C53.3158 31.6081 52.8698 34.8068 51.4387 37.6047C50.0077 40.4026 47.6753 42.6365 44.8182 43.9454Z" fill="#FBFBFB"/>
<path d="M39 60.7406C38.2329 60.7406 37.4829 60.5131 36.8451 60.0869C36.2072 59.6607 35.7101 59.0549 35.4165 58.3462C35.1229 57.6374 35.0461 56.8575 35.1958 56.1051C35.3454 55.3527 35.7148 54.6615 36.2573 54.1191C36.7997 53.5766 37.4909 53.2072 38.2433 53.0576C38.9957 52.9079 39.7756 52.9847 40.4844 53.2783C41.1931 53.5719 41.7989 54.069 42.2251 54.7069C42.6513 55.3447 42.8788 56.0947 42.8788 56.8618C42.8788 57.8905 42.4701 58.8771 41.7427 59.6045C41.0153 60.3319 40.0287 60.7406 39 60.7406Z" fill="#FBFBFB"/>
</g>
<defs>
<clipPath id="clip0_1354_163">
<rect width="64" height="64" fill="white" transform="translate(7 7)"/>
</clipPath>
</defs>
</svg>
