<svg width="32" height="32" viewBox="0 0 32 32" fill="none" xmlns="http://www.w3.org/2000/svg">
<g id="Component 1">
<path id="rings-[#909]" fill-rule="evenodd" clip-rule="evenodd" d="M7.2 13.2511C7.2 9.91505 9.9137 7.20156 13.25 7.20156C14.3651 7.20328 15.4581 7.51289 16.4085 8.09632C17.3588 8.67974 18.1295 9.51442 18.6356 10.508C16.7864 10.5344 14.9997 11.1813 13.5624 12.3451C12.1251 13.5088 11.1205 15.1217 10.7101 16.9249C11.3319 17.3494 12.0515 17.6085 12.8012 17.6781C13.0218 16.466 13.6067 15.35 14.4779 14.4788C15.3491 13.6077 16.4653 13.0229 17.6775 12.8024C18.0262 12.7397 18.3837 12.7011 18.75 12.7011C18.9282 12.7011 19.1009 12.723 19.2747 12.7406C19.2879 12.9089 19.3 13.0784 19.3 13.2511C19.3 16.5871 16.5863 19.3006 13.25 19.3006C11.646 19.2989 10.1082 18.6611 8.97394 17.5269C7.83972 16.3928 7.20175 14.855 7.2 13.2511ZM23.0169 11.7003C23.0961 12.2063 23.15 12.722 23.15 13.2511C23.15 13.6801 23.1137 14.0991 23.0609 14.5127C24.1754 15.6417 24.8002 17.1643 24.8 18.7507C24.8 22.0867 22.0863 24.8002 18.75 24.8002C17.1 24.8002 15.6051 24.1347 14.5117 23.0611C14.0513 22.6027 13.6674 22.0735 13.3743 21.4937C15.5399 21.4622 17.6062 20.5801 19.1267 19.0377C20.6471 17.4954 21.4997 15.4168 21.5 13.2511C21.5003 11.7219 21.0755 10.2228 20.2731 8.92098C19.4706 7.6192 18.3221 6.56593 16.9558 5.87904C15.5894 5.19214 14.059 4.89856 12.5354 5.03101C11.0119 5.16346 9.5551 5.71668 8.32779 6.62905C7.10049 7.54142 6.15096 8.77714 5.58523 10.1979C5.01951 11.6186 4.85984 13.1684 5.12408 14.6746C5.38831 16.1808 6.06604 17.5839 7.08158 18.7273C8.09713 19.8707 9.41052 20.7093 10.8751 21.1495C11.0753 21.8094 11.3481 22.4386 11.699 23.0171C12.4316 24.2321 13.4658 25.2372 14.7011 25.935C15.9365 26.6328 17.3312 26.9997 18.75 27C20.938 27 23.0365 26.1308 24.5836 24.5837C26.1308 23.0367 27 20.9385 27 18.7507C26.9997 17.3319 26.6328 15.9372 25.935 14.702C25.2371 13.4667 24.232 12.4329 23.0169 11.7003Z" fill="#7D8BBD"/>
</g>
</svg>
