<svg width="78" height="78" viewBox="0 0 78 78" fill="none" xmlns="http://www.w3.org/2000/svg">
<rect width="78" height="78" rx="39" fill="#EAEEFA"/>
<g clip-path="url(#clip0_1346_5452)">
<path d="M31.2133 55.7032C28.6673 55.7085 26.1769 54.9632 24.0582 53.5617C21.9395 52.1602 20.2879 50.1656 19.3128 47.8311C18.3377 45.4965 18.0831 42.9271 18.5813 40.4487C19.0795 37.9703 20.3081 35.6946 22.1111 33.9103C23.4476 32.5749 25.07 31.5556 26.8578 30.9281C25.9251 30.0791 25.2117 29.02 24.7778 27.84C24.544 27.2115 24.4454 26.5414 24.4883 25.8728C24.5311 25.2042 24.7145 24.5519 25.0267 23.9579C25.3084 23.4177 25.7115 22.9491 26.2046 22.588C26.6978 22.227 27.268 21.9833 27.8711 21.8757C29.0546 21.7393 30.25 22.0002 31.2667 22.6168C32.2834 22.0002 33.4788 21.7393 34.6622 21.8757C35.2394 21.9717 35.7871 22.1962 36.2643 22.5324C36.7416 22.8686 37.1359 23.3077 37.4178 23.8167C37.7555 24.4265 37.9587 25.1005 38.0139 25.7942C38.0691 26.4879 37.975 27.1852 37.7378 27.84C37.3019 29.0322 36.5678 30.0949 35.6045 30.9281C36.2662 31.1592 36.9082 31.4425 37.5245 31.7751C36.5879 32.5454 35.7519 33.4287 35.0356 34.4044C33.7566 33.8438 32.3677 33.5739 30.9702 33.6143C29.5727 33.6547 28.202 34.0045 26.9581 34.6381C25.7143 35.2717 24.6287 36.1731 23.7807 37.2764C22.9327 38.3797 22.3438 39.6571 22.0568 41.0153C21.7699 42.3735 21.7923 43.7782 22.1223 45.1267C22.4523 46.4752 23.0816 47.7335 23.9642 48.8097C24.8469 49.8859 25.9606 50.7528 27.224 51.3471C28.4874 51.9413 29.8686 52.248 31.2667 52.2446C32.5363 52.2409 33.7928 51.989 34.9645 51.5034C35.6747 52.4785 36.5048 53.3618 37.4356 54.1327C35.5331 55.1813 33.3893 55.7224 31.2133 55.7032Z" fill="#FDFEFF"/>
<path d="M46.8578 55.7032C44.0133 55.7224 41.2452 54.7899 39 53.0563C38.0598 52.3495 37.2274 51.5115 36.5289 50.5682C34.8686 48.3717 33.9711 45.6999 33.9711 42.9539C33.9711 40.208 34.8686 37.5361 36.5289 35.3396C37.2323 34.4107 38.0642 33.585 39 32.8868C41.2191 31.1994 43.9379 30.2874 46.7333 30.2928C50.1281 30.2928 53.3838 31.6314 55.7843 34.0141C58.1848 36.3968 59.5333 39.6284 59.5333 42.998C59.5333 46.3676 58.1848 49.5993 55.7843 51.9819C53.3838 54.3646 50.1281 55.7032 46.7333 55.7032H46.8578Z" fill="#FDFEFF"/>
<path d="M39 7C32.671 7 26.4841 8.86287 21.2218 12.353C15.9594 15.8432 11.8579 20.8039 9.43587 26.6078C7.01386 32.4117 6.38016 38.7982 7.61489 44.9596C8.84961 51.121 11.8973 56.7806 16.3726 61.2228C20.8479 65.6649 26.5497 68.69 32.7571 69.9156C38.9645 71.1412 45.3986 70.5122 51.2459 68.1081C57.0931 65.7041 62.0908 61.6329 65.607 56.4095C69.1232 51.1861 71 45.0451 71 38.763C71 30.3389 67.6286 22.2599 61.6274 16.3032C55.6263 10.3464 47.4869 7 39 7ZM31.2133 55.7032C28.6673 55.7085 26.1769 54.9632 24.0582 53.5617C21.9395 52.1602 20.2879 50.1656 19.3128 47.8311C18.3377 45.4965 18.0831 42.9271 18.5813 40.4487C19.0795 37.9703 20.3081 35.6946 22.1111 33.9103C23.4476 32.5749 25.07 31.5556 26.8578 30.9281C25.9251 30.0791 25.2117 29.02 24.7778 27.84C24.544 27.2115 24.4454 26.5414 24.4883 25.8728C24.5311 25.2042 24.7145 24.5519 25.0267 23.9579C25.3084 23.4177 25.7115 22.9491 26.2046 22.588C26.6978 22.227 27.268 21.9833 27.8711 21.8757C29.0546 21.7393 30.25 22.0002 31.2667 22.6168C32.2834 22.0002 33.4788 21.7393 34.6622 21.8757C35.2394 21.9717 35.7871 22.1962 36.2643 22.5324C36.7416 22.8686 37.1359 23.3077 37.4178 23.8167C37.7555 24.4265 37.9587 25.1005 38.0139 25.7942C38.0691 26.4879 37.975 27.1852 37.7378 27.84C37.3019 29.0322 36.5678 30.0949 35.6045 30.9281C36.2662 31.1592 36.9082 31.4425 37.5245 31.7751C36.5879 32.5454 35.7519 33.4287 35.0356 34.4044C33.7566 33.8438 32.3677 33.5739 30.9702 33.6143C29.5727 33.6547 28.202 34.0045 26.9581 34.6381C25.7143 35.2717 24.6287 36.1731 23.7807 37.2764C22.9327 38.3797 22.3438 39.6571 22.0568 41.0153C21.7699 42.3735 21.7923 43.7782 22.1223 45.1267C22.4523 46.4752 23.0816 47.7335 23.9642 48.8097C24.8469 49.8859 25.9606 50.7528 27.224 51.3471C28.4874 51.9413 29.8686 52.248 31.2667 52.2446C32.5363 52.2409 33.7928 51.989 34.9645 51.5034C35.6747 52.4785 36.5048 53.3618 37.4356 54.1327C35.5331 55.1813 33.3893 55.7224 31.2133 55.7032ZM46.8578 55.7032C44.0133 55.7224 41.2452 54.7899 39 53.0563C38.0598 52.3495 37.2274 51.5115 36.5289 50.5682C34.8686 48.3717 33.9711 45.6999 33.9711 42.9539C33.9711 40.208 34.8686 37.5361 36.5289 35.3396C37.2323 34.4107 38.0642 33.585 39 32.8868C41.2191 31.1994 43.9379 30.2874 46.7333 30.2928C50.1281 30.2928 53.3838 31.6314 55.7843 34.0141C58.1848 36.3968 59.5333 39.6284 59.5333 42.998C59.5333 46.3676 58.1848 49.5993 55.7843 51.9819C53.3838 54.3646 50.1281 55.7032 46.7333 55.7032H46.8578Z" fill="#B4C0ED"/>
<path d="M31.2133 55.7032C28.6673 55.7085 26.1769 54.9632 24.0582 53.5617C21.9395 52.1602 20.2879 50.1656 19.3128 47.8311C18.3377 45.4965 18.0831 42.9271 18.5813 40.4487C19.0795 37.9703 20.3081 35.6946 22.1111 33.9103C23.4476 32.5749 25.07 31.5556 26.8578 30.9281C25.9251 30.0791 25.2117 29.02 24.7778 27.84C24.544 27.2115 24.4454 26.5414 24.4883 25.8728C24.5311 25.2042 24.7145 24.5519 25.0267 23.9579C25.3084 23.4177 25.7115 22.9491 26.2046 22.588C26.6978 22.227 27.268 21.9833 27.8711 21.8757C29.0546 21.7393 30.25 22.0002 31.2667 22.6168C32.2834 22.0002 33.4788 21.7393 34.6622 21.8757C35.2394 21.9717 35.7871 22.1962 36.2643 22.5324C36.7416 22.8686 37.1359 23.3077 37.4178 23.8167C37.7555 24.4265 37.9587 25.1005 38.0139 25.7942C38.0691 26.4879 37.975 27.1852 37.7378 27.84C37.3019 29.0322 36.5678 30.0949 35.6045 30.9281C36.2662 31.1592 36.9082 31.4425 37.5245 31.7751C36.5879 32.5454 35.7519 33.4287 35.0356 34.4044C33.7566 33.8438 32.3677 33.5739 30.9702 33.6143C29.5727 33.6547 28.202 34.0045 26.9581 34.6381C25.7143 35.2717 24.6287 36.1731 23.7807 37.2764C22.9327 38.3797 22.3438 39.6571 22.0568 41.0153C21.7699 42.3735 21.7923 43.7782 22.1223 45.1267C22.4523 46.4752 23.0816 47.7335 23.9642 48.8097C24.8469 49.8859 25.9606 50.7528 27.224 51.3471C28.4874 51.9413 29.8686 52.248 31.2667 52.2446C32.5363 52.2409 33.7928 51.989 34.9645 51.5034C35.6747 52.4785 36.5048 53.3618 37.4356 54.1327C35.5331 55.1813 33.3893 55.7224 31.2133 55.7032Z" fill="#F9FAFD"/>
<path d="M34.3245 25.5283C35.1957 27.2929 32.4401 29.1987 31.1957 29.9398C29.8187 29.2194 28.6961 28.099 27.9779 26.7282C27.911 26.535 27.875 26.3326 27.8712 26.1283C27.8687 25.9463 27.9051 25.7659 27.9779 25.5989C28.1557 25.2812 28.3334 25.2812 28.3334 25.2812H28.4934C29.0922 25.3722 29.653 25.6291 30.1112 26.0224L30.289 26.1812C30.3719 26.2387 30.4614 26.2861 30.5557 26.3224L30.8757 26.4106C31.0935 26.4458 31.3156 26.4458 31.5334 26.4106L31.8001 26.3753L32.0668 26.2341L32.2801 26.093C32.778 25.6642 33.4009 25.4046 34.0579 25.3518C34.1658 25.3757 34.2609 25.4386 34.3245 25.5283Z" fill="#B4C0ED"/>
<path d="M46.858 34.0509C45.0353 34.0427 43.2541 34.591 41.7558 35.6214C40.7674 36.2995 39.9219 37.1626 39.2669 38.1624C38.3501 39.5979 37.8633 41.2625 37.8633 42.9621C37.8633 44.6618 38.3501 46.3264 39.2669 47.7619C39.9135 48.7617 40.7462 49.6301 41.7203 50.3206C42.8796 51.1282 44.2143 51.6532 45.6163 51.8531C47.0182 52.053 48.4479 51.9222 49.7894 51.4712C51.1309 51.0202 52.3464 50.2617 53.3374 49.2573C54.3284 48.2529 55.067 47.0309 55.4933 45.6902C55.9196 44.3495 56.0216 42.928 55.791 41.5409C55.5605 40.1538 55.0038 38.8402 54.1662 37.7065C53.3286 36.5729 52.2336 35.6511 50.97 35.016C49.7065 34.3808 48.3099 34.0502 46.8936 34.0509H46.858ZM42.6802 48.6971C41.5643 47.9022 40.7106 46.7969 40.2269 45.5208C40.462 44.6819 40.5816 43.8153 40.5825 42.9445C40.5874 42.0861 40.4738 41.2312 40.2447 40.4035C40.7431 39.1352 41.6092 38.0421 42.7336 37.2625C43.6284 39.0374 44.0944 40.995 44.0944 42.9798C44.0944 44.9646 43.6284 46.9221 42.7336 48.6971H42.6802Z" fill="#B4C0ED"/>
</g>
<defs>
<clipPath id="clip0_1346_5452">
<rect width="64" height="64" fill="white" transform="translate(7 7)"/>
</clipPath>
</defs>
</svg>
