<svg width="40" height="40" viewBox="0 0 40 40" fill="none" xmlns="http://www.w3.org/2000/svg">
<g id="Icon Contact ">
<ellipse id="Container" cx="12" cy="12" rx="12" ry="12" fill="#F9605A"/>
<path id="primary" d="M24.3167 14.9997C24.0245 14.4934 23.6042 14.073 23.0981 13.7804C22.592 13.4879 22.0179 13.3336 21.4334 13.333H18.5667C17.6827 13.333 16.8348 13.6842 16.2097 14.3093C15.5846 14.9344 15.2334 15.7823 15.2334 16.6663C15.2334 17.5504 15.5846 18.3982 16.2097 19.0234C16.8348 19.6485 17.6827 19.9997 18.5667 19.9997H21.4334C22.3175 19.9997 23.1653 20.3509 23.7904 20.976C24.4155 21.6011 24.7667 22.449 24.7667 23.333C24.7667 24.2171 24.4155 25.0649 23.7904 25.69C23.1653 26.3152 22.3175 26.6663 21.4334 26.6663H18.5667C17.9822 26.6657 17.4081 26.5114 16.902 26.2189C16.3959 25.9264 15.9757 25.5059 15.6834 24.9997" stroke="#1F253B" stroke-width="2" stroke-linecap="round" stroke-linejoin="round"/>
<path id="primary_2" d="M33.0834 22.5333C33.2515 21.6994 33.3352 20.8507 33.3334 20C33.3334 16.4638 31.9286 13.0724 29.4282 10.5719C26.9277 8.07142 23.5363 6.66667 20.0001 6.66667C19.1494 6.66483 18.3007 6.74859 17.4667 6.91667C16.1063 5.68376 14.3361 5.00063 12.5001 5C10.5123 5.0044 8.6072 5.79599 7.20163 7.20156C5.79606 8.60713 5.00447 10.5122 5.00006 12.5C4.99239 14.3475 5.67608 16.131 6.91673 17.5C6.75086 18.323 6.66712 19.1604 6.66673 20C6.66673 23.5362 8.07149 26.9276 10.572 29.4281C13.0725 31.9286 16.4638 33.3333 20.0001 33.3333C20.8508 33.3352 21.6995 33.2514 22.5334 33.0833C23.9024 34.324 25.6859 35.0077 27.5334 35C29.5154 34.9868 31.4119 34.1914 32.8103 32.7867C34.2087 31.3821 34.9957 29.482 35.0001 27.5C34.9994 25.664 34.3163 23.8938 33.0834 22.5333Z" stroke="#1F253B" stroke-width="2" stroke-linecap="round" stroke-linejoin="round"/>
</g>
</svg>
