<svg width="40" height="40" viewBox="0 0 40 40" fill="none" xmlns="http://www.w3.org/2000/svg">
<g id="Property 1=skype">
<ellipse id="Container" cx="12" cy="12" rx="12" ry="12" fill="#F9605A"/>
<path id="primary" d="M24.3166 14.9999C24.0243 14.4937 23.6041 14.0732 23.098 13.7807C22.5919 13.4882 22.0178 13.3339 21.4333 13.3333H18.5666C17.6826 13.3333 16.8347 13.6844 16.2096 14.3096C15.5845 14.9347 15.2333 15.7825 15.2333 16.6666C15.2333 17.5506 15.5845 18.3985 16.2096 19.0236C16.8347 19.6487 17.6826 19.9999 18.5666 19.9999H21.4333C22.3173 19.9999 23.1652 20.3511 23.7903 20.9762C24.4154 21.6014 24.7666 22.4492 24.7666 23.3333C24.7666 24.2173 24.4154 25.0652 23.7903 25.6903C23.1652 26.3154 22.3173 26.6666 21.4333 26.6666H18.5666C17.9821 26.666 17.408 26.5117 16.9019 26.2191C16.3958 25.9266 15.9755 25.5061 15.6833 24.9999" stroke="black" stroke-width="2" stroke-linecap="round" stroke-linejoin="round"/>
<path id="primary_2" d="M33.0833 22.5333C33.2514 21.6994 33.3351 20.8507 33.3333 20C33.3333 16.4638 31.9285 13.0724 29.428 10.5719C26.9275 8.07142 23.5362 6.66667 19.9999 6.66667C19.1492 6.66483 18.3005 6.74859 17.4666 6.91667C16.1061 5.68376 14.3359 5.00063 12.4999 5C10.5122 5.0044 8.60707 5.79599 7.2015 7.20156C5.79593 8.60713 5.00434 10.5122 4.99994 12.5C4.99227 14.3475 5.67596 16.131 6.91661 17.5C6.75074 18.323 6.66699 19.1604 6.66661 20C6.66661 23.5362 8.07137 26.9276 10.5719 29.4281C13.0723 31.9286 16.4637 33.3333 19.9999 33.3333C20.8506 33.3352 21.6994 33.2514 22.5333 33.0833C23.9022 34.324 25.6858 35.0077 27.5333 35C29.5153 34.9868 31.4118 34.1914 32.8102 32.7867C34.2086 31.3821 34.9956 29.482 34.9999 27.5C34.9993 25.664 34.3162 23.8938 33.0833 22.5333Z" stroke="black" stroke-width="2" stroke-linecap="round" stroke-linejoin="round"/>
</g>
</svg>
