<svg width="78" height="78" viewBox="0 0 78 78" fill="none" xmlns="http://www.w3.org/2000/svg">
<rect width="78" height="78" fill="#F5F5F5"/>
<g id="New 3" clip-path="url(#clip0_652_14866)">
<rect width="1440" height="13298" transform="translate(-100 -7778)" fill="#FBFBFB"/>
<g id="Background 2" clip-path="url(#clip1_652_14866)">
<path id="BCKGND abstrackt" d="M45.515 239.736C-90.1803 358.596 -332.653 247.501 -439.042 126.188C-483.497 75.0193 -541.723 -11.5734 -497.957 -88.3726C-461.907 -151.621 -359.914 -141.809 -303.489 -171.231C-161.738 -241.116 -229.27 -500.123 -50.4794 -485.943C186.466 -474.45 211.821 -290.449 178.19 -72.4987C162.814 43.8844 128.201 171.393 45.515 239.736Z" fill="#F6F8FF" fill-opacity="0.5"/>
<g id="lines" style="mix-blend-mode:soft-light">
<g id="Text input container">
<g id="Text input container_2">
<mask id="mask0_652_14866" style="mask-type:luminance" maskUnits="userSpaceOnUse" x="-256" y="-228" width="417" height="479">
<g id="Text input">
<path id="Vector" d="M74.2607 35.8822C-35.6613 48.071 23.1068 -121.112 -19.5795 -184.987C-60.3399 -244.041 -154.915 -246.293 -175.206 -161.526C-183.544 -123.557 -161.099 -87.5562 -179.494 -46.7119C-194.573 -18.0337 -227.372 -5.74306 -245.37 23.2859C-282.378 86.5047 -214.536 167.559 -167.75 195.649C-130.623 214.787 -95.2135 198.829 -57.3816 209.479C-1.74062 221.385 41.6306 276.761 96.9539 236.595C117.771 222.369 137.685 198.15 150.153 173.139C180.718 103.967 142.966 29.4313 74.2508 35.8822" fill="white"/>
</g>
</mask>
<g mask="url(#mask0_652_14866)">
<g id="Text input container_3">
<g id="Text input_2">
<path id="Vector_2" d="M159.287 587.751L77.0709 -149.258" stroke="#FBFBFB" stroke-width="5.36" stroke-miterlimit="10"/>
<path id="Vector_3" d="M130.119 560.755L47.8938 -176.242" stroke="#FBFBFB" stroke-width="5.36" stroke-miterlimit="10"/>
<path id="Vector_4" d="M100.945 533.751L18.7294 -203.246" stroke="#FBFBFB" stroke-width="5.36" stroke-miterlimit="10"/>
<path id="Vector_5" d="M71.769 506.743L-10.4466 -230.254" stroke="#FBFBFB" stroke-width="5.36" stroke-miterlimit="10"/>
<path id="Vector_6" d="M42.6033 479.739L-39.6124 -257.258" stroke="#FBFBFB" stroke-width="5.36" stroke-miterlimit="10"/>
<path id="Vector_7" d="M13.4275 452.736L-68.7882 -284.262" stroke="#FBFBFB" stroke-width="5.36" stroke-miterlimit="10"/>
</g>
</g>
</g>
</g>
</g>
</g>
<g id="Wavy lines">
<path id="Vector_8" opacity="0.5" d="M-161.795 1775.93C-82.955 1727.27 -2.59932 1667.53 37.0995 1576.76C89.0911 1457.81 55.9554 1315.77 -9.34783 1213.4C-74.6257 1110.99 -167.728 1036.85 -250.185 951.889C-332.641 866.926 -408.263 762.507 -421.7 634.675C-440.323 457.446 -336.033 282.274 -334.08 102.454C-332.465 -47.4597 -408.93 -190.165 -525.543 -254.701" stroke="#C2C8DD" stroke-miterlimit="10"/>
<path id="Vector_9" opacity="0.5" d="M-203.795 1775.93C-124.955 1727.27 -44.5993 1667.53 -4.90057 1576.76C47.0911 1457.81 13.9554 1315.77 -51.3478 1213.4C-116.626 1110.99 -209.728 1036.85 -292.185 951.889C-374.641 866.926 -450.263 762.506 -463.7 634.675C-482.323 457.445 -378.033 282.274 -376.08 102.453C-374.465 -47.46 -450.93 -190.165 -567.543 -254.702" stroke="#C2C8DD" stroke-miterlimit="10"/>
<path id="Vector_10" opacity="0.5" d="M-243.795 1775.93C-164.955 1727.27 -84.5993 1667.53 -44.9006 1576.76C7.09112 1457.81 -26.0446 1315.77 -91.3478 1213.4C-156.626 1110.99 -249.728 1036.85 -332.185 951.889C-414.641 866.926 -490.263 762.507 -503.7 634.675C-522.323 457.446 -418.033 282.274 -416.08 102.454C-414.465 -47.4596 -490.93 -190.165 -607.543 -254.701" stroke="#C2C8DD" stroke-miterlimit="10"/>
</g>
</g>
<g id="MAIN CONTAINER">
<g id="TRUST">
<g id="BLOCK Why we?">
<g id="Reasons">
<g id="Left container">
<g id="Reason">
<g id="Icon user">
<rect width="78" height="78" rx="39" fill="#EAEEFA"/>
<g id="Vector_11">
<path d="M38.9998 7C21.3492 7 6.99976 21.3495 6.99976 39C6.99976 56.7179 21.3492 71 38.9998 71C56.6503 71 70.9998 56.6505 70.9998 39C70.9998 21.3495 56.6503 7 38.9998 7ZM38.9998 20.6084C44.3892 20.6084 48.8355 24.9874 48.8355 30.3768C48.8355 35.7663 44.4566 40.2126 38.9998 40.2126C33.5429 40.2126 29.164 35.8337 29.164 30.3768C29.164 24.9874 33.6103 20.6084 38.9998 20.6084ZM38.9998 62.9158C31.9934 62.9158 25.6608 59.8842 21.2819 55.0337C21.5513 53.8211 21.9555 52.6758 22.3598 51.4632C23.8419 47.3537 26.8734 44.1874 30.7808 42.5032C33.0713 44.12 35.9682 45.0632 38.9998 45.0632C42.0313 45.0632 44.9282 44.12 47.2861 42.5032C51.1261 44.1874 54.225 47.3537 55.7071 51.4632C56.1113 52.6758 56.4482 53.8211 56.785 55.0337C52.3387 59.8168 46.0061 62.9158 38.9998 62.9158Z" fill="#B4C0ED"/>
<path d="M38.9998 20.6084C44.3892 20.6084 48.8355 24.9874 48.8355 30.3768C48.8355 35.7663 44.4566 40.2126 38.9998 40.2126C33.5429 40.2126 29.164 35.8337 29.164 30.3768C29.164 24.9874 33.6103 20.6084 38.9998 20.6084Z" fill="#F9FAFD"/>
<path d="M38.9998 62.9158C31.9934 62.9158 25.6608 59.8842 21.2819 55.0337C21.5513 53.8211 21.9555 52.6758 22.3598 51.4632C23.8419 47.3537 26.8734 44.1874 30.7808 42.5032C33.0713 44.12 35.9682 45.0632 38.9998 45.0632C42.0313 45.0632 44.9282 44.12 47.2861 42.5032C51.1261 44.1874 54.225 47.3537 55.7071 51.4632C56.1113 52.6758 56.4482 53.8211 56.785 55.0337C52.3387 59.8168 46.0061 62.9158 38.9998 62.9158Z" fill="#F9FAFD"/>
</g>
</g>
</g>
</g>
</g>
</g>
</g>
</g>
</g>
<defs>
<clipPath id="clip0_652_14866">
<rect width="1440" height="13298" fill="white" transform="translate(-100 -7778)"/>
</clipPath>
<clipPath id="clip1_652_14866">
<rect width="1440" height="7463" fill="white" transform="translate(-100 -2652)"/>
</clipPath>
</defs>
</svg>
