<svg width="32" height="32" viewBox="0 0 32 32" fill="none" xmlns="http://www.w3.org/2000/svg">
<g id="Property 1=Users" clip-path="url(#clip0_633_24345)">
<path id="Vector" d="M15.1498 19.7446C16.4916 18.8534 17.5107 17.5539 18.0564 16.0384C18.6022 14.5229 18.6455 12.872 18.18 11.3299C17.7146 9.78791 16.765 8.4367 15.4719 7.4763C14.1788 6.51589 12.6108 5.99731 11 5.99731C9.38929 5.99731 7.82133 6.51589 6.52821 7.4763C5.23509 8.4367 4.28552 9.78791 3.82004 11.3299C3.35456 12.872 3.3979 14.5229 3.94364 16.0384C4.48938 17.5539 5.50853 18.8534 6.85026 19.7446C4.56301 20.5884 2.58619 22.1073 1.18182 24.1001C1.07638 24.2498 1.0141 24.4257 1.00178 24.6084C0.989454 24.7912 1.02756 24.9738 1.11193 25.1364C1.1963 25.299 1.3237 25.4352 1.48023 25.5303C1.63676 25.6255 1.8164 25.6758 1.99957 25.6758L20.0001 25.6751C20.1833 25.6751 20.3629 25.6248 20.5194 25.5296C20.676 25.4345 20.8034 25.2982 20.8877 25.1356C20.9721 24.9731 21.0101 24.7904 20.9978 24.6077C20.9854 24.4249 20.9231 24.2491 20.8177 24.0993C19.4134 22.1069 17.4368 20.5883 15.1498 19.7446Z" fill="#7D8BBD"/>
<path id="Vector_2" d="M31.0079 24.0982C29.6036 22.1057 27.627 20.5871 25.34 19.7434C26.827 18.7536 27.9118 17.2657 28.3993 15.5473C28.8869 13.8289 28.7451 11.9929 27.9996 10.3697C27.254 8.74647 25.9536 7.44265 24.3324 6.69282C22.7112 5.943 20.8756 5.79641 19.1559 6.27943C18.9998 6.32333 18.8567 6.40455 18.7389 6.51608C18.6212 6.62761 18.5324 6.7661 18.4801 6.91961C18.4278 7.07312 18.4136 7.23705 18.4388 7.39726C18.4639 7.55747 18.5277 7.70916 18.6245 7.83924C19.7549 9.35774 20.4048 11.1799 20.4904 13.0711C20.5759 14.9622 20.0933 16.8356 19.1046 18.45C18.9741 18.6629 18.9279 18.917 18.9752 19.1622C19.0225 19.4074 19.1598 19.6261 19.3602 19.7752C19.7394 20.0573 20.1042 20.3583 20.4532 20.677C20.4712 20.6966 20.4894 20.7161 20.5093 20.7345C21.844 21.9684 22.9258 23.4504 23.6942 25.0977C23.7747 25.2701 23.9027 25.4159 24.0632 25.5181C24.2237 25.6203 24.4101 25.6746 24.6003 25.6746L30.1904 25.6739C30.3736 25.6739 30.5532 25.6235 30.7097 25.5284C30.8662 25.4333 30.9936 25.297 31.078 25.1344C31.1623 24.9718 31.2004 24.7892 31.188 24.6065C31.1757 24.4237 31.1134 24.2479 31.0079 24.0982Z" fill="#7D8BBD"/>
</g>
<defs>
<clipPath id="clip0_633_24345">
<rect width="32" height="32" fill="white"/>
</clipPath>
</defs>
</svg>
