<svg width="32" height="32" viewBox="0 0 32 32" fill="none" xmlns="http://www.w3.org/2000/svg">
<g id="Component 1" clip-path="url(#clip0_1354_572)">
<path id="Vector" d="M20.1503 19.7473C21.492 18.8561 22.5112 17.5566 23.0569 16.0411C23.6027 14.5256 23.646 12.8747 23.1805 11.3326C22.7151 9.79059 21.7655 8.43939 20.4724 7.47898C19.1793 6.51858 17.6113 6 16.0005 6C14.3898 6 12.8218 6.51858 11.5287 7.47898C10.2356 8.43939 9.28601 9.79059 8.82053 11.3326C8.35505 12.8747 8.39839 14.5256 8.94413 16.0411C9.48987 17.5566 10.509 18.8561 11.8507 19.7473C9.5635 20.5911 7.58668 22.11 6.1823 24.1028C6.07687 24.2525 6.01459 24.4284 6.00227 24.6111C5.98994 24.7939 6.02804 24.9765 6.11242 25.1391C6.19679 25.3016 6.32419 25.4379 6.48072 25.533C6.63725 25.6282 6.81689 25.6784 7.00005 25.6784L25.0006 25.6778C25.1838 25.6778 25.3634 25.6275 25.5199 25.5323C25.6765 25.4372 25.8038 25.3009 25.8882 25.1383C25.9725 24.9757 26.0106 24.7931 25.9983 24.6104C25.9859 24.4276 25.9236 24.2518 25.8182 24.102C24.4138 22.1096 22.4372 20.591 20.1503 19.7473Z" fill="#7D8BBD"/>
</g>
<defs>
<clipPath id="clip0_1354_572">
<rect width="32" height="32" fill="white"/>
</clipPath>
</defs>
</svg>
