<svg width="40" height="40" viewBox="0 0 40 40" fill="none" xmlns="http://www.w3.org/2000/svg">
<g id="Icon Contact ">
<ellipse id="Container" cx="12" cy="12" rx="12" ry="12" fill="#F9605A"/>
<path id="primary" d="M14.4665 18.2324L17.0165 15.6657L16.3499 13.3324H13.3332C13.3332 13.3324 12.6499 17.5657 17.5332 22.4324C22.4165 27.299 26.6665 26.6657 26.6665 26.6657V23.649L24.3332 22.9824L21.7665 25.5324M34.7999 22.4324C34.4158 24.7657 33.4854 26.9752 32.0847 28.8806C30.6841 30.7859 28.8527 32.3331 26.7402 33.3958C24.6277 34.4586 22.2939 35.0068 19.9291 34.9958C17.5643 34.9847 15.2357 34.4148 13.1332 33.3324L4.99986 34.999L6.66653 26.8657C5.57879 24.7554 5.00749 22.4171 4.99959 20.043C4.9917 17.669 5.54744 15.3269 6.62112 13.2095C7.6948 11.092 9.25574 9.25968 11.1756 7.86309C13.0955 6.4665 15.3194 5.54557 17.6646 5.17601C20.0097 4.80645 22.4091 4.99883 24.6654 5.73732C26.9218 6.47581 28.9706 7.73933 30.6434 9.42397C32.3162 11.1086 33.5653 13.1663 34.2879 15.4277C35.0104 17.6892 35.1859 20.0899 34.7999 22.4324Z" stroke="#1F253B" stroke-width="2" stroke-linecap="round" stroke-linejoin="round"/>
</g>
</svg>
