<svg width="24" height="24" viewBox="0 0 24 24" fill="none" xmlns="http://www.w3.org/2000/svg">
<g id="Group">
<path id="Vector" d="M12.0005 0C5.38329 0 0.000244141 5.38279 0.000244141 11.9995C0.000244141 18.6167 5.38354 24 12.0002 24C18.6167 24 23.9995 18.6167 23.9995 11.9995C23.9997 5.38304 18.617 0 12.0005 0ZM1.21122 11.9995C1.21122 10.4357 1.54663 8.95037 2.14538 7.60898L7.29201 21.7097C3.69326 19.9606 1.21122 16.2701 1.21122 11.9995ZM12.0005 22.7893C10.9414 22.7893 9.9192 22.6339 8.95261 22.3496L12.1895 12.9434L15.5065 22.0289C15.5279 22.0825 15.5541 22.1314 15.5833 22.1776C14.4618 22.5721 13.2569 22.7893 12.0005 22.7893ZM13.487 6.94115C14.1364 6.90698 14.7222 6.8384 14.7222 6.8384C15.3032 6.76958 15.2352 5.91546 14.6531 5.94963C14.6531 5.94963 12.9057 6.08653 11.7773 6.08653C10.7175 6.08653 8.93541 5.94963 8.93541 5.94963C8.35386 5.91546 8.28603 6.80424 8.86733 6.8384C8.86733 6.8384 9.41795 6.90698 9.99875 6.94115L11.6795 11.5469L9.31845 18.6279L5.39027 6.9414C6.04064 6.90748 6.62518 6.83865 6.62518 6.83865C7.20623 6.77007 7.13765 5.91546 6.55585 5.95037C6.55585 5.95037 4.80922 6.08728 3.68054 6.08728C3.4778 6.08728 3.23915 6.08204 2.98628 6.07431C4.91496 3.14489 8.23142 1.21097 12.0005 1.21097C14.8097 1.21097 17.3668 2.28479 19.286 4.04314C19.2394 4.04065 19.1943 4.03441 19.1459 4.03441C18.0865 4.03441 17.3344 4.95761 17.3344 5.94938C17.3344 6.83815 17.8469 7.59077 18.3938 8.47955C18.8045 9.19825 19.2833 10.1217 19.2833 11.4551C19.2833 12.3788 18.9287 13.4501 18.4621 14.9429L17.386 18.5392L13.487 6.94115ZM17.4242 21.3257L20.7197 11.7975C21.3359 10.2586 21.5401 9.02793 21.5401 7.93292C21.5401 7.53616 21.5142 7.16733 21.4673 6.82344C22.3102 8.36035 22.7898 10.1242 22.7893 12C22.789 15.98 20.6314 19.4554 17.4242 21.3257Z" fill="#4A526F"/>
</g>
</svg>
