<svg width="1440" height="5683" fill="none" xmlns="http://www.w3.org/2000/svg"><g clip-path="url(#a)"><path d="M1764.07 4407.58c90.44 142.17-11.51 381.49-115.36 483.2-43.79 42.47-117.08 97.22-177.59 49.62-49.83-39.21-37.03-141.56-58.34-199.76-50.25-146.05-264.45-89.76-244.47-269.31 20.54-238.28 171.65-255.47 347.63-211.66 94.1 20.79 196.35 61.47 248.13 147.91z" fill="#F6F8FF" fill-opacity=".5"/><path d="M56.907 1821.44c11.057 154.9 22.812 246.9-30.93 391.65-60.314 161.69-119.042 119.84-153.481-48.85-9.123-56.93-9.341-188.27-49.633-193.94-28.855-6.15-55.259 100.45-83.097 123.84-94.436 85.51-143.87-186.13-122.232-348.01 30.543-236.26 206.658-528.76 316.316-379.97 57.003 75.23 108.434 277.72 123.057 455.28z" stroke="#C2C8DD" stroke-width="1.32" stroke-miterlimit="10"/><path d="M15.266 1821.55c11.12 154.9 22.929 246.9-30.967 391.64-60.486 161.68-119.415 119.81-153.997-48.88-9.163-56.94-9.404-188.28-49.83-193.95-28.952-6.16-55.426 100.43-83.352 123.81-94.734 85.49-144.378-186.16-122.695-348.04 30.604-236.26 207.253-528.72 317.299-379.89 57.205 75.23 108.84 277.74 123.542 455.31z" stroke="#C2C8DD" stroke-width="1.32" stroke-miterlimit="10"/><g filter="url(#b)"><ellipse cx="1433.95" cy="1678.74" rx="50.365" ry="48.069" fill="#707BA4" fill-opacity=".3" style="mix-blend-mode:soft-light"/></g><ellipse cx="1428.08" cy="1668.2" rx="52.082" ry="49.707" fill="url(#c)"/><ellipse cx="1428.08" cy="1668.2" rx="52.082" ry="49.707" fill="url(#d)"/><g filter="url(#e)"><ellipse cx="10.964" cy="22.317" rx="10.964" ry="22.317" transform="matrix(.49315 -.86995 .88854 .4588 1417.3 1644.92)" fill="#EDF1FF"/></g><g filter="url(#f)"><ellipse cx="4.233" cy="11.317" rx="4.233" ry="11.317" transform="matrix(.49315 -.86995 .88854 .4588 1428.08 1644.09)" fill="#EDF1FF"/></g><g filter="url(#g)"><ellipse cx="1370.29" cy="3245.4" rx="20.242" ry="19.327" fill="#707BA4" fill-opacity=".3" style="mix-blend-mode:soft-light"/></g><ellipse cx="1367.93" cy="3241.16" rx="20.932" ry="19.985" fill="url(#h)"/><ellipse cx="1367.93" cy="3241.16" rx="20.932" ry="19.985" fill="url(#i)"/><g filter="url(#j)"><ellipse cx="4.408" cy="8.97" rx="4.408" ry="8.97" transform="matrix(.493 -.87003 .88846 .45895 1363.6 3231.8)" fill="#EDF1FF"/></g><g filter="url(#k)"><ellipse cx="1.702" cy="4.549" rx="1.702" ry="4.549" transform="matrix(.493 -.87003 .88846 .45895 1367.93 3231.47)" fill="#EDF1FF"/></g><g filter="url(#l)"><ellipse cx="1391.3" cy="1570.29" rx="19.38" ry="22.095" fill="#707BA4" fill-opacity=".3" style="mix-blend-mode:soft-light"/></g><ellipse cx="1389.04" cy="1562.64" rx="20.041" ry="20.04" fill="url(#m)"/><ellipse cx="1389.04" cy="1562.64" rx="20.041" ry="20.04" fill="url(#n)"/><g filter="url(#o)"><ellipse cx="4.853" cy="8.965" rx="4.853" ry="8.965" transform="matrix(.42873 -.90343 .85112 .52497 1384.89 1554.75)" fill="#EDF1FF"/></g><g filter="url(#p)"><ellipse cx="1.873" cy="4.546" rx="1.873" ry="4.546" transform="matrix(.42873 -.90343 .85112 .52497 1389.04 1554.37)" fill="#EDF1FF"/></g><path d="M1444.04 523.501c129.36 155.885-16.46 418.305-165.02 529.829-62.62 46.57-167.46 106.6-254.01 54.41-71.277-43-52.964-155.221-83.445-219.043-71.879-160.136-378.274-98.421-349.689-295.297 29.377-261.278 245.516-280.123 497.244-232.089 134.59 22.796 280.85 67.405 354.92 162.19zM145.515 2891.74C9.82 3010.6-232.653 2899.5-339.042 2778.19c-44.455-51.17-102.681-137.76-58.915-214.56 36.05-63.25 138.043-53.44 194.468-82.86 141.75-69.89 74.219-328.89 253.01-314.71 236.945 11.49 262.3 195.49 228.669 413.44-15.376 116.38-49.989 243.89-132.675 312.24zM1218.04 2324.62c-69.56-91.82-16.24-266.13 47-344.92 26.69-32.93 72.39-76.69 115.95-48.29 35.87 23.39 33.71 95.54 51.66 134.35 42.86 97.64 182.94 41.86 180.82 168.25 1.2 167.26-99.03 190.95-219.78 174.17-64.39-7.14-135.5-27.48-175.65-83.56z" fill="#F6F8FF" fill-opacity=".5"/><g style="mix-blend-mode:soft-light"><mask id="q" style="mask-type:luminance" maskUnits="userSpaceOnUse" x="781" y="594" width="420" height="483"><path d="M868.247 859.908c110.73 12.278 51.53-158.148 94.53-222.493 41.063-59.488 136.333-61.757 156.773 23.633 8.4 38.249-14.21 74.514 4.32 115.659 15.19 28.889 48.23 41.27 66.36 70.512 37.28 63.683-31.06 145.334-78.19 173.631-37.4 19.28-73.07 3.2-111.18 13.93-56.053 11.99-99.743 67.78-155.473 27.32-20.97-14.33-41.03-38.73-53.59-63.926-30.79-69.681 7.24-144.764 76.46-138.266" fill="#fff"/></mask><g mask="url(#q)" stroke="#FBFBFB" stroke-width="5.36" stroke-miterlimit="10"><path d="m723.827 1470.23 82.82-742.418M753.207 1443.02l82.83-742.411M782.597 1415.83l82.82-742.424M811.978 1388.63l82.83-742.415M841.367 1361.43l82.82-742.414M870.757 1334.23l82.82-742.418M900.137 1307.03l82.82-742.417M929.527 1279.82l82.823-742.41M958.907 1252.63l82.823-742.423M988.297 1225.43l82.823-742.414M1017.68 1198.23l82.83-742.414M1047.07 1171.03l82.82-742.417M1076.45 1143.84l82.83-742.426M1105.84 1116.64l82.82-742.429M1135.23 1089.43l82.82-742.422M1164.61 1062.23l82.82-742.41M1194 1035.03l82.82-742.413"/></g></g><path d="M-124.864 777.793c76.05 41.635 120.345 75.713 202.168-.87 91.447-86.055 80.256-197.771 1.197-283.484-27.104-24.422-58.916-40.617-55-114.034 1.749-52.871 25.585-88.13 42.024-135.028C124.384 86.144-3.937-41.023-88.985-24.704-212.937-2.76-389.614 273.689-333.185 492.19c28.265 113.286 121.474 234.363 208.321 285.602zM1497.17 3169.65c-49.99-26.76-79.12-48.64-132.75.24-59.95 54.93-52.46 126.45-.44 181.43 17.82 15.67 38.73 26.09 36.25 73.07-1.08 33.83-16.69 56.36-27.43 86.35-38.46 101.17 45.96 182.76 101.78 172.46 81.37-13.85 197.04-190.5 159.72-330.43-18.69-72.55-80.05-150.19-137.13-183.12z" stroke="#C2C8DD" stroke-width="1.32" stroke-miterlimit="10"/><path d="M1536.65 1790.99c-69.65 64.23-142.05 137.94-186.16 223.87-57.79 112.61-50.68 217.01-12.44 279.19 38.22 62.22 102.52 92.77 156.84 135.44 54.31 42.68 100.52 103.27 93.82 202.4-9.29 137.48-116.56 312.05-142.62 458.08-21.74 121.74 19.91 213.03 104.32 228.39" stroke="#C2C8DD" stroke-miterlimit="10"/><path d="M1590.65 1756.79c-69.65 64.23-142.05 137.93-186.16 223.86-57.79 112.62-50.68 217.02-12.44 279.2 38.22 62.22 102.52 92.76 156.84 135.44 54.31 42.68 100.52 103.27 93.82 202.4-9.29 137.48-116.56 312.04-142.62 458.07-21.74 121.75 19.91 213.03 104.32 228.4" stroke="#C2C8DD" stroke-miterlimit="10"/><path d="M1627.65 1730.57c-69.65 64.22-142.05 137.93-186.16 223.86-57.79 112.62-50.68 217.02-12.44 279.19 38.22 62.23 102.52 92.77 156.84 135.45 54.31 42.68 100.52 103.26 93.82 202.39-9.29 137.49-116.56 312.05-142.62 458.08-21.74 121.75 19.91 213.03 104.32 228.4" stroke="#C2C8DD" stroke-miterlimit="10"/><g style="mix-blend-mode:soft-light"><mask id="r" style="mask-type:luminance" maskUnits="userSpaceOnUse" x="-156" y="2424" width="417" height="479"><path d="M174.261 2687.88c-109.922 12.19-51.154-156.99-93.84-220.87-40.76-59.05-135.336-61.3-155.627 23.46-8.338 37.97 14.107 73.97-4.288 114.82-15.08 28.68-47.878 40.97-65.876 70-37.008 63.21 30.834 144.27 77.62 172.36 37.127 19.14 72.536 3.18 110.368 13.83 55.641 11.9 99.013 67.28 154.336 27.12 20.817-14.23 40.731-38.45 53.199-63.46 30.565-69.17-7.187-143.71-75.902-137.26" fill="#fff"/></mask><g mask="url(#r)" stroke="#FBFBFB" stroke-width="5.36" stroke-miterlimit="10"><path d="m317.627 3293.75-82.216-737M288.461 3266.74l-82.225-736.99M259.287 3239.75l-82.216-737.01M230.119 3212.76l-82.225-737M200.945 3185.75l-82.216-737M171.769 3158.74l-82.216-736.99M142.603 3131.74l-82.215-737M113.427 3104.74l-82.215-737M84.262 3077.75 2.046 2340.74M55.087 3050.74l-82.215-736.99M25.921 3023.74l-82.225-737"/></g></g><g filter="url(#s)"><ellipse cx="190.592" cy="3554.79" rx="34.408" ry="32.839" fill="#707BA4" fill-opacity=".3" style="mix-blend-mode:soft-light"/></g><ellipse cx="186.58" cy="3547.58" rx="35.58" ry="33.958" fill="url(#t)"/><ellipse cx="186.58" cy="3547.58" rx="35.58" ry="33.958" fill="url(#u)"/><g filter="url(#v)"><ellipse cx="7.49" cy="15.246" rx="7.49" ry="15.246" transform="matrix(.49315 -.86994 .88854 .4588 179.211 3531.68)" fill="#EDF1FF"/></g><g filter="url(#w)"><ellipse cx="2.892" cy="7.732" rx="2.892" ry="7.732" transform="matrix(.49315 -.86994 .88854 .4588 186.581 3531.11)" fill="#EDF1FF"/></g><g filter="url(#x)"><ellipse cx="142.051" cy="3483.57" rx="13.949" ry="13.313" fill="#707BA4" fill-opacity=".3" style="mix-blend-mode:soft-light"/></g><ellipse cx="140.424" cy="3480.65" rx="14.424" ry="13.766" fill="url(#y)"/><ellipse cx="140.424" cy="3480.65" rx="14.424" ry="13.766" fill="url(#z)"/><g filter="url(#A)"><ellipse cx="3.037" cy="6.181" rx="3.037" ry="6.181" transform="matrix(.49316 -.86994 .88855 .45879 137.436 3474.2)" fill="#EDF1FF"/></g><g filter="url(#B)"><ellipse cx="1.172" cy="3.135" rx="1.172" ry="3.135" transform="matrix(.49316 -.86994 .88855 .45879 140.425 3473.97)" fill="#EDF1FF"/></g><g filter="url(#C)"><ellipse cx="80.771" cy="3538.24" rx="10.229" ry="9.763" fill="#707BA4" fill-opacity=".3" style="mix-blend-mode:soft-light"/></g><ellipse cx="79.578" cy="3536.1" rx="10.578" ry="10.095" fill="url(#D)"/><ellipse cx="79.578" cy="3536.1" rx="10.578" ry="10.095" fill="url(#E)"/><g filter="url(#F)"><ellipse cx="2.227" cy="4.533" rx="2.227" ry="4.533" transform="matrix(.49314 -.86995 .88854 .4588 77.386 3531.37)" fill="#EDF1FF"/></g><g filter="url(#G)"><ellipse cx=".86" cy="2.299" rx=".86" ry="2.299" transform="matrix(.49314 -.86995 .88854 .4588 79.577 3531.2)" fill="#EDF1FF"/></g><path d="M44.562 3649.4c260.906 123.01 380.41-465.65 485.411-599.78 124.81-169.52 389.688-150.04 437.199 54.35 13.009 73.2-13.913 164.17 31.605 222.13 40.923 55.43 145.083 72.83 204.763 105.49 142.26 77.89 220.91 226.64 129.3 401.12-179.72 364.12-791.758 332.98-1079.894 247.91-124.281-35.01-315.66-100.12-381.609-228.72-65.947-128.61 42.65-333.44 173.222-202.48" fill="url(#H)" fill-opacity=".6"/><path opacity=".5" d="M-61.795 4427.93c78.84-48.66 159.196-108.4 198.894-199.17 51.992-118.95 18.856-260.99-46.447-363.36-65.278-102.41-158.38-176.55-240.837-261.51-82.456-84.96-158.078-189.38-171.516-317.21-18.622-177.23 85.668-352.41 87.621-532.23 1.615-149.91-74.85-292.61-191.463-357.15" stroke="#C2C8DD" stroke-miterlimit="10"/><path opacity=".5" d="M-103.795 4427.93c78.84-48.66 159.196-108.4 198.894-199.17 51.992-118.95 18.856-260.99-46.447-363.36-65.278-102.41-158.38-176.55-240.837-261.51-82.456-84.96-158.078-189.38-171.516-317.22-18.622-177.22 85.668-352.4 87.621-532.22 1.615-149.91-74.85-292.62-191.463-357.15" stroke="#C2C8DD" stroke-miterlimit="10"/><path opacity=".5" d="M-143.795 4427.93c78.84-48.66 159.195-108.4 198.894-199.17 51.992-118.95 18.856-260.99-46.447-363.36-65.278-102.41-158.38-176.55-240.837-261.51-82.456-84.96-158.078-189.38-171.516-317.21-18.622-177.23 85.668-352.41 87.621-532.23 1.615-149.91-74.85-292.61-191.463-357.15" stroke="#C2C8DD" stroke-miterlimit="10"/><g style="mix-blend-mode:soft-light"><mask id="I" style="mask-type:luminance" maskUnits="userSpaceOnUse" x="227" y="3873" width="264" height="317"><path d="M375.445 4099.54c-32.323-71.75 78.216-78.36 104.998-125.19 24.461-44.18 3.954-109.43-49.32-99.87-23.691 4.8-39.157 30.09-66.813 28.81-19.917-2.38-34.523-21.39-55.314-25.67-44.774-7.81-75.607 60.96-80.927 100.69-2.414 30.67 14.896 50.45 17.51 79.25 5.999 41.32-15.752 86.27 20.026 112.97 12.954 10.29 31.429 17.21 48.642 18.81 46.702 1.77 80.732-44.63 61.196-89.81" fill="#fff"/></mask><g mask="url(#I)" stroke="#FBFBFB" stroke-width="5.36" stroke-miterlimit="10"><path d="m77.252 4357.41 391.833-244.95M84.817 4329.86l391.832-244.95M92.375 4302.31l391.839-244.95M99.938 4274.77l391.832-244.96M107.502 4247.21l391.834-244.95M115.065 4219.66l391.833-244.95M122.63 4192.11l391.833-244.95M130.193 4164.55l391.833-244.94M137.751 4137.01l391.84-244.95M145.314 4109.46l391.833-244.95M152.879 4081.91l391.831-244.96M160.442 4054.35l391.834-244.94M168.001 4026.81l391.838-244.96M175.565 3999.26l391.84-244.96M183.127 3971.7l391.84-244.95M190.692 3944.16l391.833-244.95M198.255 3916.6l391.834-244.95"/></g></g><g style="mix-blend-mode:soft-light"><mask id="J" style="mask-type:luminance" maskUnits="userSpaceOnUse" x="1364" y="3629" width="200" height="240"><path d="M1475.91 3800.38c-24.46-54.29 59.19-59.29 79.45-94.73 18.51-33.43 2.99-82.8-37.32-75.56-17.92 3.63-29.63 22.76-50.55 21.79-15.07-1.79-26.13-16.18-41.86-19.42-33.88-5.91-57.21 46.12-61.23 76.19-1.83 23.2 11.27 38.17 13.25 59.97 4.54 31.26-11.92 65.27 15.15 85.47 9.8 7.79 23.78 13.02 36.81 14.24 35.33 1.34 61.08-33.78 46.3-67.96" fill="#fff"/></mask><g mask="url(#J)" stroke="#FBFBFB" stroke-width="5.36" stroke-miterlimit="10"><path d="m1250.28 3995.53 296.49-185.34M1256.01 3974.69l296.48-185.35M1261.72 3953.84l296.49-185.34M1267.45 3933l296.48-185.35M1273.17 3912.15l296.48-185.34M1278.89 3891.3l296.49-185.34M1284.62 3870.46l296.48-185.35M1290.34 3849.61l296.48-185.34M1296.06 3828.77l296.49-185.35M1301.78 3807.92l296.49-185.35M1307.51 3787.07l296.48-185.34M1313.23 3766.23l296.48-185.35M1318.95 3745.38l296.49-185.35M1324.67 3724.53l296.49-185.34M1330.39 3703.68l296.49-185.34M1336.12 3682.84l296.48-185.34M1341.84 3661.99l296.48-185.34"/></g></g><g style="mix-blend-mode:soft-light"><mask id="K" style="mask-type:luminance" maskUnits="userSpaceOnUse" x="-116" y="4542" width="451" height="489"><path d="M242.633 4824.63c-119.272-5.02-52.645-159.71-97.755-228.05-43.109-63.37-145.505-80.02-168.973-1.11-9.7 35.46 13.978 73.72-6.664 110.43-16.837 25.44-52.578 32.31-72.582 57.64-41.195 55.5 30.859 144.3 81.04 178.64 39.875 24.19 78.509 14.17 119.297 30.26 60.056 20.04 106.058 80.25 166.686 49.86 22.797-10.58 44.792-30.97 58.736-53.26 34.322-62.24-5.257-140.13-79.796-144.41" fill="#fff"/></mask><g mask="url(#K)" stroke="#FBFBFB" stroke-width="5" stroke-miterlimit="10"><path d="m388.623 5407.8-64.862-701.93M356.634 5378.79l-64.862-701.93M323.644 5349.78l-64.862-701.94M291.655 5320.77l-64.862-701.94M259.665 5291.76l-64.861-701.94M227.676 5262.74l-64.862-701.93M195.687 5232.73l-64.862-701.93M163.697 5203.72l-64.861-701.93M130.708 5174.71l-64.861-701.94M98.719 5145.7l-64.862-701.94M66.73 5116.69 1.868 4414.75M34.74 5087.67l-64.861-701.93M2.752 5057.66l-64.862-701.93"/></g></g><g style="mix-blend-mode:soft-light"><mask id="L" style="mask-type:luminance" maskUnits="userSpaceOnUse" x="936" y="5209" width="536" height="353"><path d="M1291.41 5252.53c-66.32 99.27-163.8-38.08-245.63-35.08-76.544 3.87-144.009 82.68-88.812 143.75 25.246 26.73 70.242 26.4 90.862 63.12 12.97 27.6.26 61.71 11.49 91.97 25.99 64.04 139.31 48.67 194.73 23.66 41.4-21.48 52.93-59.69 87.89-86.16 48.34-40.88 123.69-48.87 129.25-116.46 2.82-24.97-3.16-54.36-14.95-77.86-35.32-61.69-122.43-68.38-164.84-6.93" fill="#fff"/></mask><g mask="url(#L)" stroke="#FBFBFB" stroke-width="5" stroke-miterlimit="10"><path d="m1865.45 5431.06-633.3-309.59M1824.04 5443.3l-633.31-309.58M1782.1 5456.39l-633.3-309.58M1740.69 5468.64l-633.31-309.59M1699.27 5480.87l-633.3-309.58M1657.86 5493.11l-633.31-309.59M1615.59 5504.83l-633.308-309.59M1574.17 5517.07l-633.304-309.59M1532.24 5530.16l-633.309-309.58M1490.82 5542.41l-633.304-309.59M1449.41 5554.64l-633.309-309.58M1407.99 5566.88l-633.303-309.59M1365.72 5578.6l-633.302-309.59M1324.31 5590.84l-633.308-309.59M1282.37 5603.93l-633.302-309.58M1240.96 5616.17l-633.307-309.59M1199.54 5628.41l-633.302-309.58"/></g></g><circle cx="26" cy="26" transform="matrix(.7701 .63792 -.53722 .84345 1325.34 3951.68)" fill="url(#M)" r="26"/><circle cx="26" cy="26" transform="matrix(.7701 .63792 -.53722 .84345 1325.34 3951.68)" fill="url(#N)" r="26"/><circle cx="10" cy="10" transform="matrix(.7701 .63792 -.53722 .84345 1389.34 3974.33)" fill="url(#O)" r="10"/><circle cx="10" cy="10" transform="matrix(.7701 .63792 -.53722 .84345 1389.34 3974.33)" fill="url(#P)" r="10"/><path opacity=".5" d="M418.328 5600.1c7.721-44.89 13.113-94.13.823-139.48-16.113-59.41-59.026-96.31-100.254-108.09-41.229-11.8-82.476-3.96-123.718-3.63-41.241.33-85.534-8.46-120.082-47.53-47.897-54.16-64.733-151.58-108.147-213.99-36.197-52.03-90.046-73.66-134.793-54.11" stroke="#C2C8DD" stroke-miterlimit="10"/><path opacity=".5" d="M399.328 5631.1c7.721-44.89 13.113-94.13.823-139.48-16.113-59.41-59.026-96.31-100.254-108.09-41.229-11.8-82.476-3.96-123.718-3.63-41.241.33-85.534-8.46-120.082-47.53C8.2 5278.21-8.637 5180.79-52.05 5118.38c-36.197-52.03-90.046-73.66-134.793-54.11" stroke="#C2C8DD" stroke-miterlimit="10"/><path opacity=".5" d="M380.328 5663.1c7.721-44.89 13.113-94.13.823-139.48-16.113-59.41-59.026-96.31-100.254-108.09-41.229-11.8-82.476-3.96-123.718-3.63-41.241.33-85.534-8.46-120.082-47.53-47.897-54.16-64.733-151.58-108.147-213.99-36.197-52.03-90.046-73.66-134.793-54.11" stroke="#C2C8DD" stroke-miterlimit="10"/><g opacity=".6"><g filter="url(#Q)"><ellipse cx="1341.87" cy="5383.69" rx="18.134" ry="17.307" fill="#707BA4" fill-opacity=".3" style="mix-blend-mode:soft-light"/></g><ellipse cx="1339.75" cy="5379.9" rx="18.752" ry="17.896" fill="url(#R)"/><ellipse cx="1339.75" cy="5379.9" rx="18.752" ry="17.896" fill="url(#S)"/><g filter="url(#T)"><ellipse cx="3.948" cy="8.035" rx="3.948" ry="8.035" transform="matrix(.49315 -.86994 .88854 .4588 1335.87 5371.52)" fill="#EDF1FF"/></g><g filter="url(#U)"><ellipse cx="1.524" cy="4.075" rx="1.524" ry="4.075" transform="matrix(.49315 -.86994 .88854 .4588 1339.75 5371.22)" fill="#EDF1FF"/></g></g><ellipse cx="1186.76" cy="5514.53" rx="99.759" ry="98.534" fill="url(#V)"/><ellipse cx="1186.76" cy="5514.53" rx="99.759" ry="98.534" fill="url(#W)"/></g><defs><filter id="w" x="165.525" y="3505.46" width="58.703" height="53.366" filterUnits="userSpaceOnUse" color-interpolation-filters="sRGB"><feFlood flood-opacity="0" result="BackgroundImageFix"/><feBlend in="SourceGraphic" in2="BackgroundImageFix" result="shape"/><feGaussianBlur stdDeviation="11.167" result="effect1_foregroundBlur_722_22637"/></filter><filter id="b" x="1265.67" y="1512.75" width="336.573" height="331.98" filterUnits="userSpaceOnUse" color-interpolation-filters="sRGB"><feFlood flood-opacity="0" result="BackgroundImageFix"/><feBlend in="SourceGraphic" in2="BackgroundImageFix" result="shape"/><feGaussianBlur stdDeviation="58.961" result="effect1_foregroundBlur_722_22637"/></filter><filter id="g" x="1232.13" y="3108.15" width="276.326" height="274.496" filterUnits="userSpaceOnUse" color-interpolation-filters="sRGB"><feFlood flood-opacity="0" result="BackgroundImageFix"/><feBlend in="SourceGraphic" in2="BackgroundImageFix" result="shape"/><feGaussianBlur stdDeviation="58.961" result="effect1_foregroundBlur_722_22637"/></filter><filter id="j" x="1298.48" y="3159.46" width="150.526" height="145.254" filterUnits="userSpaceOnUse" color-interpolation-filters="sRGB"><feFlood flood-opacity="0" result="BackgroundImageFix"/><feBlend in="SourceGraphic" in2="BackgroundImageFix" result="shape"/><feGaussianBlur stdDeviation="33.5" result="effect1_foregroundBlur_722_22637"/></filter><filter id="k" x="1346.35" y="3207.18" width="52.924" height="49.786" filterUnits="userSpaceOnUse" color-interpolation-filters="sRGB"><feFlood flood-opacity="0" result="BackgroundImageFix"/><feBlend in="SourceGraphic" in2="BackgroundImageFix" result="shape"/><feGaussianBlur stdDeviation="11.167" result="effect1_foregroundBlur_722_22637"/></filter><filter id="l" x="1254" y="1430.28" width="274.603" height="280.032" filterUnits="userSpaceOnUse" color-interpolation-filters="sRGB"><feFlood flood-opacity="0" result="BackgroundImageFix"/><feBlend in="SourceGraphic" in2="BackgroundImageFix" result="shape"/><feGaussianBlur stdDeviation="58.961" result="effect1_foregroundBlur_722_22637"/></filter><filter id="o" x="1319.69" y="1481.64" width="149.823" height="146.865" filterUnits="userSpaceOnUse" color-interpolation-filters="sRGB"><feFlood flood-opacity="0" result="BackgroundImageFix"/><feBlend in="SourceGraphic" in2="BackgroundImageFix" result="shape"/><feGaussianBlur stdDeviation="33.5" result="effect1_foregroundBlur_722_22637"/></filter><filter id="p" x="1367.43" y="1529.8" width="52.573" height="50.52" filterUnits="userSpaceOnUse" color-interpolation-filters="sRGB"><feFlood flood-opacity="0" result="BackgroundImageFix"/><feBlend in="SourceGraphic" in2="BackgroundImageFix" result="shape"/><feGaussianBlur stdDeviation="11.167" result="effect1_foregroundBlur_722_22637"/></filter><filter id="s" x="38.263" y="3404.03" width="304.658" height="301.52" filterUnits="userSpaceOnUse" color-interpolation-filters="sRGB"><feFlood flood-opacity="0" result="BackgroundImageFix"/><feBlend in="SourceGraphic" in2="BackgroundImageFix" result="shape"/><feGaussianBlur stdDeviation="58.961" result="effect1_foregroundBlur_722_22637"/></filter><filter id="v" x="115.406" y="3455.6" width="162.091" height="153.121" filterUnits="userSpaceOnUse" color-interpolation-filters="sRGB"><feFlood flood-opacity="0" result="BackgroundImageFix"/><feBlend in="SourceGraphic" in2="BackgroundImageFix" result="shape"/><feGaussianBlur stdDeviation="33.5" result="effect1_foregroundBlur_722_22637"/></filter><filter id="f" x="1407.62" y="1616.9" width="65.212" height="57.399" filterUnits="userSpaceOnUse" color-interpolation-filters="sRGB"><feFlood flood-opacity="0" result="BackgroundImageFix"/><feBlend in="SourceGraphic" in2="BackgroundImageFix" result="shape"/><feGaussianBlur stdDeviation="11.167" result="effect1_foregroundBlur_722_22637"/></filter><filter id="x" x="10.181" y="3352.34" width="263.741" height="262.468" filterUnits="userSpaceOnUse" color-interpolation-filters="sRGB"><feFlood flood-opacity="0" result="BackgroundImageFix"/><feBlend in="SourceGraphic" in2="BackgroundImageFix" result="shape"/><feGaussianBlur stdDeviation="58.961" result="effect1_foregroundBlur_722_22637"/></filter><filter id="A" x="71.731" y="3403.52" width="145.39" height="141.753" filterUnits="userSpaceOnUse" color-interpolation-filters="sRGB"><feFlood flood-opacity="0" result="BackgroundImageFix"/><feBlend in="SourceGraphic" in2="BackgroundImageFix" result="shape"/><feGaussianBlur stdDeviation="33.5" result="effect1_foregroundBlur_722_22637"/></filter><filter id="B" x="118.609" y="3450.29" width="50.357" height="48.194" filterUnits="userSpaceOnUse" color-interpolation-filters="sRGB"><feFlood flood-opacity="0" result="BackgroundImageFix"/><feBlend in="SourceGraphic" in2="BackgroundImageFix" result="shape"/><feGaussianBlur stdDeviation="11.167" result="effect1_foregroundBlur_722_22637"/></filter><filter id="C" x="-47.38" y="3410.55" width="256.301" height="255.368" filterUnits="userSpaceOnUse" color-interpolation-filters="sRGB"><feFlood flood-opacity="0" result="BackgroundImageFix"/><feBlend in="SourceGraphic" in2="BackgroundImageFix" result="shape"/><feGaussianBlur stdDeviation="58.961" result="effect1_foregroundBlur_722_22637"/></filter><filter id="F" x="11.335" y="3461.67" width="142.353" height="139.686" filterUnits="userSpaceOnUse" color-interpolation-filters="sRGB"><feFlood flood-opacity="0" result="BackgroundImageFix"/><feBlend in="SourceGraphic" in2="BackgroundImageFix" result="shape"/><feGaussianBlur stdDeviation="33.5" result="effect1_foregroundBlur_722_22637"/></filter><filter id="G" x="57.624" y="3507.88" width="48.84" height="47.253" filterUnits="userSpaceOnUse" color-interpolation-filters="sRGB"><feFlood flood-opacity="0" result="BackgroundImageFix"/><feBlend in="SourceGraphic" in2="BackgroundImageFix" result="shape"/><feGaussianBlur stdDeviation="11.167" result="effect1_foregroundBlur_722_22637"/></filter><filter id="Q" x="1205.81" y="5248.47" width="272.11" height="270.456" filterUnits="userSpaceOnUse" color-interpolation-filters="sRGB"><feFlood flood-opacity="0" result="BackgroundImageFix"/><feBlend in="SourceGraphic" in2="BackgroundImageFix" result="shape"/><feGaussianBlur stdDeviation="58.961" result="effect1_foregroundBlur_722_22637"/></filter><filter id="T" x="1270.55" y="5299.73" width="148.805" height="144.078" filterUnits="userSpaceOnUse" color-interpolation-filters="sRGB"><feFlood flood-opacity="0" result="BackgroundImageFix"/><feBlend in="SourceGraphic" in2="BackgroundImageFix" result="shape"/><feGaussianBlur stdDeviation="33.5" result="effect1_foregroundBlur_722_22637"/></filter><filter id="U" x="1318.09" y="5347.14" width="52.064" height="49.251" filterUnits="userSpaceOnUse" color-interpolation-filters="sRGB"><feFlood flood-opacity="0" result="BackgroundImageFix"/><feBlend in="SourceGraphic" in2="BackgroundImageFix" result="shape"/><feGaussianBlur stdDeviation="11.167" result="effect1_foregroundBlur_722_22637"/></filter><filter id="e" x="1354.97" y="1564.63" width="175.119" height="161.989" filterUnits="userSpaceOnUse" color-interpolation-filters="sRGB"><feFlood flood-opacity="0" result="BackgroundImageFix"/><feBlend in="SourceGraphic" in2="BackgroundImageFix" result="shape"/><feGaussianBlur stdDeviation="33.5" result="effect1_foregroundBlur_722_22637"/></filter><radialGradient id="c" cx="0" cy="0" r="1" gradientUnits="userSpaceOnUse" gradientTransform="matrix(87.05945 -29.55948 27.66282 81.47336 1433.63 1661.73)"><stop offset=".442" stop-color="#C8D0F8"/><stop offset=".917" stop-color="#7D8BBD"/></radialGradient><radialGradient id="d" cx="0" cy="0" r="1" gradientUnits="userSpaceOnUse" gradientTransform="rotate(127.471 319.39 1177.347) scale(98.021 79.9082)"><stop stop-color="#fff"/><stop offset=".773" stop-color="#EDF1FF"/><stop offset="1" stop-color="#C4CFF6"/></radialGradient><radialGradient id="h" cx="0" cy="0" r="1" gradientUnits="userSpaceOnUse" gradientTransform="rotate(-18.761 10487.007 -2527.689) scale(36.9526 34.5928)"><stop offset=".442" stop-color="#C8D0F8"/><stop offset=".917" stop-color="#7D8BBD"/></radialGradient><radialGradient id="i" cx="0" cy="0" r="1" gradientUnits="userSpaceOnUse" gradientTransform="matrix(-23.9658 31.27917 -25.4965 -19.53518 1375.98 3229.87)"><stop stop-color="#fff"/><stop offset=".773" stop-color="#EDF1FF"/><stop offset="1" stop-color="#C4CFF6"/></radialGradient><radialGradient id="m" cx="0" cy="0" r="1" gradientUnits="userSpaceOnUse" gradientTransform="matrix(33.4999 -11.91725 11.56815 32.51855 1391.18 1560.03)"><stop offset=".442" stop-color="#C8D0F8"/><stop offset=".917" stop-color="#7D8BBD"/></radialGradient><radialGradient id="n" cx="0" cy="0" r="1" gradientUnits="userSpaceOnUse" gradientTransform="rotate(126.189 304.767 1130.05) scale(38.8618 31.2677)"><stop stop-color="#fff"/><stop offset=".773" stop-color="#EDF1FF"/><stop offset="1" stop-color="#C4CFF6"/></radialGradient><radialGradient id="t" cx="0" cy="0" r="1" gradientUnits="userSpaceOnUse" gradientTransform="rotate(-18.754 10823.332 1195.169) scale(62.8107 58.7797)"><stop offset=".442" stop-color="#C8D0F8"/><stop offset=".917" stop-color="#7D8BBD"/></radialGradient><radialGradient id="u" cx="0" cy="0" r="1" gradientUnits="userSpaceOnUse" gradientTransform="matrix(-40.73814 53.14666 -43.32613 -33.21048 200.265 3528.39)"><stop stop-color="#fff"/><stop offset=".773" stop-color="#EDF1FF"/><stop offset="1" stop-color="#C4CFF6"/></radialGradient><radialGradient id="y" cx="0" cy="0" r="1" gradientUnits="userSpaceOnUse" gradientTransform="matrix(24.11168 -8.18636 7.66088 22.56396 141.961 3478.86)"><stop offset=".442" stop-color="#C8D0F8"/><stop offset=".917" stop-color="#7D8BBD"/></radialGradient><radialGradient id="z" cx="0" cy="0" r="1" gradientUnits="userSpaceOnUse" gradientTransform="matrix(-16.51546 21.54516 -17.56413 -13.4638 145.972 3472.87)"><stop stop-color="#fff"/><stop offset=".773" stop-color="#EDF1FF"/><stop offset="1" stop-color="#C4CFF6"/></radialGradient><radialGradient id="D" cx="0" cy="0" r="1" gradientUnits="userSpaceOnUse" gradientTransform="matrix(17.6817 -6.00354 5.61837 16.5473 80.704 3534.78)"><stop offset=".442" stop-color="#C8D0F8"/><stop offset=".917" stop-color="#7D8BBD"/></radialGradient><radialGradient id="E" cx="0" cy="0" r="1" gradientUnits="userSpaceOnUse" gradientTransform="matrix(-12.11129 15.80029 -12.88057 -9.87325 83.646 3530.39)"><stop stop-color="#fff"/><stop offset=".773" stop-color="#EDF1FF"/><stop offset="1" stop-color="#C4CFF6"/></radialGradient><radialGradient id="W" cx="0" cy="0" r="1" gradientUnits="userSpaceOnUse" gradientTransform="rotate(126.526 -762.402 3038.009) scale(191.907 154.973)"><stop stop-color="#fff"/><stop offset=".773" stop-color="#EDF1FF"/><stop offset="1" stop-color="#C4CFF6"/></radialGradient><radialGradient id="M" cx="0" cy="0" r="1" gradientUnits="userSpaceOnUse" gradientTransform="rotate(-19.583 79.907 -72.044) scale(46.1298 44.7795)"><stop offset=".442" stop-color="#C8D0F8"/><stop offset=".917" stop-color="#7D8BBD"/></radialGradient><radialGradient id="N" cx="0" cy="0" r="1" gradientUnits="userSpaceOnUse" gradientTransform="matrix(-29.76917 40.69229 -32.74017 -23.95165 36 11.308)"><stop stop-color="#fff"/><stop offset=".773" stop-color="#EDF1FF"/><stop offset="1" stop-color="#C4CFF6"/></radialGradient><radialGradient id="O" cx="0" cy="0" r="1" gradientUnits="userSpaceOnUse" gradientTransform="rotate(-19.583 30.733 -27.71) scale(17.7422 17.2229)"><stop offset=".442" stop-color="#C8D0F8"/><stop offset=".917" stop-color="#7D8BBD"/></radialGradient><radialGradient id="P" cx="0" cy="0" r="1" gradientUnits="userSpaceOnUse" gradientTransform="rotate(126.188 5.82 5.688) scale(19.3919 15.6023)"><stop stop-color="#fff"/><stop offset=".773" stop-color="#EDF1FF"/><stop offset="1" stop-color="#C4CFF6"/></radialGradient><radialGradient id="R" cx="0" cy="0" r="1" gradientUnits="userSpaceOnUse" gradientTransform="matrix(31.34526 -10.64254 9.95954 29.33364 1341.75 5377.57)"><stop offset=".442" stop-color="#C8D0F8"/><stop offset=".917" stop-color="#7D8BBD"/></radialGradient><radialGradient id="S" cx="0" cy="0" r="1" gradientUnits="userSpaceOnUse" gradientTransform="rotate(127.471 -651.406 3017.225) scale(35.2916 28.7703)"><stop stop-color="#fff"/><stop offset=".773" stop-color="#EDF1FF"/><stop offset="1" stop-color="#C4CFF6"/></radialGradient><radialGradient id="V" cx="0" cy="0" r="1" gradientUnits="userSpaceOnUse" gradientTransform="matrix(166.75693 -58.5952 56.33595 160.3273 1197.38 5501.71)"><stop offset=".442" stop-color="#C8D0F8"/><stop offset=".917" stop-color="#7D8BBD"/></radialGradient><linearGradient id="H" x1="-100.535" y1="3464.13" x2="1371.27" y2="3713.52" gradientUnits="userSpaceOnUse"><stop stop-color="#F2F5FF"/><stop offset="1" stop-color="#F6F8FF" stop-opacity=".5"/></linearGradient><clipPath id="a"><path fill="#fff" d="M0 0h1440v5683H0z"/></clipPath></defs></svg>