<svg width="1440" height="800" fill="none" xmlns="http://www.w3.org/2000/svg"><path opacity=".3" d="M188.738 1424.55c5.454-88.02-34.573-167.31-81.483-239.23-46.923-71.96-101.89-140.48-130.256-220.827-46.269-131.208-14.445-289.698 85.337-419.917 99.813-130.27 265.822-229.377 438.583-260.893 109.25-19.915 220.956-14.434 327.178-50.661 109.059-37.179 197.543-113.195 297.943-168.495 238.36-131.34 545.3-133.728 748.61-19.081 203.37 114.63 300.46 334.689 265.75 557.607-34.72 222.884-193.67 443.777-411.53 600.547-217.83 156.71-490.14 250.84-756.715 278.96-130.728 13.78-260.537 12.47-391.313 31.16-130.821 18.71-267.34 60.65-367.329 143.87l-192.469-6.22c100.886-40.5 162.239-138.8 167.694-226.82z" fill="#FBFBFB"/><path style="mix-blend-mode:overlay" opacity=".2" d="M229.894 20.114c45.854 11.746 73.571 58.494 61.91 104.682-11.661 46.187-58.072 74.106-103.926 62.36-45.854-11.746-73.572-58.494-61.911-104.681 11.662-46.188 58.072-74.107 103.927-62.36z" fill="url(#a)"/><g filter="url(#b)"><ellipse cx="1242" cy="781.5" rx="571" ry="535.5" fill="url(#c)" fill-opacity=".6"/></g><path style="mix-blend-mode:overlay" opacity=".4" d="M616.576 770.166c5.676 1.454 9.107 7.241 7.688 12.986-1.443 5.717-7.188 9.173-12.864 7.719-5.677-1.454-9.108-7.241-7.689-12.986 1.419-5.745 7.188-9.173 12.865-7.719z" fill="url(#d)"/><path style="mix-blend-mode:overlay" opacity=".4" d="M76.576 622.209c5.676 1.454 9.107 7.241 7.688 12.986-1.443 5.717-7.188 9.173-12.864 7.719-5.677-1.454-9.108-7.241-7.689-12.986 1.418-5.745 7.189-9.173 12.865-7.719z" fill="url(#e)"/><path style="mix-blend-mode:overlay" opacity=".4" d="M127.576 215.263c5.676 1.454 9.107 7.241 7.688 12.986-1.443 5.718-7.188 9.174-12.864 7.72-5.677-1.454-9.108-7.241-7.689-12.986 1.419-5.745 7.188-9.174 12.865-7.72z" fill="url(#f)"/><path style="mix-blend-mode:overlay" opacity=".4" d="M171.576 299.877c5.676 1.454 9.107 7.241 7.688 12.986-1.443 5.717-7.188 9.173-12.864 7.719-5.677-1.454-9.108-7.241-7.689-12.986 1.419-5.745 7.188-9.173 12.865-7.719z" fill="url(#g)"/><path style="mix-blend-mode:overlay" opacity=".4" d="M407.576 68.205c5.676 1.454 9.107 7.24 7.688 12.986-1.443 5.717-7.188 9.173-12.864 7.719-5.677-1.454-9.108-7.24-7.689-12.986 1.419-5.745 7.188-9.173 12.865-7.72z" fill="url(#h)"/><path style="mix-blend-mode:overlay" opacity=".4" d="M497.576 94.392c5.676 1.454 9.107 7.241 7.688 12.986-1.443 5.718-7.188 9.174-12.864 7.72-5.677-1.454-9.108-7.241-7.689-12.986 1.419-5.745 7.188-9.174 12.865-7.72z" fill="url(#i)"/><path style="mix-blend-mode:overlay" opacity=".4" d="M551.296 110.018c2.68.687 4.299 3.418 3.629 6.13-.681 2.699-3.393 4.33-6.072 3.644-2.679-.687-4.299-3.418-3.629-6.13a4.974 4.974 0 0 1 6.072-3.644z" fill="url(#j)"/><path style="mix-blend-mode:overlay" opacity=".4" d="M587.296 88.866c2.68.686 4.299 3.418 3.629 6.13-.681 2.698-3.393 4.33-6.072 3.643-2.679-.686-4.299-3.418-3.629-6.13a4.974 4.974 0 0 1 6.072-3.643z" fill="url(#k)"/><path style="mix-blend-mode:overlay" opacity=".4" d="M362.296 73.757c2.68.686 4.299 3.417 3.629 6.13-.681 2.698-3.393 4.33-6.072 3.643-2.679-.686-4.299-3.418-3.629-6.13a4.974 4.974 0 0 1 6.072-3.644z" fill="url(#l)"/><path style="mix-blend-mode:overlay" opacity=".4" d="M455.576 155.838c5.676 1.454 9.107 7.24 7.688 12.985-1.443 5.718-7.188 9.174-12.864 7.72-5.677-1.454-9.108-7.241-7.689-12.986 1.419-5.745 7.188-9.173 12.865-7.719z" fill="url(#m)"/><path style="mix-blend-mode:overlay" opacity=".4" d="M9.576 349.232c5.676 1.454 9.107 7.241 7.688 12.986-1.443 5.717-7.188 9.173-12.864 7.719-5.677-1.454-9.108-7.24-7.689-12.985 1.419-5.745 7.188-9.174 12.865-7.72z" fill="url(#n)"/><path style="mix-blend-mode:overlay" opacity=".4" d="M139.102 316.457c2.617.67 4.198 3.337 3.545 5.986-.666 2.635-3.314 4.229-5.931 3.558-2.617-.67-4.198-3.338-3.544-5.986a4.858 4.858 0 0 1 5.93-3.558z" fill="url(#o)"/><path style="mix-blend-mode:overlay" opacity=".4" d="M376.102 19.312c2.617.67 4.198 3.338 3.545 5.986-.666 2.636-3.314 4.23-5.931 3.559-2.617-.67-4.198-3.338-3.544-5.986a4.858 4.858 0 0 1 5.93-3.559z" fill="url(#p)"/><path style="mix-blend-mode:overlay" opacity=".4" d="M376.102 146.23c2.617.67 4.198 3.338 3.545 5.986-.666 2.636-3.314 4.229-5.931 3.559-2.617-.671-4.198-3.338-3.544-5.986a4.858 4.858 0 0 1 5.93-3.559z" fill="url(#q)"/><path style="mix-blend-mode:overlay" opacity=".4" d="M93.102 176.445c2.617.67 4.198 3.338 3.544 5.986-.665 2.636-3.313 4.229-5.93 3.559-2.616-.671-4.198-3.338-3.544-5.987a4.859 4.859 0 0 1 5.93-3.558z" fill="url(#r)"/><path style="mix-blend-mode:overlay" opacity=".4" d="M100.102 348.687c2.617.67 4.198 3.338 3.545 5.986-.666 2.636-3.314 4.229-5.93 3.559-2.617-.67-4.2-3.338-3.545-5.986a4.858 4.858 0 0 1 5.93-3.559z" fill="url(#s)"/><path style="mix-blend-mode:overlay" opacity=".4" d="M148.102 146.23c2.617.67 4.198 3.338 3.545 5.986-.666 2.636-3.314 4.229-5.931 3.559-2.617-.671-4.198-3.338-3.544-5.986a4.858 4.858 0 0 1 5.93-3.559z" fill="url(#t)"/><path style="mix-blend-mode:overlay" opacity=".4" d="M66.102 309.406c2.617.67 4.198 3.338 3.544 5.986-.665 2.636-3.313 4.229-5.93 3.559-2.617-.671-4.198-3.338-3.544-5.987a4.859 4.859 0 0 1 5.93-3.558z" fill="url(#u)"/><path style="mix-blend-mode:overlay" opacity=".4" d="M537.296 81.815c2.68.686 4.299 3.418 3.629 6.13-.681 2.699-3.393 4.33-6.072 3.644-2.679-.687-4.299-3.418-3.629-6.13a4.974 4.974 0 0 1 6.072-3.644z" fill="url(#v)"/><path style="mix-blend-mode:overlay" opacity=".3" d="M230.818 661.87c92.689 23.743 148.716 118.237 125.144 211.598-23.571 93.362-117.384 149.792-210.072 126.053C53.202 975.778-2.826 881.284 20.746 787.922 44.318 694.561 138.13 638.127 230.818 661.87z" fill="url(#w)"/><path d="M89.4 1021.58c-20.7-76.07-35.772-158.955-6.86-232.233 37.908-96.006 143.057-149.798 244.897-162.102 101.84-12.334 204.401 8.031 306.692 15.88s211.833 1.061 296.163-57.822C1047.2 503.661 1085.59 344.559 1191.1 248.4c87.97-80.157 220.77-106.613 332.42-66.156" stroke="#B4C0ED" stroke-miterlimit="10"/><path d="M166.87 1021.57c-19.586-71.941-33.847-150.37-6.499-219.678 35.862-90.825 135.325-141.707 231.659-153.344 96.364-11.668 193.36 7.606 290.115 15.031 96.755 7.425 200.4 1 280.157-54.701 110.628-77.248 146.908-227.743 246.728-318.689 83.22-75.824 208.86-100.856 314.46-62.58" stroke="#B4C0ED" stroke-miterlimit="10"/><path d="M244.341 1021.58c-18.443-67.857-31.921-141.772-6.108-207.14 33.817-85.642 127.593-133.615 218.452-144.586 90.858-11.001 182.318 7.182 273.568 14.153 91.249 7 188.967.939 264.151-51.58 104.306-72.823 138.516-214.742 232.626-300.506 78.46-71.52 196.91-95.097 296.49-59.004" stroke="#B4C0ED" stroke-miterlimit="10"/><path d="M321.811 1021.57c-17.33-63.728-29.996-133.188-5.747-194.586 31.771-80.46 119.861-125.524 205.214-135.828 85.353-10.303 171.277 6.728 256.991 13.304 85.714 6.577 177.505.879 248.141-48.458 97.99-68.398 130.12-201.741 218.55-282.292 73.71-67.187 184.99-89.34 278.53-55.428" stroke="#B4C0ED" stroke-miterlimit="10"/><path d="M399.281 1021.57c-16.216-59.636-28.04-124.61-5.385-182.039 29.694-75.278 112.129-117.432 191.976-127.069 79.847-9.668 160.236 6.303 240.414 12.455s166.072.818 232.174-45.336c91.67-64.005 121.75-188.741 204.46-264.11 68.95-62.853 173.08-83.582 260.57-51.852" stroke="#B4C0ED" stroke-miterlimit="10"/><path style="mix-blend-mode:overlay" opacity=".1" d="M881.608 402.51c51.319 2.739 90.777 46.593 88.455 98.429-2.585 51.641-46.054 91.236-97.372 88.497-51.319-2.74-90.778-46.594-88.455-98.429 2.323-51.836 46.054-91.237 97.372-88.497z" fill="url(#x)"/><path style="mix-blend-mode:overlay" opacity=".2" d="M785.811 546.195c4.32 1.106 6.932 5.509 5.852 9.88-1.099 4.35-5.471 6.98-9.791 5.873-4.32-1.106-6.932-5.509-5.852-9.88a8.02 8.02 0 0 1 9.791-5.873z" fill="url(#y)"/><path style="mix-blend-mode:overlay" opacity=".2" d="M926.377 397.612c4.32 1.107 6.931 5.51 5.852 9.881-1.099 4.35-5.472 6.98-9.792 5.873-4.32-1.106-6.931-5.509-5.852-9.88a8.023 8.023 0 0 1 9.792-5.874z" fill="url(#z)"/><path style="mix-blend-mode:overlay" opacity=".2" d="M887.377 368.612c4.32 1.107 6.931 5.51 5.852 9.881-1.099 4.35-5.472 6.98-9.792 5.873-4.32-1.106-6.931-5.509-5.852-9.88a8.023 8.023 0 0 1 9.792-5.874z" fill="url(#A)"/><path d="M-55.89 523.778c-10.043-52.058-17.357-108.782-3.328-158.932 18.394-65.704 69.417-102.518 118.833-110.938 49.417-8.441 99.184 5.496 148.819 10.868 49.636 5.371 102.789.725 143.709-39.573C408.874 169.33 427.502 60.444 478.699-5.364 521.386-60.222 585.824-78.328 640-50.64" stroke="#B4C0ED" stroke-miterlimit="10"/><path style="mix-blend-mode:overlay" opacity=".2" d="M1453.5 461.058c42.39 11.167 67.92 55.981 57.22 100.564-10.89 44.369-53.88 71.282-96.27 60.115-42.39-11.168-67.92-55.982-57.22-100.565 10.71-44.582 53.89-71.282 96.27-60.114z" fill="url(#B)"/><defs><radialGradient id="o" cx="0" cy="0" r="1" gradientUnits="userSpaceOnUse" gradientTransform="rotate(-75.931 274.785 72.254) scale(4.91773 4.88648)"><stop stop-color="#fff"/><stop offset=".08" stop-color="#FBFBFB"/><stop offset=".16" stop-color="#EFEFEF"/><stop offset=".24" stop-color="#DCDCDC"/><stop offset=".32" stop-color="#C1C1C1"/><stop offset=".39" stop-color="#9E9E9E"/><stop offset=".47" stop-color="#737373"/><stop offset=".55" stop-color="#404040"/><stop offset=".62" stop-color="#060606"/><stop offset=".63"/></radialGradient><radialGradient id="B" cx="0" cy="0" r="1" gradientUnits="userSpaceOnUse" gradientTransform="matrix(19.56513 -80.30323 77.02998 18.76763 1433.87 541.463)"><stop stop-color="#fff"/><stop offset=".08" stop-color="#FBFBFB"/><stop offset=".16" stop-color="#EFEFEF"/><stop offset=".24" stop-color="#DCDCDC"/><stop offset=".32" stop-color="#C1C1C1"/><stop offset=".39" stop-color="#9E9E9E"/><stop offset=".47" stop-color="#737373"/><stop offset=".55" stop-color="#404040"/><stop offset=".62" stop-color="#060606"/><stop offset=".63"/></radialGradient><radialGradient id="A" cx="0" cy="0" r="1" gradientUnits="userSpaceOnUse" gradientTransform="matrix(1.97369 -7.8734 7.8254 1.96165 885.396 376.496)"><stop stop-color="#fff"/><stop offset=".08" stop-color="#FBFBFB"/><stop offset=".16" stop-color="#EFEFEF"/><stop offset=".24" stop-color="#DCDCDC"/><stop offset=".32" stop-color="#C1C1C1"/><stop offset=".39" stop-color="#9E9E9E"/><stop offset=".47" stop-color="#737373"/><stop offset=".55" stop-color="#404040"/><stop offset=".62" stop-color="#060606"/><stop offset=".63"/></radialGradient><radialGradient id="d" cx="0" cy="0" r="1" gradientUnits="userSpaceOnUse" gradientTransform="rotate(-75.931 807.12 -3.148) scale(10.6679 10.6001)"><stop stop-color="#fff"/><stop offset=".08" stop-color="#FBFBFB"/><stop offset=".16" stop-color="#EFEFEF"/><stop offset=".24" stop-color="#DCDCDC"/><stop offset=".32" stop-color="#C1C1C1"/><stop offset=".39" stop-color="#9E9E9E"/><stop offset=".47" stop-color="#737373"/><stop offset=".55" stop-color="#404040"/><stop offset=".62" stop-color="#060606"/><stop offset=".63"/></radialGradient><radialGradient id="e" cx="0" cy="0" r="1" gradientUnits="userSpaceOnUse" gradientTransform="rotate(-75.931 442.314 268.886) scale(10.6679 10.6001)"><stop stop-color="#fff"/><stop offset=".08" stop-color="#FBFBFB"/><stop offset=".16" stop-color="#EFEFEF"/><stop offset=".24" stop-color="#DCDCDC"/><stop offset=".32" stop-color="#C1C1C1"/><stop offset=".39" stop-color="#9E9E9E"/><stop offset=".47" stop-color="#737373"/><stop offset=".55" stop-color="#404040"/><stop offset=".62" stop-color="#060606"/><stop offset=".63"/></radialGradient><radialGradient id="f" cx="0" cy="0" r="1" gradientUnits="userSpaceOnUse" gradientTransform="rotate(-75.931 207.059 32.734) scale(10.6679 10.6001)"><stop stop-color="#fff"/><stop offset=".08" stop-color="#FBFBFB"/><stop offset=".16" stop-color="#EFEFEF"/><stop offset=".24" stop-color="#DCDCDC"/><stop offset=".32" stop-color="#C1C1C1"/><stop offset=".39" stop-color="#9E9E9E"/><stop offset=".47" stop-color="#737373"/><stop offset=".55" stop-color="#404040"/><stop offset=".62" stop-color="#060606"/><stop offset=".63"/></radialGradient><radialGradient id="g" cx="0" cy="0" r="1" gradientUnits="userSpaceOnUse" gradientTransform="rotate(-75.931 283.276 46.847) scale(10.6679 10.6001)"><stop stop-color="#fff"/><stop offset=".08" stop-color="#FBFBFB"/><stop offset=".16" stop-color="#EFEFEF"/><stop offset=".24" stop-color="#DCDCDC"/><stop offset=".32" stop-color="#C1C1C1"/><stop offset=".39" stop-color="#9E9E9E"/><stop offset=".47" stop-color="#737373"/><stop offset=".55" stop-color="#404040"/><stop offset=".62" stop-color="#060606"/><stop offset=".63"/></radialGradient><radialGradient id="h" cx="0" cy="0" r="1" gradientUnits="userSpaceOnUse" gradientTransform="rotate(-75.931 252.829 -220.209) scale(10.6679 10.6001)"><stop stop-color="#fff"/><stop offset=".08" stop-color="#FBFBFB"/><stop offset=".16" stop-color="#EFEFEF"/><stop offset=".24" stop-color="#DCDCDC"/><stop offset=".32" stop-color="#C1C1C1"/><stop offset=".39" stop-color="#9E9E9E"/><stop offset=".47" stop-color="#737373"/><stop offset=".55" stop-color="#404040"/><stop offset=".62" stop-color="#060606"/><stop offset=".63"/></radialGradient><radialGradient id="i" cx="0" cy="0" r="1" gradientUnits="userSpaceOnUse" gradientTransform="rotate(-75.931 314.608 -264.784) scale(10.6679 10.6001)"><stop stop-color="#fff"/><stop offset=".08" stop-color="#FBFBFB"/><stop offset=".16" stop-color="#EFEFEF"/><stop offset=".24" stop-color="#DCDCDC"/><stop offset=".32" stop-color="#C1C1C1"/><stop offset=".39" stop-color="#9E9E9E"/><stop offset=".47" stop-color="#737373"/><stop offset=".55" stop-color="#404040"/><stop offset=".62" stop-color="#060606"/><stop offset=".63"/></radialGradient><radialGradient id="j" cx="0" cy="0" r="1" gradientUnits="userSpaceOnUse" gradientTransform="matrix(1.22407 -4.88448 4.85344 1.21629 550.068 114.909)"><stop stop-color="#fff"/><stop offset=".08" stop-color="#FBFBFB"/><stop offset=".16" stop-color="#EFEFEF"/><stop offset=".24" stop-color="#DCDCDC"/><stop offset=".32" stop-color="#C1C1C1"/><stop offset=".39" stop-color="#9E9E9E"/><stop offset=".47" stop-color="#737373"/><stop offset=".55" stop-color="#404040"/><stop offset=".62" stop-color="#060606"/><stop offset=".63"/></radialGradient><radialGradient id="k" cx="0" cy="0" r="1" gradientUnits="userSpaceOnUse" gradientTransform="matrix(1.22407 -4.88448 4.85344 1.21629 586.068 93.757)"><stop stop-color="#fff"/><stop offset=".08" stop-color="#FBFBFB"/><stop offset=".16" stop-color="#EFEFEF"/><stop offset=".24" stop-color="#DCDCDC"/><stop offset=".32" stop-color="#C1C1C1"/><stop offset=".39" stop-color="#9E9E9E"/><stop offset=".47" stop-color="#737373"/><stop offset=".55" stop-color="#404040"/><stop offset=".62" stop-color="#060606"/><stop offset=".63"/></radialGradient><radialGradient id="l" cx="0" cy="0" r="1" gradientUnits="userSpaceOnUse" gradientTransform="matrix(1.22407 -4.88448 4.85344 1.21629 361.068 78.647)"><stop stop-color="#fff"/><stop offset=".08" stop-color="#FBFBFB"/><stop offset=".16" stop-color="#EFEFEF"/><stop offset=".24" stop-color="#DCDCDC"/><stop offset=".32" stop-color="#C1C1C1"/><stop offset=".39" stop-color="#9E9E9E"/><stop offset=".47" stop-color="#737373"/><stop offset=".55" stop-color="#404040"/><stop offset=".62" stop-color="#060606"/><stop offset=".63"/></radialGradient><radialGradient id="m" cx="0" cy="0" r="1" gradientUnits="userSpaceOnUse" gradientTransform="rotate(-75.931 332.98 -207.149) scale(10.6679 10.6001)"><stop stop-color="#fff"/><stop offset=".08" stop-color="#FBFBFB"/><stop offset=".16" stop-color="#EFEFEF"/><stop offset=".24" stop-color="#DCDCDC"/><stop offset=".32" stop-color="#C1C1C1"/><stop offset=".39" stop-color="#9E9E9E"/><stop offset=".47" stop-color="#737373"/><stop offset=".55" stop-color="#404040"/><stop offset=".62" stop-color="#060606"/><stop offset=".63"/></radialGradient><radialGradient id="n" cx="0" cy="0" r="1" gradientUnits="userSpaceOnUse" gradientTransform="rotate(-75.931 233.9 175.328) scale(10.6679 10.6001)"><stop stop-color="#fff"/><stop offset=".08" stop-color="#FBFBFB"/><stop offset=".16" stop-color="#EFEFEF"/><stop offset=".24" stop-color="#DCDCDC"/><stop offset=".32" stop-color="#C1C1C1"/><stop offset=".39" stop-color="#9E9E9E"/><stop offset=".47" stop-color="#737373"/><stop offset=".55" stop-color="#404040"/><stop offset=".62" stop-color="#060606"/><stop offset=".63"/></radialGradient><radialGradient id="a" cx="0" cy="0" r="1" gradientUnits="userSpaceOnUse" gradientTransform="matrix(20.949 -83.59412 83.06275 20.81584 209.026 103.548)"><stop stop-color="#fff"/><stop offset=".08" stop-color="#FBFBFB"/><stop offset=".16" stop-color="#EFEFEF"/><stop offset=".24" stop-color="#DCDCDC"/><stop offset=".32" stop-color="#C1C1C1"/><stop offset=".39" stop-color="#9E9E9E"/><stop offset=".47" stop-color="#737373"/><stop offset=".55" stop-color="#404040"/><stop offset=".62" stop-color="#060606"/><stop offset=".63"/></radialGradient><radialGradient id="p" cx="0" cy="0" r="1" gradientUnits="userSpaceOnUse" gradientTransform="rotate(-75.931 202.886 -228.18) scale(4.91773 4.88648)"><stop stop-color="#fff"/><stop offset=".08" stop-color="#FBFBFB"/><stop offset=".16" stop-color="#EFEFEF"/><stop offset=".24" stop-color="#DCDCDC"/><stop offset=".32" stop-color="#C1C1C1"/><stop offset=".39" stop-color="#9E9E9E"/><stop offset=".47" stop-color="#737373"/><stop offset=".55" stop-color="#404040"/><stop offset=".62" stop-color="#060606"/><stop offset=".63"/></radialGradient><radialGradient id="q" cx="0" cy="0" r="1" gradientUnits="userSpaceOnUse" gradientTransform="rotate(-75.931 284.21 -164.72) scale(4.91773 4.88648)"><stop stop-color="#fff"/><stop offset=".08" stop-color="#FBFBFB"/><stop offset=".16" stop-color="#EFEFEF"/><stop offset=".24" stop-color="#DCDCDC"/><stop offset=".32" stop-color="#C1C1C1"/><stop offset=".39" stop-color="#9E9E9E"/><stop offset=".47" stop-color="#737373"/><stop offset=".55" stop-color="#404040"/><stop offset=".62" stop-color="#060606"/><stop offset=".63"/></radialGradient><radialGradient id="r" cx="0" cy="0" r="1" gradientUnits="userSpaceOnUse" gradientTransform="rotate(-75.931 162.071 31.723) scale(4.91773 4.88648)"><stop stop-color="#fff"/><stop offset=".08" stop-color="#FBFBFB"/><stop offset=".16" stop-color="#EFEFEF"/><stop offset=".24" stop-color="#DCDCDC"/><stop offset=".32" stop-color="#C1C1C1"/><stop offset=".39" stop-color="#9E9E9E"/><stop offset=".47" stop-color="#737373"/><stop offset=".55" stop-color="#404040"/><stop offset=".62" stop-color="#060606"/><stop offset=".63"/></radialGradient><radialGradient id="s" cx="0" cy="0" r="1" gradientUnits="userSpaceOnUse" gradientTransform="rotate(-75.931 275.937 113.358) scale(4.91773 4.88648)"><stop stop-color="#fff"/><stop offset=".08" stop-color="#FBFBFB"/><stop offset=".16" stop-color="#EFEFEF"/><stop offset=".24" stop-color="#DCDCDC"/><stop offset=".32" stop-color="#C1C1C1"/><stop offset=".39" stop-color="#9E9E9E"/><stop offset=".47" stop-color="#737373"/><stop offset=".55" stop-color="#404040"/><stop offset=".62" stop-color="#060606"/><stop offset=".63"/></radialGradient><radialGradient id="t" cx="0" cy="0" r="1" gradientUnits="userSpaceOnUse" gradientTransform="rotate(-75.931 170.21 -18.626) scale(4.91773 4.88648)"><stop stop-color="#fff"/><stop offset=".08" stop-color="#FBFBFB"/><stop offset=".16" stop-color="#EFEFEF"/><stop offset=".24" stop-color="#DCDCDC"/><stop offset=".32" stop-color="#C1C1C1"/><stop offset=".39" stop-color="#9E9E9E"/><stop offset=".47" stop-color="#737373"/><stop offset=".55" stop-color="#404040"/><stop offset=".62" stop-color="#060606"/><stop offset=".63"/></radialGradient><radialGradient id="u" cx="0" cy="0" r="1" gradientUnits="userSpaceOnUse" gradientTransform="rotate(-75.931 233.768 115.504) scale(4.91773 4.88648)"><stop stop-color="#fff"/><stop offset=".08" stop-color="#FBFBFB"/><stop offset=".16" stop-color="#EFEFEF"/><stop offset=".24" stop-color="#DCDCDC"/><stop offset=".32" stop-color="#C1C1C1"/><stop offset=".39" stop-color="#9E9E9E"/><stop offset=".47" stop-color="#737373"/><stop offset=".55" stop-color="#404040"/><stop offset=".62" stop-color="#060606"/><stop offset=".63"/></radialGradient><radialGradient id="v" cx="0" cy="0" r="1" gradientUnits="userSpaceOnUse" gradientTransform="matrix(1.22407 -4.88448 4.85344 1.21629 536.068 86.706)"><stop stop-color="#fff"/><stop offset=".08" stop-color="#FBFBFB"/><stop offset=".16" stop-color="#EFEFEF"/><stop offset=".24" stop-color="#DCDCDC"/><stop offset=".32" stop-color="#C1C1C1"/><stop offset=".39" stop-color="#9E9E9E"/><stop offset=".47" stop-color="#737373"/><stop offset=".55" stop-color="#404040"/><stop offset=".62" stop-color="#060606"/><stop offset=".63"/></radialGradient><radialGradient id="w" cx="0" cy="0" r="1" gradientUnits="userSpaceOnUse" gradientTransform="matrix(42.34548 -168.97382 167.90002 42.07639 188.637 830.52)"><stop stop-color="#fff"/><stop offset=".08" stop-color="#FBFBFB"/><stop offset=".16" stop-color="#EFEFEF"/><stop offset=".24" stop-color="#DCDCDC"/><stop offset=".32" stop-color="#C1C1C1"/><stop offset=".39" stop-color="#9E9E9E"/><stop offset=".47" stop-color="#737373"/><stop offset=".55" stop-color="#404040"/><stop offset=".62" stop-color="#060606"/><stop offset=".63"/></radialGradient><radialGradient id="x" cx="0" cy="0" r="1" gradientUnits="userSpaceOnUse" gradientTransform="matrix(4.51171 -93.43173 92.8619 4.4842 877.038 496.071)"><stop stop-color="#fff"/><stop offset=".08" stop-color="#FBFBFB"/><stop offset=".16" stop-color="#EFEFEF"/><stop offset=".24" stop-color="#DCDCDC"/><stop offset=".32" stop-color="#C1C1C1"/><stop offset=".39" stop-color="#9E9E9E"/><stop offset=".47" stop-color="#737373"/><stop offset=".55" stop-color="#404040"/><stop offset=".62" stop-color="#060606"/><stop offset=".63"/></radialGradient><radialGradient id="y" cx="0" cy="0" r="1" gradientUnits="userSpaceOnUse" gradientTransform="matrix(1.97369 -7.8734 7.8254 1.96165 783.83 554.078)"><stop stop-color="#fff"/><stop offset=".08" stop-color="#FBFBFB"/><stop offset=".16" stop-color="#EFEFEF"/><stop offset=".24" stop-color="#DCDCDC"/><stop offset=".32" stop-color="#C1C1C1"/><stop offset=".39" stop-color="#9E9E9E"/><stop offset=".47" stop-color="#737373"/><stop offset=".55" stop-color="#404040"/><stop offset=".62" stop-color="#060606"/><stop offset=".63"/></radialGradient><radialGradient id="z" cx="0" cy="0" r="1" gradientUnits="userSpaceOnUse" gradientTransform="matrix(1.97369 -7.8734 7.8254 1.96165 924.396 405.496)"><stop stop-color="#fff"/><stop offset=".08" stop-color="#FBFBFB"/><stop offset=".16" stop-color="#EFEFEF"/><stop offset=".24" stop-color="#DCDCDC"/><stop offset=".32" stop-color="#C1C1C1"/><stop offset=".39" stop-color="#9E9E9E"/><stop offset=".47" stop-color="#737373"/><stop offset=".55" stop-color="#404040"/><stop offset=".62" stop-color="#060606"/><stop offset=".63"/></radialGradient><linearGradient id="c" x1="1657.43" y1="451.579" x2="956.241" y2="1412.88" gradientUnits="userSpaceOnUse"><stop stop-color="#B4C0ED"/><stop offset="1" stop-color="#B4C0ED" stop-opacity="0"/></linearGradient><filter id="b" x="631" y="206" width="1222" height="1151" filterUnits="userSpaceOnUse" color-interpolation-filters="sRGB"><feFlood flood-opacity="0" result="BackgroundImageFix"/><feGaussianBlur in="BackgroundImageFix" stdDeviation="20"/><feComposite in2="SourceAlpha" operator="in" result="effect1_backgroundBlur_722_22470"/><feBlend in="SourceGraphic" in2="effect1_backgroundBlur_722_22470" result="shape"/></filter></defs></svg>