<svg width="1430" height="435" viewBox="0 0 1430 435" fill="none" xmlns="http://www.w3.org/2000/svg">
<path d="M789.24 277.226C718.736 306.447 727.344 345.372 808.306 366.277C842.439 375.008 964.217 382 1016 382C1058.46 382 1307 365.696 1323.62 353.732C1362.79 323.715 1303.1 327.436 1336.24 285.763C1320.23 236.786 1119.86 237.819 982.672 246.823C909.319 251.097 829.607 259.458 789.24 277.226Z" fill="#F6F8FF"/>
<path d="M115.881 108.783C-54.4624 199.707 -33.6639 320.83 161.948 385.878C244.417 413.045 538.645 434.802 663.768 434.802C766.343 434.802 1366.86 384.07 1406.99 346.843C1501.64 253.44 1256.54 242.673 1415.04 142.673C1448.04 -13.8242 914.705 -13.8364 583.236 14.1806C406.006 27.4771 213.413 53.4966 115.881 108.783Z" fill="#F6F8FF" fill-opacity="0.5"/>
</svg>
