<svg width="1440" height="4412" fill="none" xmlns="http://www.w3.org/2000/svg"><g clip-path="url(#a)"><g clip-path="url(#b)"><path d="M-184.597 1790.02c-25.792-118.33-44.574-247.27-8.547-361.26 47.235-149.35 178.257-233.02 305.155-252.16 126.898-19.19 254.696 12.49 382.157 24.7 127.46 12.21 263.956 1.65 369.036-89.95 145.676-127.002 193.516-374.501 324.986-524.085 109.62-124.692 275.09-165.848 414.21-102.912" stroke="#C2C8DD" stroke-miterlimit="10"/><path d="M-88.064 1790.02c-24.405-111.92-42.174-233.92-8.097-341.74 44.686-141.29 168.623-220.44 288.66-238.54 120.076-18.15 240.938 11.83 361.501 23.38 120.563 11.55 249.71 1.56 349.092-85.09 137.848-120.17 183.058-354.279 307.438-495.755 103.7-117.951 260.25-156.891 391.83-97.349" stroke="#C2C8DD" stroke-miterlimit="10"/><path d="M8.468 1790.02c-22.98-105.56-39.775-220.54-7.61-322.22 42.137-133.23 158.988-207.86 272.203-224.92 113.215-17.12 227.18 11.17 340.882 22.01 113.702 10.89 235.465 1.46 329.148-80.23 129.969-113.29 172.599-334.057 289.859-467.471 97.77-111.257 245.36-147.934 369.45-91.787" stroke="#C2C8DD" stroke-miterlimit="10"/><path d="M-27.5 852.077c-26.666 112.144 77.61 256.873 157.446 307.893 33.584 21.24 86.763 45.68 113.428 2.89 21.959-35.24-4.564-102.47-2.87-145.66 2.363-107.809 138.518-106.739 93.441-225.113-56.31-158.133-148.175-143.608-243.31-83.383C39.279 739.118-13.168 784.445-27.5 852.077zM-66.376 1669.95c-218.016 103.35-191.397 241.03 58.958 314.97 105.55 30.88 482.121 55.61 642.262 55.61 131.281 0 899.856-57.66 951.226-99.98 121.14-106.17-63.46-93.01 39.04-240.41-49.5-173.23-669.102-169.58-1093.337-137.73-226.83 15.12-473.322 44.69-598.149 107.54z" fill="#F6F8FF" fill-opacity=".5"/></g><g filter="url(#c)"><ellipse cx="50.135" cy="50.168" rx="50.135" ry="50.168" transform="matrix(.79578 .60567 -.56974 .82188 1386.17 123.004)" fill="#707BA4" fill-opacity=".3" style="mix-blend-mode:soft-light"/></g><ellipse cx="51.843" cy="51.878" rx="51.843" ry="51.878" transform="matrix(.79578 .60567 -.56974 .82188 1387.62 123.082)" fill="url(#d)"/><ellipse cx="51.843" cy="51.878" rx="51.843" ry="51.878" transform="matrix(.79578 .60567 -.56974 .82188 1387.62 123.082)" fill="url(#e)"/><g filter="url(#f)"><ellipse cx="11.254" cy="22.461" rx="11.254" ry="22.461" transform="matrix(.87921 -.43786 .42566 .92434 1391.12 199.727)" fill="#EDF1FF"/></g><g filter="url(#g)"><ellipse cx="4.34" cy="11.382" rx="4.34" ry="11.382" transform="matrix(.87913 -.43803 .4255 .92443 1400.11 205.539)" fill="#EDF1FF"/></g><path d="M1698.5 289.452c54.22 227.996-157.79 522.247-320.1 625.969-68.27 43.173-176.39 92.879-230.6 5.885-44.65-71.65 9.28-208.338 5.83-296.145-4.8-219.185-281.616-217.01-189.972-457.673C1078.14-154.009 1264.91-124.478 1458.33-2.037c104.41 61.835 211.04 153.988 240.17 291.489z" fill="#F6F8FF" fill-opacity=".5"/><path d="M1550.87 1727.4c80.4 41.26 126.8 71.85 218.63 35.21 102.65-41.25 95.45-117.81 13.73-189.02-28.23-21.1-98.79-45.34-91.33-93.65 4.21-34.99 68.4-46.51 88.23-74.9 70.59-95.21-62.58-202.81-155.25-206.98-134.98-7.29-338.14 145.97-286.72 301.81 25.59 80.63 121.06 177.95 212.71 227.53z" stroke="#C2C8DD" stroke-width="1.32" stroke-miterlimit="10"/><path d="M1585.95 1733.72c80.4 41.26 126.8 71.85 218.63 35.21 102.65-41.25 95.45-117.81 13.73-189.02-28.23-21.1-98.79-45.34-91.33-93.65 4.21-34.98 68.4-46.51 88.23-74.9 70.58-95.21-62.58-202.81-155.25-206.98-134.99-7.29-338.15 145.97-286.72 301.81 25.59 80.63 121.06 177.95 212.71 227.53z" stroke="#C2C8DD" stroke-width="1.32" stroke-miterlimit="10"/><g filter="url(#h)"><ellipse cx="89.503" cy="1275.63" rx="46.497" ry="44.377" fill="#707BA4" fill-opacity=".3" style="mix-blend-mode:soft-light"/></g><ellipse cx="84.081" cy="1265.9" rx="48.081" ry="45.889" fill="url(#i)"/><ellipse cx="84.081" cy="1265.9" rx="48.081" ry="45.889" fill="url(#j)"/><g filter="url(#k)"><ellipse cx="10.122" cy="20.603" rx="10.122" ry="20.603" transform="matrix(.49315 -.86995 .88854 .4588 74.124 1244.41)" fill="#EDF1FF"/></g><g filter="url(#l)"><ellipse cx="3.908" cy="10.448" rx="3.908" ry="10.448" transform="matrix(.49315 -.86995 .88854 .4588 84.081 1243.64)" fill="#EDF1FF"/></g><g filter="url(#m)"><ellipse cx="133.172" cy="1433.7" rx="28.828" ry="27.951" fill="#707BA4" fill-opacity=".3" style="mix-blend-mode:soft-light"/></g><ellipse cx="129.81" cy="1427.57" rx="29.81" ry="28.903" fill="url(#n)"/><ellipse cx="129.81" cy="1427.57" rx="29.81" ry="28.903" fill="url(#o)"/><g filter="url(#p)"><ellipse cx="6.351" cy="12.817" rx="6.351" ry="12.817" transform="matrix(.48728 -.87325 .88556 .46453 123.637 1414.04)" fill="#EDF1FF"/></g><g filter="url(#q)"><ellipse cx="2.452" cy="6.5" rx="2.452" ry="6.5" transform="matrix(.48728 -.87325 .88556 .46453 129.811 1413.56)" fill="#EDF1FF"/></g><g style="mix-blend-mode:soft-light"><mask id="r" style="mask-type:luminance" maskUnits="userSpaceOnUse" x="1058" y="827" width="420" height="443"><path d="M1145.25 1070.87c110.73 11.26 51.53-145.033 94.53-204.043 41.06-54.556 136.33-56.637 156.77 21.674 8.4 35.078-14.21 68.336 4.32 106.07 15.19 26.489 48.23 37.849 66.36 64.669 37.28 58.4-31.06 133.28-78.19 159.23-37.4 17.68-73.07 2.94-111.18 12.78-56.05 11-99.74 62.16-155.47 25.05-20.97-13.14-41.03-35.52-53.59-58.62-30.79-63.91 7.24-132.77 76.46-126.81" fill="#fff"/></mask><g mask="url(#r)" stroke="#FBFBFB" stroke-width="5.36" stroke-miterlimit="10"><path d="m1000.83 1630.59 82.82-680.863M1030.21 1605.65l82.83-680.869M1059.6 1580.71l82.82-680.878M1088.98 1555.76l82.83-680.862M1118.37 1530.82l82.82-680.867M1147.76 1505.87l82.82-680.866M1177.14 1480.92l82.82-680.861M1206.53 1455.98l82.82-680.871M1235.91 1431.04l82.82-680.876M1265.3 1406.1l82.82-680.87M1294.68 1381.15l82.83-680.869M1324.07 1356.2l82.82-680.864M1353.45 1331.27l82.83-680.879M1382.84 1306.32l82.82-680.879M1412.23 1281.37l82.82-680.874M1441.61 1256.42l82.82-680.861"/></g></g><path d="M-108.929 715.257c81.141 38.626 128.45 70.14 215.181.333 96.931-78.445 84.496-181.008-.055-260.091-28.964-22.559-99.32-40.175-95.498-107.514 1.614-48.5 63.241-78.137 80.519-121.074C153.124 82.06 15.945-35.333-74.502-20.837-206.334-1.396-393.09 251.26-332.004 452.053c30.616 104.098 130.395 215.708 223.074 263.205z" stroke="#C2C8DD" stroke-width="1.32" stroke-miterlimit="10"/><g filter="url(#s)"><ellipse cx="32.528" cy="31.251" rx="32.528" ry="31.251" transform="matrix(.7958 .60563 -.5697 .8219 90.488 84.27)" fill="#707BA4" fill-opacity=".3" style="mix-blend-mode:soft-light"/></g><ellipse cx="33.636" cy="32.316" rx="33.636" ry="32.316" transform="matrix(.79578 .60567 -.56974 .82188 91.148 74.777)" fill="url(#t)"/><ellipse cx="33.636" cy="32.316" rx="33.636" ry="32.316" transform="matrix(.79578 .60567 -.56974 .82188 91.148 74.777)" fill="url(#u)"/><g filter="url(#v)"><ellipse cx="7.076" cy="14.442" rx="7.076" ry="14.442" transform="matrix(.8865 -.422 .44054 .91691 102.683 104.93)" fill="#EDF1FF"/></g><g filter="url(#w)"><ellipse cx="2.729" cy="7.318" rx="2.729" ry="7.318" transform="matrix(.88642 -.42218 .44038 .917 108.506 108.719)" fill="#EDF1FF"/></g><path d="M943.801 2295.1c-95.7 122.85-84.016 286.51 25.88 374.4 46.329 36.7 211.629 66.1 281.929 66.1 57.62 0 395-68.55 417.55-118.85 53.17-126.2-27.86-110.55 17.13-285.76-21.73-205.91-293.71-201.56-479.93-163.71-99.57 17.97-207.765 53.12-262.559 127.82z" fill="#F6F8FF" fill-opacity=".6"/><path d="M-108.124 2422.68c69.65 58.9 142.05 126.5 186.156 205.31 57.787 103.28 50.676 199.02 12.443 256.04-38.223 57.07-102.525 85.08-156.84 124.22s-100.526 94.71-93.822 185.62c9.29 126.08 116.554 286.17 142.623 420.1 21.738 111.65-19.919 195.37-104.323 209.46" stroke="#C2C8DD" stroke-miterlimit="10"/><path d="M-162.124 2391.32c69.65 58.9 142.05 126.5 186.156 205.3 57.787 103.28 50.676 199.03 12.443 256.05-38.223 57.07-102.525 85.08-156.84 124.22s-100.526 94.7-93.822 185.61c9.29 126.09 116.554 286.18 142.623 420.1 21.738 111.66-19.919 195.37-104.323 209.47" stroke="#C2C8DD" stroke-miterlimit="10"/><path d="M-199.124 2367.27c69.649 58.9 142.05 126.5 186.156 205.3C44.82 2675.85 37.708 2771.6-.525 2828.62c-38.223 57.06-102.525 85.08-156.84 124.22s-100.526 94.7-93.822 185.61c9.29 126.09 116.554 286.18 142.623 420.1 21.738 111.66-19.919 195.37-104.323 209.47M1685.52 3648.25c-114.81-41.61-234.5-95.95-309.44-194.55-98.19-129.25-91.96-302.17-33.75-434.9 58.19-132.79 159.74-237.82 244.69-353.49 84.94-115.66 156.01-252.84 140.37-405.25-21.69-211.38-202.25-396.25-251.25-606.6-40.86-175.37 21.39-357.57 155.91-455.96" stroke="#C2C8DD" stroke-miterlimit="10"/><g style="mix-blend-mode:soft-light"><mask id="x" style="mask-type:luminance" maskUnits="userSpaceOnUse" x="-104" y="1541" width="507" height="534"><path d="M297.562 1835.01c-133.653 13.59-62.198-175.06-114.1-246.29-49.56-65.85-164.553-68.36-189.225 26.16-10.139 42.34 17.152 82.48-5.214 128.03-18.334 31.98-58.215 45.68-80.098 78.05-44.998 70.5 37.49 160.88 94.377 192.21 45.143 21.34 88.197 3.54 134.197 15.42 67.653 13.27 120.388 75.02 187.656 30.23 25.311-15.86 49.524-42.87 64.684-70.76 37.164-77.13-8.739-160.24-92.289-153.05" fill="#fff"/></mask><g mask="url(#x)" stroke="#FBFBFB" stroke-width="5.36" stroke-miterlimit="10"><path d="m471.88 2510.6-99.965-821.82M436.418 2480.49l-99.978-821.82M400.945 2450.39l-99.966-821.84M365.48 2420.29l-99.977-821.83M330.007 2390.17l-99.965-821.82M294.533 2360.05l-99.966-821.82M259.07 2329.95l-99.965-821.83M223.595 2299.83l-99.965-821.82M188.133 2269.74l-99.966-821.83M152.66 2239.62 52.694 1417.8M117.197 2209.51l-99.978-821.82M81.722 2179.4l-99.965-821.82M46.26 2149.3l-99.978-821.83M10.787 2119.19l-99.966-821.83"/></g></g><g filter="url(#y)"><ellipse cx="1316.71" cy="2386.95" rx="29.293" ry="27.957" fill="#707BA4" fill-opacity=".3" style="mix-blend-mode:soft-light"/></g><ellipse cx="1313.29" cy="2380.82" rx="30.291" ry="28.91" fill="url(#z)"/><ellipse cx="1313.29" cy="2380.82" rx="30.291" ry="28.91" fill="url(#A)"/><g filter="url(#B)"><ellipse cx="6.377" cy="12.98" rx="6.377" ry="12.98" transform="matrix(.49315 -.86994 .88854 .4588 1307.02 2367.28)" fill="#EDF1FF"/></g><g filter="url(#C)"><ellipse cx="2.462" cy="6.582" rx="2.462" ry="6.582" transform="matrix(.49315 -.86994 .88854 .4588 1313.29 2366.8)" fill="#EDF1FF"/></g><g filter="url(#D)"><ellipse cx="186.992" cy="3307.17" rx="29.979" ry="30.163" fill="#707BA4" fill-opacity=".4" style="mix-blend-mode:soft-light"/></g><ellipse cx="187.653" cy="3305.68" rx="31" ry="31.191" fill="url(#E)"/><ellipse cx="187.653" cy="3305.68" rx="31" ry="31.191" fill="url(#F)"/><g filter="url(#G)"><ellipse cx="6.796" cy="13.438" rx="6.796" ry="13.438" transform="matrix(.4736 -.88074 .8783 .4781 187.149 3288.97)" fill="#EDF1FF"/></g><g filter="url(#H)"><ellipse cx="2.624" cy="6.815" rx="2.624" ry="6.815" transform="matrix(.4736 -.88074 .8783 .4781 193.57 3288.45)" fill="#EDF1FF"/></g><g filter="url(#I)"><ellipse cx="111.841" cy="3304.56" rx="11.159" ry="10.65" fill="#707BA4" fill-opacity=".3" style="mix-blend-mode:soft-light"/></g><ellipse cx="110.539" cy="3302.23" rx="11.54" ry="11.013" fill="url(#J)"/><ellipse cx="110.539" cy="3302.23" rx="11.54" ry="11.013" fill="url(#K)"/><g filter="url(#L)"><ellipse cx="2.43" cy="4.945" rx="2.43" ry="4.945" transform="matrix(.49315 -.86994 .88854 .4588 108.149 3297.07)" fill="#EDF1FF"/></g><g filter="url(#M)"><ellipse cx=".938" cy="2.508" rx=".938" ry="2.508" transform="matrix(.49315 -.86994 .88854 .4588 110.54 3296.89)" fill="#EDF1FF"/></g><g filter="url(#N)"><ellipse cx="79.444" cy="3367.95" rx="9.076" ry="8.665" fill="#707BA4" fill-opacity=".3" style="mix-blend-mode:soft-light"/></g><ellipse cx="78.385" cy="3366.05" rx="9.385" ry="8.96" fill="url(#O)"/><ellipse cx="78.385" cy="3366.05" rx="9.385" ry="8.96" fill="url(#P)"/><g filter="url(#Q)"><ellipse cx="1.977" cy="4.022" rx="1.977" ry="4.022" transform="matrix(.49305 -.87 .88849 .4589 76.44 3361.85)" fill="#EDF1FF"/></g><g filter="url(#R)"><ellipse cx=".763" cy="2.04" rx=".763" ry="2.04" transform="matrix(.49305 -.87 .88849 .4589 78.385 3361.7)" fill="#EDF1FF"/></g><path d="M-350.521 3702.89c130.882 91.29 217.532-201.93 277.807-260.58 72.064-74.95 209.302-37.03 225.602 74.12 3.75 39.39-14.047 83.81 7.276 118.7 19.034 33.09 72.599 53.06 102.348 76.28 70.915 55.39 105.747 140.91 50.779 221.93-108.737 170.27-426.417 89.84-573.061 15.41-63.322-31.23-160.366-85.14-189.412-158.86-29.045-73.72 36.031-168.72 98.659-86.99" fill="url(#S)" fill-opacity=".6"/><path d="M1329.74 4223.03c157.27-261.23-113.43-403.88-147.71-515.56-46.11-133.11 57.54-402.07 182.88-443.16 43.48-10.63 82.33 20.02 129.16-24.25 43.88-39.69 89.81-145.11 128.18-204.7 91.5-142.06 198.25-216.82 258.69-117.33 130.17 195.94-101.97 817.92-248.66 1108.23-62.38 125.27-164.39 317.79-255.96 380.34-91.56 62.56-162.15-55.3-46.57-183.57" fill="url(#T)" fill-opacity=".4"/><path d="M1493.69 2078.09c-89.81-9.24-144.09-20.9-216.5 46.63-80.83 75.76-46.55 144.52 55.29 181.21 33.92 9.41 108.43 6.36 118.88 54.11 8.68 34.14-47.02 68.21-55.27 101.89-31.51 114.41 131.39 166.33 219.29 136.53 128.46-42.25 262.65-258.96 158.57-385.56-52.9-65.86-176.96-121.9-280.26-134.81z" stroke="#C2C8DD" stroke-width="1.32" stroke-miterlimit="10"/></g><defs><filter id="Q" x="10.283" y="3292.45" width="141.411" height="139.047" filterUnits="userSpaceOnUse" color-interpolation-filters="sRGB"><feFlood flood-opacity="0" result="BackgroundImageFix"/><feBlend in="SourceGraphic" in2="BackgroundImageFix" result="shape"/><feGaussianBlur stdDeviation="33.5" result="effect1_foregroundBlur_722_22527"/></filter><filter id="c" x="1230.48" y="25.469" width="334.006" height="338.263" filterUnits="userSpaceOnUse" color-interpolation-filters="sRGB"><feFlood flood-opacity="0" result="BackgroundImageFix"/><feBlend in="SourceGraphic" in2="BackgroundImageFix" result="shape"/><feGaussianBlur stdDeviation="58.961" result="effect1_foregroundBlur_722_22527"/></filter><filter id="g" x="1380.27" y="181.132" width="56.998" height="66.055" filterUnits="userSpaceOnUse" color-interpolation-filters="sRGB"><feFlood flood-opacity="0" result="BackgroundImageFix"/><feBlend in="SourceGraphic" in2="BackgroundImageFix" result="shape"/><feGaussianBlur stdDeviation="11.167" result="effect1_foregroundBlur_722_22527"/></filter><filter id="h" x="-74.915" y="1113.34" width="328.836" height="324.596" filterUnits="userSpaceOnUse" color-interpolation-filters="sRGB"><feFlood flood-opacity="0" result="BackgroundImageFix"/><feBlend in="SourceGraphic" in2="BackgroundImageFix" result="shape"/><feGaussianBlur stdDeviation="58.961" result="effect1_foregroundBlur_722_22527"/></filter><filter id="k" x="11.442" y="1165.14" width="171.96" height="159.838" filterUnits="userSpaceOnUse" color-interpolation-filters="sRGB"><feFlood flood-opacity="0" result="BackgroundImageFix"/><feBlend in="SourceGraphic" in2="BackgroundImageFix" result="shape"/><feGaussianBlur stdDeviation="33.5" result="effect1_foregroundBlur_722_22527"/></filter><filter id="l" x="63.475" y="1216.83" width="63.634" height="56.421" filterUnits="userSpaceOnUse" color-interpolation-filters="sRGB"><feFlood flood-opacity="0" result="BackgroundImageFix"/><feBlend in="SourceGraphic" in2="BackgroundImageFix" result="shape"/><feGaussianBlur stdDeviation="11.167" result="effect1_foregroundBlur_722_22527"/></filter><filter id="m" x="-13.577" y="1287.83" width="293.499" height="291.744" filterUnits="userSpaceOnUse" color-interpolation-filters="sRGB"><feFlood flood-opacity="0" result="BackgroundImageFix"/><feBlend in="SourceGraphic" in2="BackgroundImageFix" result="shape"/><feGaussianBlur stdDeviation="58.961" result="effect1_foregroundBlur_722_22527"/></filter><filter id="p" x="59.313" y="1339.31" width="157.536" height="150.275" filterUnits="userSpaceOnUse" color-interpolation-filters="sRGB"><feFlood flood-opacity="0" result="BackgroundImageFix"/><feBlend in="SourceGraphic" in2="BackgroundImageFix" result="shape"/><feGaussianBlur stdDeviation="33.5" result="effect1_foregroundBlur_722_22527"/></filter><filter id="q" x="108.548" y="1388.4" width="56.426" height="52.071" filterUnits="userSpaceOnUse" color-interpolation-filters="sRGB"><feFlood flood-opacity="0" result="BackgroundImageFix"/><feBlend in="SourceGraphic" in2="BackgroundImageFix" result="shape"/><feGaussianBlur stdDeviation="11.167" result="effect1_foregroundBlur_722_22527"/></filter><filter id="s" x="-50.771" y="-20.638" width="298.683" height="300.586" filterUnits="userSpaceOnUse" color-interpolation-filters="sRGB"><feFlood flood-opacity="0" result="BackgroundImageFix"/><feBlend in="SourceGraphic" in2="BackgroundImageFix" result="shape"/><feGaussianBlur stdDeviation="58.961" result="effect1_foregroundBlur_722_22527"/></filter><filter id="v" x="39.383" y="34.608" width="151.871" height="161.156" filterUnits="userSpaceOnUse" color-interpolation-filters="sRGB"><feFlood flood-opacity="0" result="BackgroundImageFix"/><feBlend in="SourceGraphic" in2="BackgroundImageFix" result="shape"/><feGaussianBlur stdDeviation="33.5" result="effect1_foregroundBlur_722_22527"/></filter><filter id="w" x="87.784" y="85.134" width="52.727" height="58.286" filterUnits="userSpaceOnUse" color-interpolation-filters="sRGB"><feFlood flood-opacity="0" result="BackgroundImageFix"/><feBlend in="SourceGraphic" in2="BackgroundImageFix" result="shape"/><feGaussianBlur stdDeviation="11.167" result="effect1_foregroundBlur_722_22527"/></filter><filter id="y" x="1169.49" y="2241.07" width="294.428" height="291.757" filterUnits="userSpaceOnUse" color-interpolation-filters="sRGB"><feFlood flood-opacity="0" result="BackgroundImageFix"/><feBlend in="SourceGraphic" in2="BackgroundImageFix" result="shape"/><feGaussianBlur stdDeviation="58.961" result="effect1_foregroundBlur_722_22527"/></filter><filter id="B" x="1242.74" y="2292.55" width="157.915" height="150.279" filterUnits="userSpaceOnUse" color-interpolation-filters="sRGB"><feFlood flood-opacity="0" result="BackgroundImageFix"/><feBlend in="SourceGraphic" in2="BackgroundImageFix" result="shape"/><feGaussianBlur stdDeviation="33.5" result="effect1_foregroundBlur_722_22527"/></filter><filter id="C" x="1292.05" y="2341.64" width="56.617" height="52.073" filterUnits="userSpaceOnUse" color-interpolation-filters="sRGB"><feFlood flood-opacity="0" result="BackgroundImageFix"/><feBlend in="SourceGraphic" in2="BackgroundImageFix" result="shape"/><feGaussianBlur stdDeviation="11.167" result="effect1_foregroundBlur_722_22527"/></filter><filter id="D" x="39.092" y="3159.08" width="295.8" height="296.168" filterUnits="userSpaceOnUse" color-interpolation-filters="sRGB"><feFlood flood-opacity="0" result="BackgroundImageFix"/><feBlend in="SourceGraphic" in2="BackgroundImageFix" result="shape"/><feGaussianBlur stdDeviation="58.961" result="effect1_foregroundBlur_722_22527"/></filter><filter id="G" x="122.933" y="3213.63" width="158.475" height="151.563" filterUnits="userSpaceOnUse" color-interpolation-filters="sRGB"><feFlood flood-opacity="0" result="BackgroundImageFix"/><feBlend in="SourceGraphic" in2="BackgroundImageFix" result="shape"/><feGaussianBlur stdDeviation="33.5" result="effect1_foregroundBlur_722_22527"/></filter><filter id="H" x="172.35" y="3263.07" width="56.896" height="52.657" filterUnits="userSpaceOnUse" color-interpolation-filters="sRGB"><feFlood flood-opacity="0" result="BackgroundImageFix"/><feBlend in="SourceGraphic" in2="BackgroundImageFix" result="shape"/><feGaussianBlur stdDeviation="11.167" result="effect1_foregroundBlur_722_22527"/></filter><filter id="I" x="-17.24" y="3175.99" width="258.161" height="257.143" filterUnits="userSpaceOnUse" color-interpolation-filters="sRGB"><feFlood flood-opacity="0" result="BackgroundImageFix"/><feBlend in="SourceGraphic" in2="BackgroundImageFix" result="shape"/><feGaussianBlur stdDeviation="58.961" result="effect1_foregroundBlur_722_22527"/></filter><filter id="L" x="42.185" y="3227.12" width="143.112" height="140.203" filterUnits="userSpaceOnUse" color-interpolation-filters="sRGB"><feFlood flood-opacity="0" result="BackgroundImageFix"/><feBlend in="SourceGraphic" in2="BackgroundImageFix" result="shape"/><feGaussianBlur stdDeviation="33.5" result="effect1_foregroundBlur_722_22527"/></filter><filter id="M" x="88.621" y="3273.48" width="49.219" height="47.488" filterUnits="userSpaceOnUse" color-interpolation-filters="sRGB"><feFlood flood-opacity="0" result="BackgroundImageFix"/><feBlend in="SourceGraphic" in2="BackgroundImageFix" result="shape"/><feGaussianBlur stdDeviation="11.167" result="effect1_foregroundBlur_722_22527"/></filter><filter id="N" x="-47.553" y="3241.36" width="253.995" height="253.172" filterUnits="userSpaceOnUse" color-interpolation-filters="sRGB"><feFlood flood-opacity="0" result="BackgroundImageFix"/><feBlend in="SourceGraphic" in2="BackgroundImageFix" result="shape"/><feGaussianBlur stdDeviation="58.961" result="effect1_foregroundBlur_722_22527"/></filter><filter id="f" x="1329.81" y="127.217" width="161.52" height="176.688" filterUnits="userSpaceOnUse" color-interpolation-filters="sRGB"><feFlood flood-opacity="0" result="BackgroundImageFix"/><feBlend in="SourceGraphic" in2="BackgroundImageFix" result="shape"/><feGaussianBlur stdDeviation="33.5" result="effect1_foregroundBlur_722_22527"/></filter><filter id="R" x="56.389" y="3338.49" width="48.37" height="46.963" filterUnits="userSpaceOnUse" color-interpolation-filters="sRGB"><feFlood flood-opacity="0" result="BackgroundImageFix"/><feBlend in="SourceGraphic" in2="BackgroundImageFix" result="shape"/><feGaussianBlur stdDeviation="11.167" result="effect1_foregroundBlur_722_22527"/></filter><radialGradient id="E" cx="0" cy="0" r="1" gradientUnits="userSpaceOnUse" gradientTransform="rotate(-19.694 9605.98 1100.753) scale(55.0391 53.6821)"><stop offset=".442" stop-color="#C8D0F8"/><stop offset=".917" stop-color="#7D8BBD"/></radialGradient><radialGradient id="d" cx="0" cy="0" r="1" gradientUnits="userSpaceOnUse" gradientTransform="rotate(-19.595 159.336 -143.531) scale(91.9879 89.342)"><stop offset=".442" stop-color="#C8D0F8"/><stop offset=".917" stop-color="#7D8BBD"/></radialGradient><radialGradient id="i" cx="0" cy="0" r="1" gradientUnits="userSpaceOnUse" gradientTransform="matrix(80.37248 -27.28904 25.53812 75.21562 89.202 1259.93)"><stop offset=".442" stop-color="#C8D0F8"/><stop offset=".917" stop-color="#7D8BBD"/></radialGradient><radialGradient id="j" cx="0" cy="0" r="1" gradientUnits="userSpaceOnUse" gradientTransform="rotate(127.471 -254.65 645.293) scale(90.4923 73.7706)"><stop stop-color="#fff"/><stop offset=".773" stop-color="#EDF1FF"/><stop offset="1" stop-color="#C4CFF6"/></radialGradient><radialGradient id="n" cx="0" cy="0" r="1" gradientUnits="userSpaceOnUse" gradientTransform="rotate(-19.03 4313.724 315.21) scale(52.7119 49.9478)"><stop offset=".442" stop-color="#C8D0F8"/><stop offset=".917" stop-color="#7D8BBD"/></radialGradient><radialGradient id="o" cx="0" cy="0" r="1" gradientUnits="userSpaceOnUse" gradientTransform="matrix(-34.13208 45.23564 -36.7219 -27.70813 141.276 1411.24)"><stop stop-color="#fff"/><stop offset=".773" stop-color="#EDF1FF"/><stop offset="1" stop-color="#C4CFF6"/></radialGradient><radialGradient id="t" cx="0" cy="0" r="1" gradientUnits="userSpaceOnUse" gradientTransform="matrix(56.22583 -19.21741 18.07904 52.8952 37.218 28.11)"><stop offset=".442" stop-color="#C8D0F8"/><stop offset=".917" stop-color="#7D8BBD"/></radialGradient><radialGradient id="u" cx="0" cy="0" r="1" gradientUnits="userSpaceOnUse" gradientTransform="rotate(127.288 19.805 18.564) scale(63.5708 51.7336)"><stop stop-color="#fff"/><stop offset=".773" stop-color="#EDF1FF"/><stop offset="1" stop-color="#C4CFF6"/></radialGradient><radialGradient id="z" cx="0" cy="0" r="1" gradientUnits="userSpaceOnUse" gradientTransform="rotate(-18.754 7855.526 -2797.653) scale(53.4733 50.0422)"><stop offset=".442" stop-color="#C8D0F8"/><stop offset=".917" stop-color="#7D8BBD"/></radialGradient><radialGradient id="A" cx="0" cy="0" r="1" gradientUnits="userSpaceOnUse" gradientTransform="rotate(127.471 79.082 1509.143) scale(57.0095 46.4751)"><stop stop-color="#fff"/><stop offset=".773" stop-color="#EDF1FF"/><stop offset="1" stop-color="#C4CFF6"/></radialGradient><radialGradient id="e" cx="0" cy="0" r="1" gradientUnits="userSpaceOnUse" gradientTransform="matrix(-59.35884 81.19274 -65.31294 -47.74935 71.782 22.562)"><stop stop-color="#fff"/><stop offset=".773" stop-color="#EDF1FF"/><stop offset="1" stop-color="#C4CFF6"/></radialGradient><radialGradient id="F" cx="0" cy="0" r="1" gradientUnits="userSpaceOnUse" gradientTransform="matrix(-35.4942 48.81594 -39.20285 -28.5045 199.576 3288.05)"><stop stop-color="#fff"/><stop offset=".773" stop-color="#EDF1FF"/><stop offset="1" stop-color="#C4CFF6"/></radialGradient><radialGradient id="J" cx="0" cy="0" r="1" gradientUnits="userSpaceOnUse" gradientTransform="matrix(19.28938 -6.5493 6.12902 18.05159 111.769 3300.79)"><stop offset=".442" stop-color="#C8D0F8"/><stop offset=".917" stop-color="#7D8BBD"/></radialGradient><radialGradient id="K" cx="0" cy="0" r="1" gradientUnits="userSpaceOnUse" gradientTransform="rotate(127.471 -755.733 1676.369) scale(21.7179 17.7048)"><stop stop-color="#fff"/><stop offset=".773" stop-color="#EDF1FF"/><stop offset="1" stop-color="#C4CFF6"/></radialGradient><radialGradient id="O" cx="0" cy="0" r="1" gradientUnits="userSpaceOnUse" gradientTransform="matrix(15.6885 -5.32818 4.98737 14.685 79.385 3364.88)"><stop offset=".442" stop-color="#C8D0F8"/><stop offset=".917" stop-color="#7D8BBD"/></radialGradient><radialGradient id="P" cx="0" cy="0" r="1" gradientUnits="userSpaceOnUse" gradientTransform="matrix(-10.74581 14.02296 -11.4309 -8.75952 81.995 3360.98)"><stop stop-color="#fff"/><stop offset=".773" stop-color="#EDF1FF"/><stop offset="1" stop-color="#C4CFF6"/></radialGradient><linearGradient id="S" x1="-418.471" y1="3591.43" x2="359.671" y2="3792.63" gradientUnits="userSpaceOnUse"><stop stop-color="#F2F5FF"/><stop offset="1" stop-color="#F6F8FF" stop-opacity=".5"/></linearGradient><linearGradient id="T" x1="1180.19" y1="4364.14" x2="1836.48" y2="2877.01" gradientUnits="userSpaceOnUse"><stop stop-color="#F2F5FF"/><stop offset="1" stop-color="#F6F8FF" stop-opacity=".5"/></linearGradient><clipPath id="a"><path fill="#fff" transform="translate(0 .543)" d="M0 0h1440v4411.42H0z"/></clipPath><clipPath id="b"><path fill="#fff" transform="translate(-214 454.477)" d="M0 0h1817v1336.2H0z"/></clipPath></defs></svg>