<svg width="28" height="28" viewBox="0 0 28 28" fill="none" xmlns="http://www.w3.org/2000/svg">
<g id="Switch container">
<g id="Switch">
<g id="Vector">
<path d="M22.0594 11.9953C22.0594 11.7182 21.9703 11.4906 21.7922 11.3125L20.4414 9.97656C20.2534 9.78854 20.0307 9.69453 19.7734 9.69453C19.5161 9.69453 19.2935 9.78854 19.1055 9.97656L13.0492 16.018L9.69453 12.6633C9.50651 12.4753 9.28385 12.3812 9.02656 12.3812C8.76927 12.3812 8.54661 12.4753 8.35859 12.6633L7.00781 13.9992C6.82969 14.1773 6.74062 14.4049 6.74062 14.682C6.74062 14.9492 6.82969 15.1719 7.00781 15.35L12.3812 20.7234C12.5693 20.9115 12.7919 21.0055 13.0492 21.0055C13.3164 21.0055 13.544 20.9115 13.732 20.7234L21.7922 12.6633C21.9703 12.4852 22.0594 12.2625 22.0594 11.9953ZM25.8 14.4C25.8 16.4682 25.2904 18.3757 24.2711 20.1223C23.2518 21.8689 21.8689 23.2518 20.1223 24.2711C18.3757 25.2904 16.4682 25.8 14.4 25.8C12.3318 25.8 10.4243 25.2904 8.67773 24.2711C6.93112 23.2518 5.54818 21.8689 4.52891 20.1223C3.50964 18.3757 3 16.4682 3 14.4C3 12.3318 3.50964 10.4243 4.52891 8.67773C5.54818 6.93112 6.93112 5.54818 8.67773 4.52891C10.4243 3.50964 12.3318 3 14.4 3C16.4682 3 18.3757 3.50964 20.1223 4.52891C21.8689 5.54818 23.2518 6.93112 24.2711 8.67773C25.2904 10.4243 25.8 12.3318 25.8 14.4Z" fill="#B4C0ED"/>
<path d="M22.0594 11.9953C22.0594 11.7182 21.9703 11.4906 21.7922 11.3125L20.4414 9.97656C20.2534 9.78854 20.0307 9.69453 19.7734 9.69453C19.5161 9.69453 19.2935 9.78854 19.1055 9.97656L13.0492 16.018L9.69453 12.6633C9.50651 12.4753 9.28385 12.3812 9.02656 12.3812C8.76927 12.3812 8.54661 12.4753 8.35859 12.6633L7.00781 13.9992C6.82969 14.1773 6.74062 14.4049 6.74062 14.682C6.74062 14.9492 6.82969 15.1719 7.00781 15.35L12.3812 20.7234C12.5693 20.9115 12.7919 21.0055 13.0492 21.0055C13.3164 21.0055 13.544 20.9115 13.732 20.7234L21.7922 12.6633C21.9703 12.4852 22.0594 12.2625 22.0594 11.9953Z" fill="#FBFBFB"/>
</g>
</g>
</g>
</svg>
