<svg width="1430" height="435" fill="none" xmlns="http://www.w3.org/2000/svg"><path d="M789.24 277.226c-70.504 29.221-61.896 68.146 19.066 89.051C842.439 375.008 964.217 382 1016 382c42.46 0 291-16.304 307.62-28.268 39.17-30.017-20.52-26.296 12.62-67.969-16.01-48.977-216.38-47.944-353.568-38.94-73.353 4.274-153.065 12.635-193.432 30.403z" fill="#F6F8FF"/><path d="M115.881 108.783C-54.462 199.707-33.664 320.83 161.948 385.878c82.469 27.167 376.697 48.924 501.82 48.924 102.575 0 703.092-50.732 743.222-87.959 94.65-93.403-150.45-104.17 8.05-204.17 33-156.497-500.335-156.51-831.804-128.492-177.23 13.296-369.823 39.316-467.355 94.602z" fill="#F6F8FF" fill-opacity=".5"/></svg>