<?xml version="1.0" encoding="utf-8"?>
<svg xmlns="http://www.w3.org/2000/svg">
  <!-- <symbol id="check" viewBox="0 0 24 24" fill="none">
    <g stroke="#7D8BBD" stroke-width="2" stroke-linecap="round" stroke-linejoin="round">
      <path d="M22 11.08V12a10 10 0 1 1-5.93-9.14"/>
      <path d="M22 4 12 14.01l-3-3"/>
    </g>
  </symbol> -->
  <!-- <symbol id="info" viewBox="0 0 48 48" fill="none">
    <g stroke="#7D8BBD" stroke-width="2" stroke-linecap="round" stroke-linejoin="round">
      <path d="M24 44c11.046 0 20-8.954 20-20S35.046 4 24 4 4 12.954 4 24s8.954 20 20 20ZM24 32v-8M24 16h.02"/>
    </g>
  </symbol> -->
  <!-- <symbol id="left" fill="none" viewBox="0 0 16 28">
    <path d="M14 26 2 14 14 2" stroke="#F9FAFD" stroke-width="4" stroke-linecap="round" stroke-linejoin="round"/>
  </symbol> -->
  
  
  <!-- <symbol id="minus" viewBox="0 0 48 48" fill="none">
    <path d="M10 24h28" stroke="#7D8BBD" stroke-width="2" stroke-linecap="round" stroke-linejoin="round"/>
  </symbol> -->
  <!-- <symbol id="plus" viewBox="0 0 48 48" fill="none">
    <g stroke="#7D8BBD" stroke-width="2" stroke-linecap="round" stroke-linejoin="round">
      <path d="M10 24h28M24 10v28"/>
    </g>
  </symbol> -->
  <!-- <symbol id="up" viewBox="0 0 18 18" fill="none">
    <path d="M4.5 11.25 9 6.75l4.5 4.5" stroke="#1F253B" stroke-width="2" stroke-linecap="round" stroke-linejoin="round"/>
  </symbol> -->
</svg>