<?xml version="1.0" encoding="utf-8"?><svg xmlns="http://www.w3.org/2000/svg" xmlns:xlink="http://www.w3.org/1999/xlink"><symbol fill="none" viewBox="0 0 24 24" id="check" xmlns="http://www.w3.org/2000/svg"><g stroke="#7D8BBD" stroke-width="2" stroke-linecap="round" stroke-linejoin="round"><path d="M22 11.08V12a10 10 0 1 1-5.93-9.14"/><path d="M22 4 12 14.01l-3-3"/></g></symbol><symbol fill="none" viewBox="0 0 18 18" id="down" xmlns="http://www.w3.org/2000/svg"><path d="m4.5 6.75 4.5 4.5 4.5-4.5" stroke="#1F253B" stroke-width="2" stroke-linecap="round" stroke-linejoin="round"/></symbol><symbol fill="none" viewBox="0 0 16 16" id="earth" xmlns="http://www.w3.org/2000/svg"><path d="M8 0C3.589 0 0 3.589 0 8s3.589 8 8 8 8-3.589 8-8-3.589-8-8-8ZM1.6 8c0-.72.125-1.41.345-2.055L3.2 7.2l1.6 1.6v1.6L6.4 12l.8.8v1.545C4.049 13.949 1.6 11.258 1.6 8Zm11.464 3.898c-.522-.42-1.314-.698-1.864-.698v-.8a1.6 1.6 0 0 0-1.6-1.6H6.4V6.4A1.6 1.6 0 0 0 8 4.8V4h.8a1.6 1.6 0 0 0 1.6-1.6v-.329c2.342.951 4 3.249 4 5.929 0 1.412-.47 2.783-1.336 3.898Z" fill="#6B769D"/></symbol><symbol fill="none" viewBox="0 0 48 48" id="info" xmlns="http://www.w3.org/2000/svg"><g stroke="#7D8BBD" stroke-width="2" stroke-linecap="round" stroke-linejoin="round"><path d="M24 44c11.046 0 20-8.954 20-20S35.046 4 24 4 4 12.954 4 24s8.954 20 20 20ZM24 32v-8M24 16h.02"/></g></symbol><symbol fill="none" viewBox="0 0 16 28" id="left" xmlns="http://www.w3.org/2000/svg"><path d="M14 26 2 14 14 2" stroke="#F9FAFD" stroke-width="4" stroke-linecap="round" stroke-linejoin="round"/></symbol><symbol fill="none" viewBox="0 0 18 18" id="map" xmlns="http://www.w3.org/2000/svg"><g stroke="#666A71" stroke-width="2" stroke-linecap="round" stroke-linejoin="round"><path d="m2.25 4.5 4.5-2.25 4.5 2.25 4.5-2.25V13.5l-4.5 2.25-4.5-2.25-4.5 2.25V4.5ZM6.75 2.25V13.5M11.25 4.5v11.25"/></g></symbol><symbol fill="none" viewBox="0 0 18 18" id="map-pin" xmlns="http://www.w3.org/2000/svg"><g stroke="#6B769D" stroke-width="2" stroke-linecap="round" stroke-linejoin="round"><path d="M15 7.5c0 4.5-6 9-6 9s-6-4.5-6-9a6 6 0 1 1 12 0Z"/><path d="M9 9.75a2.25 2.25 0 1 0 0-4.5 2.25 2.25 0 0 0 0 4.5Z"/></g></symbol><symbol fill="none" viewBox="0 0 32 32" id="menu" xmlns="http://www.w3.org/2000/svg"><g stroke="#000" stroke-width="2" stroke-linecap="round" stroke-linejoin="round"><path d="M4 8h24M4 16h24M4 24h24"/></g></symbol><symbol fill="none" viewBox="0 0 48 48" id="minus" xmlns="http://www.w3.org/2000/svg"><path d="M10 24h28" stroke="#7D8BBD" stroke-width="2" stroke-linecap="round" stroke-linejoin="round"/></symbol><symbol fill="none" viewBox="0 0 48 48" id="plus" xmlns="http://www.w3.org/2000/svg"><g stroke="#7D8BBD" stroke-width="2" stroke-linecap="round" stroke-linejoin="round"><path d="M10 24h28M24 10v28"/></g></symbol><symbol fill="none" viewBox="0 0 16 28" id="right" xmlns="http://www.w3.org/2000/svg"><path d="m2 26 12-12L2 2" stroke="#F9FAFD" stroke-width="4" stroke-linecap="round" stroke-linejoin="round"/></symbol><symbol fill="none" viewBox="0 0 18 18" id="up" xmlns="http://www.w3.org/2000/svg"><path d="M4.5 11.25 9 6.75l4.5 4.5" stroke="#1F253B" stroke-width="2" stroke-linecap="round" stroke-linejoin="round"/></symbol></svg>