<?xml version="1.0" encoding="utf-8"?>
<svg xmlns="http://www.w3.org/2000/svg" xmlns:xlink="http://www.w3.org/1999/xlink">
<!-- 
  chevron-down 
  earth 
  menu 
-->
  <!-- <symbol fill="none" viewBox="0 0 40 40" id="call" xmlns="http://www.w3.org/2000/svg"><circle cx="12" cy="12" fill="#F9605A" r="12"/><path d="M20 11.667A8.334 8.334 0 0 1 28.333 20M25 35a22.016 22.016 0 0 1-7.233-3.183l3.033-4.35a3.333 3.333 0 0 1 4.467-.85c.55.35 1.116.666 1.666.983a3.334 3.334 0 0 1 1.4 4.7L27.3 33.883A1.95 1.95 0 0 1 25 35ZM6.117 12.783l1.666-1.033a3.333 3.333 0 0 1 4.75 1.217c.317.6.634 1.166.984 1.666a3.334 3.334 0 0 1-.85 4.467l-4.434 3.083A22.016 22.016 0 0 1 5 15a1.95 1.95 0 0 1 1.117-2.217Z" stroke="#000" stroke-width="2" stroke-linecap="round" stroke-linejoin="round"/><path d="M8.233 22.183a29.535 29.535 0 0 0 4.3 5.284 29.533 29.533 0 0 0 5.284 4.3M18.333 5.1c.553-.067 1.11-.1 1.667-.1a15 15 0 0 1 15 15c0 .557-.033 1.114-.1 1.667" stroke="#000" stroke-width="2" stroke-linecap="round" stroke-linejoin="round"/></symbol>
  <symbol fill="none" viewBox="0 0 24 24" id="check-circle" xmlns="http://www.w3.org/2000/svg"><g stroke="#7D8BBD" stroke-width="2" stroke-linecap="round" stroke-linejoin="round"><path d="M22 11.08V12a10 10 0 1 1-5.93-9.14"/><path d="M22 4 12 14.01l-3-3"/></g></symbol> -->
  <symbol fill="none" viewBox="0 0 18 18" id="chevron-down" xmlns="http://www.w3.org/2000/svg"><path d="m4.5 6.75 4.5 4.5 4.5-4.5" stroke-width="2" stroke-linecap="round" stroke-linejoin="round"/></symbol>
  <!-- <symbol fill="none" viewBox="0 0 40 40" id="chevron-left" xmlns="http://www.w3.org/2000/svg"><path d="M25 30 15 20l10-10" stroke="#000" stroke-width="2" stroke-linecap="round" stroke-linejoin="round"/></symbol> -->
  <!-- <symbol fill="none" viewBox="0 0 40 40" id="chevron-right" xmlns="http://www.w3.org/2000/svg"><path d="m15 30 10-10-10-10" stroke="#000" stroke-width="2" stroke-linecap="round" stroke-linejoin="round" opacity=".8"/></symbol> -->
  <!-- <symbol fill="none" viewBox="0 0 18 18" id="chevron-up" xmlns="http://www.w3.org/2000/svg"><path d="M4.5 11.25 9 6.75l4.5 4.5" stroke="#1F253B" stroke-width="2" stroke-linecap="round" stroke-linejoin="round"/></symbol> -->
  <symbol viewBox="0 0 16 16" id="earth" xmlns="http://www.w3.org/2000/svg"><path d="M8 0C3.589 0 0 3.589 0 8s3.589 8 8 8 8-3.589 8-8-3.589-8-8-8ZM1.6 8c0-.72.125-1.41.345-2.055L3.2 7.2l1.6 1.6v1.6L6.4 12l.8.8v1.545C4.049 13.949 1.6 11.258 1.6 8Zm11.464 3.898c-.522-.42-1.314-.698-1.864-.698v-.8a1.6 1.6 0 0 0-1.6-1.6H6.4V6.4A1.6 1.6 0 0 0 8 4.8V4h.8a1.6 1.6 0 0 0 1.6-1.6v-.329c2.342.951 4 3.249 4 5.929 0 1.412-.47 2.783-1.336 3.898Z"/></symbol>
  <!-- <symbol fill="none" viewBox="0 0 40 40" id="email" xmlns="http://www.w3.org/2000/svg"><circle cx="12" cy="12" fill="#F9605A" r="12"/><path d="m6.133 9.083 12.834 10.1a1.667 1.667 0 0 0 2.066 0l12.834-10.1m-.534 22.584H6.667A1.667 1.667 0 0 1 5 30V10a1.667 1.667 0 0 1 1.667-1.667h26.666A1.666 1.666 0 0 1 35 10v20a1.666 1.666 0 0 1-1.667 1.667Z" stroke="#000" stroke-width="2" stroke-linecap="round" stroke-linejoin="round"/></symbol> -->
  <!-- <symbol fill="none" viewBox="0 0 32 32" id="heart" xmlns="http://www.w3.org/2000/svg"><path d="M10.761 8.09c-1.764-.001-3.397.562-4.58 1.67-1.184 1.107-1.899 2.755-1.899 4.808 0 2.155 1.516 4.158 3.569 6.124 2.053 1.967 4.694 3.908 7.111 5.923a.418.418 0 0 0 .507 0c2.416-2.014 5.052-3.961 7.11-5.922 2.061-1.961 3.595-3.947 3.595-6.125 0-2.076-.739-3.706-1.923-4.809-1.185-1.102-2.794-1.67-4.556-1.67-1.813 0-3.345 1.144-4.48 2.303-1.13-1.153-2.645-2.303-4.454-2.303Z" fill="#7D8BBD"/></symbol> -->
  <!-- <symbol fill="none" viewBox="0 0 48 48" id="info" xmlns="http://www.w3.org/2000/svg"><g stroke="#7D8BBD" stroke-width="2" stroke-linecap="round" stroke-linejoin="round"><path d="M24 44c11.046 0 20-8.954 20-20S35.046 4 24 4 4 12.954 4 24s8.954 20 20 20ZM24 32v-8M24 16h.02"/></g></symbol> -->
  <!-- <symbol fill="none" viewBox="0 0 40 40" id="location" xmlns="http://www.w3.org/2000/svg"><circle cx="12" cy="12" fill="#F9605A" r="12"/><path d="M26.55 31.067c.079.19.118.394.117.6C26.667 33.5 23.683 35 20 35s-6.667-1.5-6.667-3.333c-.002-.206.038-.41.117-.6M28.333 13.333a8.333 8.333 0 0 0-16.666 0c0 6.667 8.333 15 8.333 15s8.333-8.333 8.333-15Z" stroke="#000" stroke-width="2" stroke-linecap="round" stroke-linejoin="round"/><path d="M22.357 11.046c.737.758 1.036 1.47.976 2.525-.1 1.774-1.558 3.042-3.333 3.096-.976.03-1.632-.18-2.357-.834-.726-.654-.936-1.285-.977-2.262-.044-1.07.352-1.855.977-2.525A3.225 3.225 0 0 1 20 10c.884 0 1.655.324 2.357 1.046Z" stroke="#000" stroke-width="2" stroke-linecap="round" stroke-linejoin="round"/></symbol> -->
  <!-- <symbol fill="none" viewBox="0 0 18 18" id="map" xmlns="http://www.w3.org/2000/svg"><g stroke="#666A71" stroke-width="2" stroke-linecap="round" stroke-linejoin="round"><path d="m2.25 4.5 4.5-2.25 4.5 2.25 4.5-2.25V13.5l-4.5 2.25-4.5-2.25-4.5 2.25V4.5ZM6.75 2.25V13.5M11.25 4.5v11.25"/></g></symbol> -->
  <!-- <symbol fill="none" viewBox="0 0 18 18" id="map-pin"><g stroke="#6B769D" stroke-width="2" stroke-linecap="round" stroke-linejoin="round"><path d="M15 7.5c0 4.5-6 9-6 9s-6-4.5-6-9a6 6 0 1 1 12 0Z"/><path d="M9 9.75a2.25 2.25 0 1 0 0-4.5 2.25 2.25 0 0 0 0 4.5Z"/></g></symbol> -->
  <symbol fill="none" viewBox="0 0 32 32" id="menu" xmlns="http://www.w3.org/2000/svg"><g stroke="#000" stroke-width="2" stroke-linecap="round" stroke-linejoin="round"><path d="M4 8h24M4 16h24M4 24h24"/></g></symbol>
  <!-- <symbol fill="none" viewBox="0 0 48 48" id="minus" xmlns="http://www.w3.org/2000/svg"><path d="M10 24h28" stroke="#7D8BBD" stroke-width="2" stroke-linecap="round" stroke-linejoin="round"/></symbol> -->
  <!-- <symbol viewBox="12 14 40 41" fill="none" id="person1" xmlns="http://www.w3.org/2000/svg"><g fill="#FBFBFB"><path d="M27.956 30.315a3.76 3.76 0 0 1 3.755-3.756 3.76 3.76 0 0 1 3.756 3.756 3.76 3.76 0 0 1-3.756 3.756 3.76 3.76 0 0 1-3.755-3.756ZM31.711 35.227c4.265 0 7.761 3.32 8.06 7.511H23.65c.3-4.19 3.795-7.511 8.06-7.511Z"/><path fill-rule="evenodd" clip-rule="evenodd" d="M34.343 34.455a4.908 4.908 0 0 0 2.28-4.14 4.917 4.917 0 0 0-4.912-4.912 4.917 4.917 0 0 0-4.91 4.912c0 1.74.91 3.267 2.278 4.14-3.819 1.136-6.612 4.678-6.612 8.861 0 .32.258.578.578.578h17.333c.32 0 .578-.258.578-.578 0-4.183-2.794-7.725-6.613-8.861Zm-2.632-7.896a3.76 3.76 0 0 0-3.755 3.756 3.76 3.76 0 0 0 3.755 3.756 3.76 3.76 0 0 0 3.756-3.756 3.76 3.76 0 0 0-3.756-3.756Zm8.06 16.18c-.299-4.192-3.795-7.512-8.06-7.512-4.265 0-7.76 3.32-8.06 7.511h16.12Z"/><path d="M35.25 51.754a.556.556 0 1 0 0-1.111v1.111Zm-7.312-1.111a.555.555 0 1 0 0 1.111v-1.111ZM37 15.56a.556.556 0 1 0 0-1.11v1.11Zm8.556 11.937a.556.556 0 0 0-1.111 0h1.11ZM21.223 54.561h9.694v-1.11h-9.694v1.11Zm9.694 0h11.86v-1.11h-11.86v1.11Zm2.167-1.11h-2.167v1.11h2.167v-1.11Zm-14.64-36.223V48.55h1.112V17.228h-1.111Zm0 31.322v3.233h1.112V48.55h-1.111Zm27.112 3.233V48.55h-1.111v3.233h1.11ZM19 49.106h26v-1.111H19v1.11Zm16.25 1.537h-7.312v1.111h7.312v-1.111ZM37 14.45H21.223v1.111H37v-1.11Zm8.556 34.1V27.498h-1.111V48.55h1.11Zm-26-31.322c0-.92.746-1.667 1.667-1.667v-1.11a2.778 2.778 0 0 0-2.778 2.777h1.11Zm23.222 37.333a2.778 2.778 0 0 0 2.778-2.778h-1.111c0 .921-.747 1.667-1.667 1.667v1.111Zm-21.555-1.11c-.92 0-1.667-.747-1.667-1.668h-1.111a2.778 2.778 0 0 0 2.778 2.778v-1.11ZM39.943 15.01c1.258-1.35 3.296-1.35 4.554 0l.503.54.503-.54c1.258-1.35 3.296-1.35 4.554 0 1.258 1.35 1.258 3.537 0 4.887l-4.541 4.873a.696.696 0 0 1-1.031 0l-4.542-4.873c-1.258-1.35-1.258-3.537 0-4.887Z"/></g></symbol> -->
  <!-- <symbol fill="none" viewBox="0 0 40 40" id="person2" xmlns="http://www.w3.org/2000/svg"><g fill="#fff"><path d="M2 20.599h18a.6.6 0 0 0 .6-.6c0-4.344-2.901-8.022-6.867-9.202A5.096 5.096 0 0 0 16.1 6.5c0-2.812-2.288-5.1-5.1-5.1a5.106 5.106 0 0 0-5.1 5.1c0 1.806.946 3.392 2.367 4.298C4.3 11.977 1.4 15.655 1.4 20a.6.6 0 0 0 .6.6Zm5.1-14.1c0-2.15 1.75-3.9 3.9-3.9s3.9 1.75 3.9 3.9-1.75 3.9-3.9 3.9-3.9-1.75-3.9-3.9Zm3.9 5.1c4.43 0 8.06 3.448 8.37 7.8H2.63c.31-4.352 3.94-7.8 8.37-7.8Zm20.733 17.198A5.096 5.096 0 0 0 34.1 24.5c0-2.812-2.288-5.1-5.1-5.1a5.106 5.106 0 0 0-5.1 5.1c0 1.806.946 3.392 2.367 4.298C22.3 29.977 19.4 33.655 19.4 38a.6.6 0 0 0 .6.6h18a.6.6 0 0 0 .6-.6c0-4.344-2.901-8.022-6.867-9.202ZM25.1 24.5c0-2.15 1.75-3.9 3.9-3.9s3.9 1.75 3.9 3.9-1.75 3.9-3.9 3.9-3.9-1.75-3.9-3.9Zm3.9 5.1c4.43 0 8.06 3.448 8.37 7.8H20.63c.31-4.352 3.94-7.8 8.37-7.8Zm9.564-21.907-.01-.035a.6.6 0 0 0-.045-.083l-.01-.02a.61.61 0 0 0-.076-.091l-5.889-5.889a.6.6 0 1 0-.848.849l4.865 4.865h-16.22a.6.6 0 1 0 0 1.2h16.22l-4.865 4.865a.6.6 0 1 0 .85.848l5.888-5.888a.591.591 0 0 0 .075-.092l.01-.019a.62.62 0 0 0 .045-.083c.005-.012.007-.024.011-.035a.587.587 0 0 0 .024-.315c-.005-.027-.016-.052-.025-.077ZM1.435 32.305c.004.012.006.024.011.035a.6.6 0 0 0 .045.083l.01.02a.61.61 0 0 0 .076.091l5.888 5.889a.598.598 0 0 0 .85 0 .6.6 0 0 0 0-.848l-4.866-4.866h16.219a.6.6 0 1 0 0-1.2H3.448l4.866-4.865a.6.6 0 1 0-.849-.848l-5.888 5.888a.591.591 0 0 0-.075.092l-.01.019a.62.62 0 0 0-.046.084c-.004.01-.006.023-.01.034a.587.587 0 0 0-.024.315c.005.027.015.052.024.077Z"/><path d="M7.1 6.499c0-2.15 1.75-3.9 3.9-3.9s3.9 1.75 3.9 3.9-1.75 3.9-3.9 3.9-3.9-1.75-3.9-3.9ZM11 11.599c4.43 0 8.06 3.448 8.37 7.8H2.63c.31-4.352 3.94-7.8 8.37-7.8ZM25.1 24.499c0-2.15 1.75-3.9 3.9-3.9s3.9 1.75 3.9 3.9-1.75 3.9-3.9 3.9-3.9-1.75-3.9-3.9ZM29 29.599c4.43 0 8.06 3.448 8.37 7.8H20.63c.31-4.352 3.94-7.8 8.37-7.8Z"/></g></symbol> -->
  <!-- <symbol fill="none" viewBox="0 0 48 48" id="person3" xmlns="http://www.w3.org/2000/svg"><g fill="#fff"><path d="M3.104 21.757a.75.75 0 0 0 .849-.637 20.264 20.264 0 0 1 27.28-16.038.75.75 0 1 0 .534-1.404 21.767 21.767 0 0 0-29.3 17.231.75.75 0 0 0 .637.848Zm41.744-3.972a.75.75 0 1 0-1.437.43 20.211 20.211 0 0 1-4.775 19.741A21.659 21.659 0 0 0 28.377 32.7a9.75 9.75 0 1 0-8.754 0 21.658 21.658 0 0 0-10.256 5.253A20.116 20.116 0 0 1 3.953 26.88a.75.75 0 0 0-1.485.21 21.753 21.753 0 1 0 42.38-9.305ZM15.75 24A8.25 8.25 0 1 1 24 32.25 8.26 8.26 0 0 1 15.75 24Zm-5.3 14.994a20.129 20.129 0 0 1 27.106.005 20.109 20.109 0 0 1-27.106-.005Z"/><path d="M15.75 24A8.25 8.25 0 1 1 24 32.25 8.26 8.26 0 0 1 15.75 24Z"/><path d="M10.45 38.994a20.129 20.129 0 0 1 27.106.005 20.109 20.109 0 0 1-27.106-.005ZM31.598 7.311a.752.752 0 0 0 .19.769l2.89 2.816-.683 3.976a.75.75 0 0 0 1.088.792l3.573-1.878 3.572 1.878a.75.75 0 0 0 1.087-.791l-.681-3.978 2.89-2.815a.752.752 0 0 0-.416-1.28l-3.993-.58-1.787-3.62a.783.783 0 0 0-1.345 0l-1.786 3.62-3.993.58a.749.749 0 0 0-.606.511Zm5.205.337a.752.752 0 0 0 .564-.41l1.289-2.61 1.288 2.61a.753.753 0 0 0 .565.41l2.879.417-2.084 2.03a.752.752 0 0 0-.215.666l.491 2.868-2.576-1.354a.752.752 0 0 0-.697 0L35.73 13.63l.493-2.868a.752.752 0 0 0-.216-.665l-2.084-2.03 2.88-.418Z"/><path d="M36.803 7.648a.752.752 0 0 0 .564-.41l1.289-2.61 1.288 2.61a.753.753 0 0 0 .565.41l2.879.417-2.084 2.03a.752.752 0 0 0-.215.666l.491 2.868-2.576-1.354a.752.752 0 0 0-.697 0L35.73 13.63l.493-2.868a.752.752 0 0 0-.216-.665l-2.084-2.03 2.88-.418ZM3 24.75a.75.75 0 1 0 0-1.5.75.75 0 0 0 0 1.5Z"/></g></symbol> -->
  <!-- <symbol fill="none" viewBox="0 0 48 48" id="plus" xmlns="http://www.w3.org/2000/svg"><g stroke="#7D8BBD" stroke-width="2" stroke-linecap="round" stroke-linejoin="round"><path d="M10 24h28M24 10v28"/></g></symbol>
  <symbol fill="none" viewBox="0 0 32 32" id="rings" xmlns="http://www.w3.org/2000/svg"><path fill-rule="evenodd" clip-rule="evenodd" d="M7.2 13.251a6.056 6.056 0 0 1 6.05-6.05 6.055 6.055 0 0 1 5.386 3.307 8.249 8.249 0 0 0-7.926 6.417 4.436 4.436 0 0 0 2.091.753 6.059 6.059 0 0 1 4.876-4.876 6.049 6.049 0 0 1 1.073-.1c.178 0 .35.021.525.039a6.5 6.5 0 0 1 .025.51 6.056 6.056 0 0 1-6.05 6.05 6.056 6.056 0 0 1-6.05-6.05Zm15.817-1.55c.08.505.133 1.021.133 1.55 0 .43-.036.848-.09 1.262a6.031 6.031 0 0 1 1.74 4.238 6.056 6.056 0 0 1-6.05 6.05 6.032 6.032 0 0 1-4.238-1.74 6.087 6.087 0 0 1-1.138-1.567 8.246 8.246 0 0 0 3.582-15.615 8.25 8.25 0 0 0-9.874 12.848 8.25 8.25 0 0 0 3.793 2.422 8.167 8.167 0 0 0 3.826 4.786A8.236 8.236 0 0 0 18.75 27 8.25 8.25 0 0 0 27 18.75a8.235 8.235 0 0 0-3.983-7.05Z" fill="#7D8BBD"/></symbol> -->
  <!-- <symbol fill="none" viewBox="0 0 40 40" id="skype" xmlns="http://www.w3.org/2000/svg"><circle cx="12" cy="12" fill="#F9605A" r="12"/><path d="M24.317 15a3.333 3.333 0 0 0-2.884-1.667h-2.866a3.333 3.333 0 1 0 0 6.667h2.866a3.333 3.333 0 0 1 0 6.667h-2.866A3.333 3.333 0 0 1 15.683 25" stroke="#000" stroke-width="2" stroke-linecap="round" stroke-linejoin="round"/><path d="M33.083 22.533c.168-.834.252-1.682.25-2.533A13.333 13.333 0 0 0 20 6.667c-.85-.002-1.7.082-2.533.25A7.4 7.4 0 0 0 12.5 5 7.517 7.517 0 0 0 5 12.5a7.4 7.4 0 0 0 1.917 5c-.166.823-.25 1.66-.25 2.5A13.333 13.333 0 0 0 20 33.333c.85.002 1.7-.082 2.533-.25a7.4 7.4 0 0 0 5 1.917A7.516 7.516 0 0 0 35 27.5a7.4 7.4 0 0 0-1.917-4.967Z" stroke="#000" stroke-width="2" stroke-linecap="round" stroke-linejoin="round"/></symbol> -->
  <!-- <symbol fill="none" viewBox="0 0 32 32" id="user" xmlns="http://www.w3.org/2000/svg"><g clip-path="url(#va)"><path d="M20.15 19.747a7.5 7.5 0 1 0-8.3 0 12.027 12.027 0 0 0-5.668 4.356A1 1 0 0 0 7 25.678h18a1 1 0 0 0 .818-1.576 12.028 12.028 0 0 0-5.668-4.355Z" fill="#7D8BBD"/></g><defs><clipPath id="va"><path fill="#fff" d="M0 0h32v32H0z"/></clipPath></defs></symbol> -->
  <!-- <symbol fill="none" viewBox="0 0 32 32" id="users" xmlns="http://www.w3.org/2000/svg"><g clip-path="url(#wa)" fill="#7D8BBD"><path d="M15.15 19.745a7.499 7.499 0 1 0-8.3 0A12.027 12.027 0 0 0 1.182 24.1 1 1 0 0 0 2 25.676h18a1 1 0 0 0 .818-1.577 12.027 12.027 0 0 0-5.668-4.354Z"/><path d="M31.008 24.098a12.026 12.026 0 0 0-5.668-4.355A7.5 7.5 0 0 0 19.156 6.28a1 1 0 0 0-.531 1.56 9.48 9.48 0 0 1 .48 10.611 1 1 0 0 0 .255 1.325c.38.282.744.583 1.093.902a.98.98 0 0 0 .056.058 14.005 14.005 0 0 1 3.185 4.363 1 1 0 0 0 .906.577l5.59-.001a1 1 0 0 0 .818-1.576Z"/></g><defs><clipPath id="wa"><path fill="#fff" d="M0 0h32v32H0z"/></clipPath></defs></symbol> -->
</svg>