<?xml version="1.0" encoding="utf-8"?>
<svg width="372" height="347" viewBox="0 0 372 347" xmlns="http://www.w3.org/2000/svg" xmlns:xlink="http://www.w3.org/1999/xlink">
<view id="call_bg_red" viewBox="331 80 40 40"/><svg width="40" height="40" fill="none" viewBox="0 0 40 40" x="331" y="80" xmlns="http://www.w3.org/2000/svg"><circle cx="12" cy="12" fill="#F9605A" r="12"/><path d="M20 11.667A8.334 8.334 0 0 1 28.333 20M25 35a22.016 22.016 0 0 1-7.233-3.183l3.033-4.35a3.333 3.333 0 0 1 4.467-.85c.55.35 1.116.666 1.666.983a3.334 3.334 0 0 1 1.4 4.7L27.3 33.883A1.95 1.95 0 0 1 25 35ZM6.117 12.783l1.666-1.033a3.333 3.333 0 0 1 4.75 1.217c.317.6.634 1.166.984 1.666a3.334 3.334 0 0 1-.85 4.467l-4.434 3.083A22.016 22.016 0 0 1 5 15a1.95 1.95 0 0 1 1.117-2.217Z" stroke="#1F253B" stroke-width="2" stroke-linecap="round" stroke-linejoin="round"/><path d="M8.233 22.184a29.53 29.53 0 0 0 4.3 5.283 29.536 29.536 0 0 0 5.284 4.3M18.334 5.1c.553-.067 1.11-.1 1.666-.1a15 15 0 0 1 15 15c0 .557-.033 1.114-.1 1.667" stroke="#1F253B" stroke-width="2" stroke-linecap="round" stroke-linejoin="round"/></svg><view id="check_bg_blue" viewBox="108 311 32 32"/><svg width="32" height="32" fill="none" viewBox="0 0 32 32" x="108" y="311" xmlns="http://www.w3.org/2000/svg"><rect width="32" height="32" rx="16" fill="#B4C0ED" fill-opacity=".25"/><path d="M24.06 13.995a.925.925 0 0 0-.268-.682l-1.35-1.336a.913.913 0 0 0-.669-.283.913.913 0 0 0-.668.283l-6.056 6.041-3.354-3.355a.913.913 0 0 0-.668-.282.913.913 0 0 0-.668.282L9.008 16a.925.925 0 0 0-.267.683c0 .267.089.49.267.668l5.373 5.373c.188.189.41.283.668.283a.93.93 0 0 0 .683-.283l8.06-8.06a.906.906 0 0 0 .267-.668ZM27.8 16.4c0 2.068-.51 3.976-1.529 5.722a11.35 11.35 0 0 1-4.149 4.15C20.376 27.29 18.468 27.8 16.4 27.8c-2.068 0-3.976-.51-5.722-1.529a11.35 11.35 0 0 1-4.15-4.149C5.51 20.376 5 18.468 5 16.4c0-2.068.51-3.976 1.529-5.722a11.35 11.35 0 0 1 4.149-4.15C12.424 5.51 14.332 5 16.4 5c2.068 0 3.976.51 5.722 1.529a11.35 11.35 0 0 1 4.15 4.149C27.29 12.424 27.8 14.332 27.8 16.4Z" fill="#B4C0ED"/><path d="M24.06 13.995a.925.925 0 0 0-.268-.682l-1.35-1.336a.913.913 0 0 0-.669-.283.913.913 0 0 0-.668.283l-6.056 6.041-3.354-3.355a.913.913 0 0 0-.668-.282.913.913 0 0 0-.668.282L9.008 16a.925.925 0 0 0-.267.683c0 .267.089.49.267.668l5.373 5.373c.188.189.41.283.668.283a.93.93 0 0 0 .683-.283l8.06-8.06a.906.906 0 0 0 .267-.668Z" fill="#FBFBFB"/></svg><view id="check_bg_red" viewBox="0 311 36 36"/><svg width="36" height="36" fill="none" viewBox="0 0 36 36" y="311" xmlns="http://www.w3.org/2000/svg"><circle cx="12.5" cy="13.5" r="12.5" fill="#F9605A"/><path d="M33 16.62V18a15 15 0 1 1-8.895-13.71" stroke="#1F253B" stroke-width="2.667" stroke-linecap="round" stroke-linejoin="round"/><path d="M33 6 18 21.015l-4.5-4.5" stroke="#1F253B" stroke-width="2.667" stroke-linecap="round" stroke-linejoin="round"/></svg><view id="check_ring" viewBox="331 280 25 24"/><svg width="25" height="24" fill="none" viewBox="0 0 25 24" x="331" y="280" xmlns="http://www.w3.org/2000/svg"><g stroke="#7D8BBD" stroke-width="2" stroke-linecap="round" stroke-linejoin="round"><path d="M22.5 11.082v.92a10 10 0 1 1-5.93-9.14"/><path d="m22.5 4-10 10.01-3-3"/></g></svg><view id="clock_heart_bg_blue" viewBox="0 77 78 78"/><svg width="78" height="78" fill="none" viewBox="0 0 78 78" y="77" xmlns="http://www.w3.org/2000/svg"><rect width="78" height="78" rx="39" fill="#EAEEFA"/><rect x="7" y="7" width="64" height="64" rx="32" fill="#B4C0ED"/><path d="M37.667 29v12.027h7.726" stroke="#FBFBFB" stroke-width="4" stroke-linecap="round"/><path d="M55.804 38.708c.285-10.184-7.657-18.727-17.84-19.036-10.487-.317-19.25 8.549-18.957 19.036.285 10.205 8.752 18.31 18.956 18" stroke="#FBFBFB" stroke-width="4" stroke-linecap="round"/><path d="M44.988 47.05c1.652-1.525 4.331-1.525 5.984 0l.661.61.662-.61c1.652-1.525 4.331-1.525 5.983 0 1.654 1.524 1.654 3.995 0 5.519l-5.967 5.504a1.018 1.018 0 0 1-1.355 0l-5.968-5.504c-1.653-1.524-1.653-3.995 0-5.52Z" fill="#FBFBFB"/></svg><view id="cross" viewBox="255 206 24 24"/><svg width="24" height="24" fill="none" viewBox="0 0 24 24" x="255" y="206" xmlns="http://www.w3.org/2000/svg"><g stroke="#000" stroke-width="2" stroke-linecap="round" stroke-linejoin="round"><path d="M18 6 6 18M6 6l12 12"/></g></svg><view id="dialog_bg_red" viewBox="255 78 65 64"/><svg width="65" height="64" fill="none" viewBox="0 0 65 64" x="255" y="78" xmlns="http://www.w3.org/2000/svg"><g clip-path="url(#aga)"><circle cx="16.5" cy="26" fill="#F9605A" r="16"/><g clip-path="url(#agb)" fill="#1F253B"><path d="M11.612 45.425a1.495 1.495 0 0 1-1.197-2.384l.62-.846a9.599 9.599 0 0 0 1.758-4.207l.124-.965A14.362 14.362 0 0 1 8.5 26.855C8.5 18.114 17.005 11 27.463 11 37.92 11 46.43 18.114 46.43 26.856c0 8.743-8.51 15.851-18.968 15.851a22.112 22.112 0 0 1-8.538-1.688 11.212 11.212 0 0 1-6.008 4.104l-.9.248a1.49 1.49 0 0 1-.405.054Zm15.85-32.807c-9.562 0-17.344 6.386-17.344 14.238a12.837 12.837 0 0 0 4.212 9.309l.302.28-.243 1.796a11.207 11.207 0 0 1-2.065 4.935l-.415.54.566-.157a9.562 9.562 0 0 0 5.474-4.002l.383-.582.63.291a20.377 20.377 0 0 0 8.485 1.823c9.567 0 17.35-6.386 17.35-14.233S37.03 12.618 27.463 12.618Z"/><path d="M53.016 52.587c-.139.001-.276-.017-.41-.054l-.911-.248a11.17 11.17 0 0 1-6.003-4.11 22.114 22.114 0 0 1-8.543 1.694 21.066 21.066 0 0 1-12.674-4.056.81.81 0 0 1-.146-1.17.81.81 0 0 1 1.122-.118 19.415 19.415 0 0 0 11.698 3.726c2.93.006 5.828-.621 8.494-1.839l.658-.275.383.588a9.573 9.573 0 0 0 5.453 4.002l.566.156-.415-.566a11.212 11.212 0 0 1-2.055-4.913l-.237-1.813.296-.285a12.843 12.843 0 0 0 4.218-9.298c0-4.482-2.573-8.678-6.914-11.37a.814.814 0 0 1-.292-1.078.809.809 0 0 1 1.155-.286c4.853 2.983 7.685 7.696 7.685 12.744a14.378 14.378 0 0 1-4.45 10.172l.13.982a9.617 9.617 0 0 0 1.753 4.185l.577.787a1.56 1.56 0 0 1 .102 1.753 1.482 1.482 0 0 1-1.24.69ZM36.863 19.914h-8.591a.809.809 0 1 0 0 1.618h8.591a.809.809 0 1 0 0-1.618ZM25.472 19.914h-8.764a.809.809 0 1 0 0 1.618h8.764a.809.809 0 1 0 0-1.618ZM36.81 26.93H22.031a.835.835 0 0 1-.863-.808.836.836 0 0 1 .863-.809h14.777a.836.836 0 0 1 .863.803.842.842 0 0 1-.863.815ZM18.866 25.309h-2.158a.809.809 0 1 0 0 1.618h2.158a.809.809 0 1 0 0-1.618Z"/><path d="M36.864 30.703h-7.82a.809.809 0 1 0 0 1.618h7.82a.809.809 0 1 0 0-1.618ZM21.293 30.703h-4.585a.809.809 0 1 0 0 1.618h4.585a.809.809 0 1 0 0-1.618ZM25.942 30.637h-1.349a.809.809 0 1 0 0 1.618h1.349a.809.809 0 1 0 0-1.618Z"/></g></g><defs><clipPath id="aga"><path fill="#fff" transform="translate(.5)" d="M0 0h64v64H0z"/></clipPath><clipPath id="agb"><path fill="#fff" transform="translate(8.5 11)" d="M0 0h48v42.067H0z"/></clipPath></defs></svg><view id="document_bg_red" viewBox="255 142 65 64"/><svg width="65" height="64" fill="none" viewBox="0 0 65 64" x="255" y="142" xmlns="http://www.w3.org/2000/svg"><g clip-path="url(#aha)"><circle cx="16.5" cy="26" fill="#F9605A" r="16"/><g clip-path="url(#ahb)" fill="#1F253B"><path d="M52.585 21.068a.822.822 0 0 0-.097-.25.827.827 0 0 0-.132-.178L38.962 7.245a.847.847 0 0 0-.179-.131l-.044-.025a.829.829 0 0 0-.206-.072h-.006A.82.82 0 0 0 38.369 7H15.382a3.613 3.613 0 0 0-3.608 3.609V53.71c0 1.99 1.619 3.61 3.608 3.61h33.61c1.99 0 3.61-1.62 3.61-3.61V22.072c0-.054-.007-.945-.016-.996l-.001-.008ZM39.208 9.863l10.53 10.532H41.16a1.954 1.954 0 0 1-1.952-1.953V9.863ZM50.924 53.71a1.934 1.934 0 0 1-1.93 1.932H15.381a1.934 1.934 0 0 1-1.931-1.932V10.61c0-1.065.867-1.932 1.931-1.932H37.53v9.765a3.633 3.633 0 0 0 3.63 3.63h9.764V53.71Z"/><path d="M16.741 32.159c0 .463.376.839.84.839h29.215a.839.839 0 0 0 0-1.678H17.58a.839.839 0 0 0-.838.839ZM46.796 39.59H17.58a.839.839 0 0 0 0 1.677h29.216a.839.839 0 0 0 0-1.677ZM46.796 47.855H17.58a.839.839 0 0 0 0 1.678h29.216a.839.839 0 0 0 0-1.678ZM19.27 27.129h9.579a.839.839 0 0 0 .838-.839v-2.833a4.48 4.48 0 0 0-2.632-4.075 4.157 4.157 0 0 0 1.177-2.897c0-2.3-1.872-4.172-4.173-4.172a4.177 4.177 0 0 0-4.172 4.172c0 1.125.45 2.146 1.176 2.897a4.48 4.48 0 0 0-2.632 4.074v2.834c0 .463.376.839.839.839Zm4.79-13.14a2.498 2.498 0 0 1 2.494 2.496 2.498 2.498 0 0 1-2.495 2.495 2.498 2.498 0 0 1-2.495-2.495 2.498 2.498 0 0 1 2.495-2.495Zm-3.952 9.468c0-1.544 1.256-2.8 2.8-2.8h2.303a2.802 2.802 0 0 1 2.799 2.8v1.994h-7.902v-1.994Z"/></g></g><defs><clipPath id="aha"><path fill="#fff" transform="translate(.5)" d="M0 0h64v64H0z"/></clipPath><clipPath id="ahb"><path fill="#fff" transform="translate(11.5 7)" d="M0 0h41.374v50.319H0z"/></clipPath></defs></svg><view id="down" viewBox="143 126 18 19"/><svg width="18" height="19" fill="none" viewBox="0 0 18 19" x="143" y="126" xmlns="http://www.w3.org/2000/svg"><path d="m4.5 6.782 4.5 4.5 4.5-4.5" stroke="#1F253B" stroke-width="2" stroke-linecap="round" stroke-linejoin="round"/></svg><view id="earth" viewBox="123 126 20 21"/><svg width="20" height="21" fill="none" viewBox="0 0 20 21" x="123" y="126" xmlns="http://www.w3.org/2000/svg"><path d="M10 .032c-5.514 0-10 4.486-10 10s4.486 10 10 10 10-4.486 10-10-4.486-10-10-10Zm-8 10c0-.899.156-1.762.431-2.569L4 9.033l2 2v2l2 2 1 1v1.93c-3.939-.495-7-3.859-7-7.93Zm14.33 4.873c-.653-.526-1.643-.873-2.33-.873v-1a2 2 0 0 0-2-2H8v-3a2 2 0 0 0 2-2v-1h1a2 2 0 0 0 2-2v-.41c2.928 1.188 5 4.06 5 7.41 0 1.765-.588 3.48-1.67 4.873Z" fill="#7D8BBD"/></svg><view id="email_bg_red" viewBox="331 120 40 40"/><svg width="40" height="40" fill="none" viewBox="0 0 40 40" x="331" y="120" xmlns="http://www.w3.org/2000/svg"><circle cx="12" cy="12" fill="#F9605A" r="12"/><path d="m6.133 9.083 12.834 10.1a1.667 1.667 0 0 0 2.066 0l12.834-10.1m-.534 22.583H6.667A1.667 1.667 0 0 1 5 30V10a1.667 1.667 0 0 1 1.667-1.667h26.666A1.666 1.666 0 0 1 35 10v20a1.667 1.667 0 0 1-1.667 1.666Z" stroke="#1F253B" stroke-width="2" stroke-linecap="round" stroke-linejoin="round"/></svg><view id="gantt-chart" viewBox="279 206 24 24"/><svg width="24" height="24" fill="none" viewBox="0 0 24 24" x="279" y="206" xmlns="http://www.w3.org/2000/svg"><g stroke="#4A526F" stroke-width="2" stroke-linecap="round" stroke-linejoin="round"><path d="M19 3H5a2 2 0 0 0-2 2v14a2 2 0 0 0 2 2h14a2 2 0 0 0 2-2V5a2 2 0 0 0-2-2ZM9 8h7M8 12h6M11 16h5"/></g></svg><view id="hand_heart_bg_blue" viewBox="99 0 78 78"/><svg width="78" height="78" fill="none" viewBox="0 0 78 78" x="99" xmlns="http://www.w3.org/2000/svg"><rect width="78" height="78" rx="39" fill="#EAEEFA"/><rect x="7" y="7" width="64" height="64" rx="32" fill="#B4C0ED"/><path d="M37.254 22.745c2.477-2.327 6.492-2.327 8.97 0l.99.931.992-.93c2.476-2.328 6.491-2.328 8.968 0 2.478 2.326 2.478 6.098 0 8.425l-8.944 8.402a1.505 1.505 0 0 1-2.031 0l-8.945-8.402c-2.478-2.327-2.478-6.1 0-8.426ZM57.687 47.776a2.308 2.308 0 0 0-2.994-.516l-6.306 3.844-10.896-3.283h5.817c1.217 0 2.203-1.006 2.203-2.247 0-.851-.472-1.63-1.218-2.01l-4.352-2.22a18.675 18.675 0 0 0-14.848-.935l-.563.203v10.161l19.731 5.861a6.725 6.725 0 0 0 5.451-.727l7.391-4.556c1.228-.757 1.505-2.453.584-3.575ZM22.225 38.215h-3.892v14.563h3.892c.736 0 1.333-.597 1.333-1.333V39.548c0-.736-.597-1.333-1.333-1.333Z" fill="#FBFBFB"/></svg><view id="heart" viewBox="140 311 32 32"/><svg width="32" height="32" fill="none" viewBox="0 0 32 32" x="140" y="311" xmlns="http://www.w3.org/2000/svg"><path d="M10.761 8.09c-1.764-.001-3.397.562-4.581 1.67-1.184 1.107-1.898 2.755-1.898 4.808 0 2.155 1.516 4.158 3.569 6.124 2.053 1.967 4.694 3.908 7.111 5.923a.418.418 0 0 0 .507 0c2.416-2.014 5.052-3.961 7.11-5.922 2.06-1.961 3.594-3.947 3.595-6.125 0-2.076-.74-3.706-1.924-4.809-1.184-1.102-2.793-1.67-4.555-1.67-1.813 0-3.345 1.144-4.48 2.303-1.13-1.153-2.645-2.303-4.454-2.303Z" fill="#7D8BBD"/></svg><view id="heart_bg_red" viewBox="177 78 65 64"/><svg width="65" height="64" fill="none" viewBox="0 0 65 64" x="177" y="78" xmlns="http://www.w3.org/2000/svg"><g clip-path="url(#apa)"><circle cx="16.5" cy="26" fill="#F9605A" r="16"/><g clip-path="url(#apb)" fill="#1F253B"><path d="M39.638 45.063a.783.783 0 0 1-.23-1.532c2.352-.724 4.524-2.072 6.46-4.006 3.17-3.171 4.779-7.058 4.779-11.551 0-.917-.06-1.807-.175-2.658-.586.412-1.244.89-1.965 1.431a.782.782 0 0 1-.95-.007 221.549 221.549 0 0 0-2.907-2.233c-1.032-.792-1.91-1.644-2.624-2.541a19.706 19.706 0 0 1-1.105-1.457c-.014-.021-.028-.043-.04-.065a6.52 6.52 0 0 1-.708-1.956 5.41 5.41 0 0 1 .19-2.99c.32-.877.884-1.67 1.68-2.359.228-.24.506-.449.827-.621.203-.112.445-.203.73-.272a3.683 3.683 0 0 1 1.654-.158c.598.009 1.155.157 1.656.439.47.251.892.554 1.248.893a5.15 5.15 0 0 1 1.647-1.067c.586-.25 1.25-.342 1.958-.265a3.798 3.798 0 0 1 1.985.587c.6.392 1.11.892 1.533 1.493.608.893.934 1.856.975 2.87.058.899-.144 1.857-.602 2.828a5.23 5.23 0 0 1-1.208 1.973c-.395.464-.882.988-1.417 1.522-.298.268-.664.573-1.13.942.209 1.16.316 2.393.316 3.67 0 4.924-1.763 9.183-5.238 12.658-2.117 2.117-4.508 3.596-7.106 4.395a.756.756 0 0 1-.233.037Zm2.599-25.4c.276.404.614.848 1.004 1.318a13.43 13.43 0 0 0 2.352 2.278c.413.305 1.24.94 2.454 1.88a59.263 59.263 0 0 1 2.535-1.792c.6-.469 1.06-.846 1.368-1.12.475-.477.936-.971 1.336-1.44.439-.455.721-.92.895-1.454.01-.033.024-.065.038-.097.357-.742.516-1.454.472-2.116-.03-.746-.259-1.413-.7-2.061a4.029 4.029 0 0 0-1.087-1.065 2.207 2.207 0 0 0-1.188-.34.68.68 0 0 1-.093-.006c-.454-.055-.855-.006-1.217.15-.454.185-.846.44-1.18.766a2.774 2.774 0 0 1-.3.302c-.03.039-.053.07-.07.097a.782.782 0 0 1-1.359.125 4.965 4.965 0 0 0-.306-.418 4.045 4.045 0 0 0-1.036-.77 1.893 1.893 0 0 0-.96-.247.749.749 0 0 1-.12-.01 2.12 2.12 0 0 0-1.013.1.768.768 0 0 1-.074.02c-.151.034-.28.08-.37.13-.192.102-.34.214-.453.337a.879.879 0 0 1-.07.07c-.607.516-1.031 1.1-1.26 1.732-.248.683-.289 1.387-.126 2.154.09.5.266.99.528 1.477ZM23.099 53.799a.787.787 0 0 1-.465-.152 2195.048 2195.048 0 0 0-5.32-3.912c-1.947-1.484-3.607-3.054-4.942-4.673-.872-1.032-1.567-2.004-2.06-2.88-.663-1.195-1.12-2.375-1.361-3.508-.377-1.977-.26-3.802.344-5.443.557-1.635 1.58-3.125 3.033-4.41a.67.67 0 0 1 .056-.046 10.932 10.932 0 0 1 2.614-1.431.858.858 0 0 1 .076-.025 8.78 8.78 0 0 1 1.337-.246c.182-4.556 1.899-8.542 5.108-11.855 3.563-3.453 7.853-5.195 12.772-5.195 1.552 0 3.037.175 4.416.52a.782.782 0 1 1-.38 1.518 16.636 16.636 0 0 0-4.035-.472c-4.498 0-8.423 1.593-11.664 4.736-2.891 2.984-4.457 6.587-4.647 10.706.02 0 .039.002.059.004a9.044 9.044 0 0 1 2.947.831 6.656 6.656 0 0 1 2.505 2.021c.015.023.06.08.174.221.209-.268.327-.391.416-.467a8.6 8.6 0 0 1 3.184-2.065 7.097 7.097 0 0 1 3.386-.54c1.25.116 2.385.476 3.389 1.073a9.23 9.23 0 0 1 2.751 2.688c1.103 1.626 1.701 3.351 1.776 5.126.093 1.723-.296 3.489-1.155 5.241-.45 1.253-1.15 2.438-2.086 3.52-.249.285-.53.6-.845.95a18.888 18.888 0 0 1-1.99 1.912c-1.835 1.774-4.866 3.843-9.012 6.153a.767.767 0 0 1-.381.1Zm-9.761-23.782c-1.232 1.098-2.097 2.356-2.567 3.738-.512 1.388-.606 2.933-.287 4.61.206.966.61 1.999 1.194 3.055.443.785 1.081 1.675 1.897 2.64 1.264 1.535 2.836 3.02 4.676 4.422 1.152.843 2.79 2.047 4.905 3.606 3.816-2.151 6.596-4.062 8.267-5.684.014-.014.029-.028.044-.04a17.228 17.228 0 0 0 1.848-1.772c.313-.348.589-.658.83-.933.816-.944 1.424-1.974 1.808-3.059a1.43 1.43 0 0 1 .035-.086c.753-1.522 1.096-3.04 1.016-4.515-.063-1.489-.57-2.94-1.51-4.324a7.668 7.668 0 0 0-2.273-2.23c-.784-.466-1.7-.754-2.708-.847a5.553 5.553 0 0 0-2.672.435 7.11 7.11 0 0 0-2.67 1.733.788.788 0 0 1-.07.063c.001 0-.08.078-.306.381a.792.792 0 0 1-.055.064c-.283.303-.378.439-.405.483a.784.784 0 0 1-1.26.088c-.59-.697-.785-.94-.871-1.063a5.119 5.119 0 0 0-1.89-1.5 7.48 7.48 0 0 0-2.414-.686 5.955 5.955 0 0 0-.723.005h-.007a6.724 6.724 0 0 0-1.66.225 9.312 9.312 0 0 0-2.172 1.191Z"/></g></g><defs><clipPath id="apa"><path fill="#fff" transform="translate(.5)" d="M0 0h64v64H0z"/></clipPath><clipPath id="apb"><path fill="#fff" transform="translate(8.5 10)" d="M0 0h48v43.826H0z"/></clipPath></defs></svg><view id="heart_red" viewBox="0 0 99 77"/><svg width="99" height="77" fill="none" viewBox="0 0 99 77" xmlns="http://www.w3.org/2000/svg"><path d="M7.955 7.086c10.268-9.448 26.915-9.448 37.188 0l4.11 3.78 4.108-3.78c10.269-9.448 26.916-9.448 37.184 0 10.273 9.444 10.273 24.758 0 34.204L53.462 75.4c-2.319 2.133-6.106 2.133-8.42 0L7.955 41.292c-10.273-9.446-10.273-24.762 0-34.206Z" fill="#F9605A"/></svg><view id="hearts_bg_blue" viewBox="177 0 78 78"/><svg width="78" height="78" fill="none" viewBox="0 0 78 78" x="177" xmlns="http://www.w3.org/2000/svg"><rect width="78" height="78" rx="39" fill="#EAEEFA"/><rect x="7" y="7" width="64" height="64" rx="32" fill="#B4C0ED"/><path d="M20.269 37.597c2.58-2.546 6.763-2.546 9.344 0l1.032 1.018 1.032-1.018c2.58-2.546 6.763-2.546 9.343 0a6.453 6.453 0 0 1 0 9.216l-9.317 9.19a1.514 1.514 0 0 1-2.116 0l-9.318-9.19a6.453 6.453 0 0 1 0-9.216Z" fill="#FBFBFB"/><path d="M42.786 48.83a9.232 9.232 0 0 0 2.765-6.626 9.237 9.237 0 0 0-2.765-6.624 9.113 9.113 0 0 0-6.437-2.645 9.095 9.095 0 0 0-5.704 1.994 9.101 9.101 0 0 0-5.705-1.994 9.11 9.11 0 0 0-4.351 1.1 10.354 10.354 0 0 1 2.926-9.306c4.14-4.087 10.857-4.087 14.998 0l1.658 1.634 1.658-1.634c4.14-4.087 10.856-4.087 14.998 0a10.36 10.36 0 0 1 0 14.794L41.869 54.277a2.431 2.431 0 0 1-3.397 0l-.605-.596 4.92-4.852Z" fill="#FBFBFB"/></svg><view id="home" viewBox="356 280 16 17"/><svg width="16" height="17" fill="none" viewBox="0 0 16 17" x="356" y="280" xmlns="http://www.w3.org/2000/svg"><g stroke="#1F253B" stroke-width="1.5" stroke-linecap="round" stroke-linejoin="round"><path d="m2 6.5 6-4.667L14 6.5v7.333a1.333 1.333 0 0 1-1.333 1.333H3.333A1.333 1.333 0 0 1 2 13.833V6.5Z"/><path d="M6 15.167V8.5h4v6.667"/></g></svg><view id="incognito_bg_blue" viewBox="0 155 78 78"/><svg width="78" height="78" fill="none" viewBox="0 0 78 78" y="155" xmlns="http://www.w3.org/2000/svg"><rect width="78" height="78" rx="39" fill="#EAEEFA"/><rect x="7" y="7" width="64" height="64" rx="32" fill="#B4C0ED"/><path fill-rule="evenodd" clip-rule="evenodd" d="M26.54 25.92c.427-2.887 3.08-4.357 5.738-3.173l3.274 1.46a8.436 8.436 0 0 0 6.897 0l3.274-1.46c2.656-1.183 5.311.288 5.738 3.173l.869 5.882H25.67l.87-5.882Zm-1.241 8.399h27.403l.558 3.774h6.446c.347 0 .628.282.628.63v1.257c0 .348-.281.63-.628.63H18.294a.628.628 0 0 1-.627-.63v-1.258c0-.347.28-.629.627-.629h6.447l.558-3.774Zm6.172 9.436a6.27 6.27 0 0 1 5.439 3.151 3.74 3.74 0 0 1 2.09-.635 3.74 3.74 0 0 1 2.091.635 6.27 6.27 0 0 1 10.459-.635h3.137c.346 0 .627.282.627.629v1.258c0 .348-.28.63-.627.63h-2.008c.082.406.125.827.125 1.257 0 3.474-2.809 6.29-6.274 6.29-3.466 0-6.275-2.816-6.275-6.29 0-.695-.562-1.258-1.255-1.258-.693 0-1.255.563-1.255 1.258 0 3.474-2.809 6.29-6.274 6.29s-6.275-2.816-6.275-6.29c0-.43.044-.851.126-1.258h-2.008a.628.628 0 0 1-.627-.629V46.9c0-.347.28-.63.627-.63h3.137a6.26 6.26 0 0 1 5.02-2.515Z" fill="#FBFBFB"/></svg><view id="info" viewBox="99 78 48 48"/><svg width="48" height="48" fill="none" viewBox="0 0 48 48" x="99" y="78" xmlns="http://www.w3.org/2000/svg"><g stroke="#7D8BBD" stroke-width="2" stroke-linecap="round" stroke-linejoin="round"><path d="M24 44c11.046 0 20-8.954 20-20S35.046 4 24 4 4 12.954 4 24s8.954 20 20 20ZM24 32v-8M24 16h.02"/></g></svg><view id="left_slider" viewBox="331 0 41 40"/><svg width="41" height="40" fill="none" viewBox="0 0 41 40" x="331" xmlns="http://www.w3.org/2000/svg"><path d="m25.5 30-10-10 10-10" stroke="#1F253B" stroke-width="2" stroke-linecap="round" stroke-linejoin="round"/></svg><view id="log-in" viewBox="303 206 24 24"/><svg width="24" height="24" fill="none" viewBox="0 0 24 24" x="303" y="206" xmlns="http://www.w3.org/2000/svg"><g stroke="#4A526F" stroke-width="2" stroke-linecap="round" stroke-linejoin="round"><path d="M15 3h4a2 2 0 0 1 2 2v14a2 2 0 0 1-2 2h-4M10 17l5-5-5-5M15 12H3"/></g></svg><view id="map" viewBox="78 96 18 18"/><svg width="18" height="18" fill="none" viewBox="0 0 18 18" x="78" y="96" xmlns="http://www.w3.org/2000/svg"><g stroke="#666A71" stroke-width="2" stroke-linecap="round" stroke-linejoin="round"><path d="m2.25 4.5 4.5-2.25 4.5 2.25 4.5-2.25V13.5l-4.5 2.25-4.5-2.25-4.5 2.25V4.5ZM6.75 2.25V13.5M11.25 4.5v11.25"/></g></svg><view id="map-pin" viewBox="78 114 18 18"/><svg width="18" height="18" fill="none" viewBox="0 0 18 18" x="78" y="114" xmlns="http://www.w3.org/2000/svg"><g stroke="#6B769D" stroke-width="2" stroke-linecap="round" stroke-linejoin="round"><path d="M15 7.5c0 4.5-6 9-6 9s-6-4.5-6-9a6 6 0 1 1 12 0Z"/><path d="M9 9.75a2.25 2.25 0 1 0 0-4.5 2.25 2.25 0 0 0 0 4.5Z"/></g></svg><view id="map-pin_bg_red" viewBox="331 160 40 40"/><svg width="40" height="40" fill="none" viewBox="0 0 40 40" x="331" y="160" xmlns="http://www.w3.org/2000/svg"><circle cx="12" cy="12" fill="#F9605A" r="12"/><path d="M26.55 31.066c.079.19.119.395.117.6C26.667 33.5 23.684 35 20 35c-3.683 0-6.666-1.5-6.666-3.334-.002-.205.037-.41.116-.6M28.333 13.333a8.333 8.333 0 0 0-16.666 0c0 6.667 8.333 15 8.333 15s8.333-8.333 8.333-15Z" stroke="#1F253B" stroke-width="2" stroke-linecap="round" stroke-linejoin="round"/><path d="M22.357 11.046c.737.758 1.036 1.47.976 2.525-.1 1.774-1.558 3.042-3.333 3.096-.976.03-1.632-.18-2.357-.834-.726-.654-.936-1.285-.977-2.262-.044-1.07.352-1.855.977-2.525A3.225 3.225 0 0 1 20 10c.884 0 1.655.324 2.357 1.046Z" stroke="#1F253B" stroke-width="2" stroke-linecap="round" stroke-linejoin="round"/></svg><view id="menu" viewBox="172 311 32 32"/><svg width="32" height="32" fill="none" viewBox="0 0 32 32" x="172" y="311" xmlns="http://www.w3.org/2000/svg"><g stroke="#000" stroke-width="2" stroke-linecap="round" stroke-linejoin="round"><path d="M4 8h24M4 16h24M4 24h24"/></g></svg><view id="message" viewBox="147 78 24 24"/><svg width="24" height="24" fill="none" viewBox="0 0 24 24" x="147" y="78" xmlns="http://www.w3.org/2000/svg"><path d="M21 15a2 2 0 0 1-2 2H7l-4 4V5a2 2 0 0 1 2-2h14a2 2 0 0 1 2 2v10Z" stroke="#4A526F" stroke-width="2" stroke-linecap="round" stroke-linejoin="round"/></svg><view id="minus" viewBox="234 233 48 48"/><svg width="48" height="48" fill="none" viewBox="0 0 48 48" x="234" y="233" xmlns="http://www.w3.org/2000/svg"><path d="M10 24h28" stroke="#7D8BBD" stroke-width="2" stroke-linecap="round" stroke-linejoin="round"/></svg><view id="no" viewBox="36 311 36 36"/><svg width="36" height="36" fill="none" viewBox="0 0 36 36" x="36" y="311" xmlns="http://www.w3.org/2000/svg"><path d="M7.5 18h21" stroke="#AAB0BD" stroke-width="2" stroke-linecap="round" stroke-linejoin="round"/></svg><view id="person_heart_bg_blue" viewBox="78 155 76 78"/><svg width="76" height="78" fill="none" viewBox="0 0 76 78" x="78" y="155" xmlns="http://www.w3.org/2000/svg"><rect x=".268" width="75.465" height="78" rx="37.733" fill="#EAEEFA"/><rect x="7.268" y="7" width="64" height="64" rx="32" fill="#B4C0ED"/><path d="M35.223 37.315a3.76 3.76 0 0 1 3.756-3.756 3.76 3.76 0 0 1 3.755 3.756 3.76 3.76 0 0 1-3.755 3.756 3.76 3.76 0 0 1-3.756-3.756ZM38.979 42.227c4.265 0 7.76 3.32 8.06 7.511h-16.12c.299-4.19 3.795-7.511 8.06-7.511Z" fill="#FBFBFB"/><path fill-rule="evenodd" clip-rule="evenodd" d="M41.61 41.455a4.908 4.908 0 0 0 2.28-4.14 4.917 4.917 0 0 0-4.911-4.912 4.917 4.917 0 0 0-4.911 4.912c0 1.74.911 3.267 2.279 4.14-3.819 1.136-6.613 4.678-6.613 8.861 0 .32.259.578.578.578h17.333c.32 0 .578-.258.578-.578 0-4.183-2.794-7.725-6.612-8.861Zm-2.631-7.896a3.76 3.76 0 0 0-3.756 3.756 3.76 3.76 0 0 0 3.756 3.756 3.76 3.76 0 0 0 3.755-3.756 3.76 3.76 0 0 0-3.755-3.756Zm8.06 16.18c-.3-4.192-3.795-7.512-8.06-7.512-4.265 0-7.761 3.32-8.06 7.511h16.12Z" fill="#FBFBFB"/><path d="M42.518 58.754a.556.556 0 1 0 0-1.111v1.111Zm-7.313-1.111a.556.556 0 1 0 0 1.111v-1.111Zm9.063-35.082a.556.556 0 1 0 0-1.11v1.11Zm8.555 11.937a.556.556 0 0 0-1.11 0h1.11ZM28.49 61.561h9.695v-1.11H28.49v1.11Zm9.695 0h11.86v-1.11h-11.86v1.11Zm2.166-1.11h-2.166v1.11h2.166v-1.11ZM25.712 24.227V55.55h1.111V24.228h-1.11Zm0 31.322v3.233h1.111V55.55h-1.11Zm27.111 3.233V55.55h-1.11v3.233h1.11Zm-26.555-2.677h26v-1.111h-26v1.11Zm16.25 1.537h-7.313v1.111h7.313v-1.111Zm1.75-36.193H28.49v1.111h15.778v-1.11Zm8.555 34.1V34.498h-1.11V55.55h1.11Zm-26-31.322c0-.92.747-1.667 1.667-1.667v-1.11a2.778 2.778 0 0 0-2.778 2.777h1.111Zm23.222 37.333a2.778 2.778 0 0 0 2.778-2.778h-1.11c0 .921-.747 1.667-1.668 1.667v1.111Zm-21.555-1.11c-.92 0-1.667-.747-1.667-1.668h-1.11a2.778 2.778 0 0 0 2.777 2.778v-1.11ZM47.211 22.01c1.257-1.35 3.296-1.35 4.554 0l.503.54.503-.54c1.257-1.35 3.296-1.35 4.553 0 1.258 1.35 1.258 3.537 0 4.887l-4.54 4.873a.696.696 0 0 1-1.032 0l-4.541-4.873c-1.258-1.35-1.258-3.537 0-4.887Z" fill="#FBFBFB"/></svg><view id="person_star_bg_blue" viewBox="154 155 76 78"/><svg width="76" height="78" fill="none" viewBox="0 0 76 78" x="154" y="155" xmlns="http://www.w3.org/2000/svg"><rect x=".268" width="75.465" height="78" rx="37.733" fill="#EAEEFA"/><rect x="7.268" y="7" width="64" height="64" rx="32" fill="#B4C0ED"/><path d="M18.372 36.757a.75.75 0 0 0 .849-.637A20.263 20.263 0 0 1 46.5 20.082a.75.75 0 1 0 .533-1.404A21.769 21.769 0 0 0 17.735 35.91a.75.75 0 0 0 .637.848Zm41.744-3.972a.752.752 0 0 0-1.194-.368.752.752 0 0 0-.243.798 20.212 20.212 0 0 1-4.775 19.741 21.658 21.658 0 0 0-10.26-5.256 9.75 9.75 0 1 0-8.754 0 21.658 21.658 0 0 0-10.256 5.253 20.116 20.116 0 0 1-5.413-11.073.75.75 0 0 0-1.486.21 21.753 21.753 0 1 0 42.381-9.305ZM31.018 39a8.25 8.25 0 1 1 8.25 8.25 8.26 8.26 0 0 1-8.25-8.25Zm-5.3 14.994a20.128 20.128 0 0 1 27.106.005 20.109 20.109 0 0 1-27.106-.005Z" fill="#FBFBFB"/><path d="M31.018 39a8.25 8.25 0 1 1 8.25 8.25 8.26 8.26 0 0 1-8.25-8.25Z" fill="#FBFBFB"/><path d="M25.718 53.994a20.128 20.128 0 0 1 27.106.005 20.109 20.109 0 0 1-27.106-.005ZM46.866 22.311a.75.75 0 0 0 .19.77l2.89 2.814-.683 3.977a.75.75 0 0 0 1.087.792l3.573-1.878 3.572 1.878a.75.75 0 0 0 1.088-.792l-.682-3.977 2.89-2.815a.75.75 0 0 0-.416-1.28l-3.993-.58-1.786-3.62a.784.784 0 0 0-1.345 0l-1.786 3.62-3.994.58a.748.748 0 0 0-.605.511Zm5.204.337a.752.752 0 0 0 .565-.41l1.288-2.61 1.289 2.61a.752.752 0 0 0 .564.41l2.88.418-2.084 2.03a.752.752 0 0 0-.216.665l.492 2.868-2.576-1.354a.752.752 0 0 0-.697 0l-2.577 1.354.492-2.868a.752.752 0 0 0-.215-.665l-2.084-2.03 2.88-.418Z" fill="#FBFBFB"/><path d="M52.07 22.648a.752.752 0 0 0 .565-.41l1.288-2.61 1.289 2.61a.752.752 0 0 0 .564.41l2.88.418-2.084 2.03a.752.752 0 0 0-.216.665l.492 2.868-2.576-1.354a.752.752 0 0 0-.697 0l-2.577 1.354.492-2.868a.752.752 0 0 0-.215-.665l-2.084-2.03 2.88-.418ZM18.268 39.75a.75.75 0 1 0 0-1.5.75.75 0 0 0 0 1.5Z" fill="#FBFBFB"/></svg><view id="persons_bg_blue" viewBox="255 0 76 78"/><svg width="76" height="78" fill="none" viewBox="0 0 76 78" x="255" xmlns="http://www.w3.org/2000/svg"><rect x=".268" width="75.465" height="78" rx="37.733" fill="#EAEEFA"/><rect x="7.268" y="7" width="64" height="64" rx="32" fill="#B4C0ED"/><path d="M21.267 39.599h18a.6.6 0 0 0 .6-.6c0-4.344-2.9-8.022-6.866-9.202a5.096 5.096 0 0 0 2.367-4.298c0-2.812-2.288-5.1-5.1-5.1a5.106 5.106 0 0 0-5.1 5.1c0 1.806.946 3.392 2.366 4.298-3.965 1.18-6.866 4.858-6.866 9.202a.6.6 0 0 0 .6.6Zm5.1-14.1c0-2.15 1.75-3.9 3.9-3.9s3.9 1.75 3.9 3.9-1.75 3.9-3.9 3.9-3.9-1.75-3.9-3.9Zm3.9 5.1c4.43 0 8.06 3.448 8.37 7.8h-16.74c.31-4.352 3.941-7.8 8.37-7.8Zm20.734 17.198a5.096 5.096 0 0 0 2.367-4.298c0-2.812-2.288-5.1-5.1-5.1a5.106 5.106 0 0 0-5.1 5.1c0 1.806.946 3.392 2.366 4.298-3.965 1.18-6.867 4.858-6.867 9.202a.6.6 0 0 0 .6.6h18a.6.6 0 0 0 .6-.6c0-4.344-2.9-8.022-6.866-9.202ZM44.368 43.5c0-2.15 1.75-3.9 3.9-3.9s3.9 1.75 3.9 3.9-1.75 3.9-3.9 3.9-3.9-1.75-3.9-3.9Zm3.9 5.1c4.429 0 8.06 3.448 8.37 7.8h-16.74c.31-4.352 3.94-7.8 8.37-7.8Zm9.564-21.907-.01-.035a.6.6 0 0 0-.046-.083l-.01-.02a.61.61 0 0 0-.075-.091l-5.89-5.889a.6.6 0 1 0-.848.849l4.866 4.865h-16.22a.6.6 0 1 0 0 1.2h16.22l-4.865 4.865a.6.6 0 1 0 .849.848l5.889-5.888a.591.591 0 0 0 .075-.092l.01-.019a.62.62 0 0 0 .045-.083c.005-.012.007-.024.01-.035a.587.587 0 0 0 .024-.315c-.005-.027-.015-.052-.024-.077ZM20.703 51.305l.01.035a.6.6 0 0 0 .046.083l.01.02a.61.61 0 0 0 .075.091l5.89 5.889a.598.598 0 0 0 .848 0 .6.6 0 0 0 0-.848l-4.865-4.866h16.218a.6.6 0 1 0 0-1.2H22.716l4.865-4.865a.6.6 0 1 0-.848-.848l-5.889 5.888a.591.591 0 0 0-.075.092l-.01.019a.62.62 0 0 0-.045.084c-.005.01-.007.023-.01.034a.587.587 0 0 0-.024.315c.005.027.014.052.023.077Z" fill="#FBFBFB"/><path d="M26.367 25.499c0-2.15 1.75-3.9 3.9-3.9s3.9 1.75 3.9 3.9-1.75 3.9-3.9 3.9-3.9-1.75-3.9-3.9ZM30.267 30.599c4.43 0 8.06 3.448 8.37 7.8h-16.74c.31-4.352 3.941-7.8 8.37-7.8ZM44.367 43.499c0-2.15 1.75-3.9 3.9-3.9s3.9 1.75 3.9 3.9-1.75 3.9-3.9 3.9-3.9-1.75-3.9-3.9ZM48.267 48.599c4.43 0 8.06 3.448 8.37 7.8h-16.74c.31-4.352 3.941-7.8 8.37-7.8Z" fill="#FBFBFB"/></svg><view id="plus" viewBox="282 233 48 48"/><svg width="48" height="48" fill="none" viewBox="0 0 48 48" x="282" y="233" xmlns="http://www.w3.org/2000/svg"><g stroke="#7D8BBD" stroke-width="2" stroke-linecap="round" stroke-linejoin="round"><path d="M10 24h28M24 10v28"/></g></svg><view id="question_bg_blue" viewBox="0 233 78 78"/><svg width="78" height="78" fill="none" viewBox="0 0 78 78" y="233" xmlns="http://www.w3.org/2000/svg"><rect width="78" height="78" rx="39" fill="#B4C0ED" fill-opacity=".25"/><g clip-path="url(#bha)"><path d="M39 7a32 32 0 1 0 0 63.999A32 32 0 0 0 39 7Zm0 53.74a3.879 3.879 0 1 1 0-7.757 3.879 3.879 0 0 1 0 7.758Zm5.818-16.795a3.462 3.462 0 0 0-1.94 3.2v2.008a.97.97 0 0 1-.969.97h-5.818a.97.97 0 0 1-.97-.97v-2.008a11.22 11.22 0 0 1 6.449-10.259 6.197 6.197 0 0 0 3.636-5.905 6.303 6.303 0 0 0-5.964-5.954 6.195 6.195 0 0 0-6.448 6.215.97.97 0 0 1-.97.97h-5.818a.97.97 0 0 1-.97-.97 13.964 13.964 0 0 1 23.036-10.627 13.973 13.973 0 0 1-3.254 23.33Z" fill="#B4C0ED"/><path d="M44.818 43.945a3.462 3.462 0 0 0-1.94 3.2v2.008a.97.97 0 0 1-.969.97h-5.818a.97.97 0 0 1-.97-.97v-2.008a11.22 11.22 0 0 1 6.449-10.259 6.197 6.197 0 0 0 3.636-5.905 6.303 6.303 0 0 0-5.964-5.954 6.195 6.195 0 0 0-6.448 6.215.97.97 0 0 1-.97.97h-5.818a.97.97 0 0 1-.97-.97 13.964 13.964 0 0 1 23.036-10.627 13.973 13.973 0 0 1-3.254 23.33ZM39 60.74a3.879 3.879 0 1 1 0-7.757 3.879 3.879 0 0 1 0 7.758Z" fill="#FBFBFB"/></g><defs><clipPath id="bha"><path fill="#fff" transform="translate(7 7)" d="M0 0h64v64H0z"/></clipPath></defs></svg><view id="right" viewBox="78 77 18 19"/><svg width="18" height="19" fill="none" viewBox="0 0 18 19" x="78" y="77" xmlns="http://www.w3.org/2000/svg"><path d="m6.75 14.45 4.5-4.5-4.5-4.5" stroke="#6B769D" stroke-width="2" stroke-linecap="round" stroke-linejoin="round"/></svg><view id="right_slider" viewBox="331 40 41 40"/><svg width="41" height="40" fill="none" viewBox="0 0 41 40" x="331" y="40" xmlns="http://www.w3.org/2000/svg"><path d="m15.5 30 10-10-10-10" stroke="#1F253B" stroke-width="2" stroke-linecap="round" stroke-linejoin="round" opacity=".8"/></svg><view id="rings" viewBox="204 311 32 32"/><svg width="32" height="32" fill="none" viewBox="0 0 32 32" x="204" y="311" xmlns="http://www.w3.org/2000/svg"><path fill-rule="evenodd" clip-rule="evenodd" d="M7.2 13.251a6.056 6.056 0 0 1 6.05-6.05 6.055 6.055 0 0 1 5.386 3.307 8.249 8.249 0 0 0-7.926 6.417 4.436 4.436 0 0 0 2.091.753 6.059 6.059 0 0 1 4.876-4.876 6.049 6.049 0 0 1 1.073-.1c.178 0 .35.021.525.039a6.5 6.5 0 0 1 .025.51 6.056 6.056 0 0 1-6.05 6.05 6.056 6.056 0 0 1-6.05-6.05Zm15.817-1.55c.08.505.133 1.021.133 1.55 0 .43-.036.848-.09 1.262a6.031 6.031 0 0 1 1.74 4.238 6.056 6.056 0 0 1-6.05 6.05 6.032 6.032 0 0 1-4.238-1.74 6.087 6.087 0 0 1-1.138-1.567 8.246 8.246 0 0 0 3.582-15.615 8.25 8.25 0 0 0-9.874 12.848 8.25 8.25 0 0 0 3.793 2.422 8.167 8.167 0 0 0 3.826 4.786A8.236 8.236 0 0 0 18.75 27 8.25 8.25 0 0 0 27 18.75a8.235 8.235 0 0 0-3.983-7.05Z" fill="#7D8BBD"/></svg><view id="rings_bg_blue" viewBox="78 233 78 78"/><svg width="78" height="78" fill="none" viewBox="0 0 78 78" x="78" y="233" xmlns="http://www.w3.org/2000/svg"><rect width="78" height="78" rx="39" fill="#EAEEFA"/><g clip-path="url(#bla)"><path d="M31.213 55.703a12.922 12.922 0 0 1-7.155-2.141 12.78 12.78 0 0 1-4.745-5.73 12.67 12.67 0 0 1-.732-7.383 12.73 12.73 0 0 1 3.53-6.539 12.635 12.635 0 0 1 4.747-2.982 7.832 7.832 0 0 1-2.08-3.088 4.766 4.766 0 0 1 .249-3.882 3.979 3.979 0 0 1 1.178-1.37 4.016 4.016 0 0 1 1.666-.712 5.365 5.365 0 0 1 3.396.74 5.365 5.365 0 0 1 3.395-.74 3.89 3.89 0 0 1 1.602.656c.478.337.872.776 1.154 1.285a4.88 4.88 0 0 1 .32 4.023 7.48 7.48 0 0 1-2.133 3.088c.661.231 1.303.514 1.92.847a14.563 14.563 0 0 0-2.49 2.63 9.448 9.448 0 0 0-8.077.233 9.372 9.372 0 0 0-3.177 2.638 9.25 9.25 0 0 0-1.658 7.85 9.29 9.29 0 0 0 1.841 3.684 9.378 9.378 0 0 0 3.26 2.537c1.263.594 2.645.901 4.043.898a9.734 9.734 0 0 0 3.698-.742c.71.975 1.54 1.859 2.47 2.63a12.66 12.66 0 0 1-6.222 1.57Z" fill="#FDFEFF"/><path d="M46.858 55.703A12.719 12.719 0 0 1 39 53.056a12.185 12.185 0 0 1-2.471-2.488 12.625 12.625 0 0 1-2.558-7.614c0-2.746.898-5.418 2.558-7.614A12.402 12.402 0 0 1 39 32.887a12.738 12.738 0 0 1 7.733-2.594c3.395 0 6.65 1.338 9.051 3.721a12.658 12.658 0 0 1 3.75 8.984c0 3.37-1.35 6.601-3.75 8.984a12.849 12.849 0 0 1-9.05 3.721h.124Z" fill="#FDFEFF"/><path d="M39 7a32.17 32.17 0 0 0-17.778 5.353A31.816 31.816 0 0 0 9.436 26.608 31.544 31.544 0 0 0 7.615 44.96a31.691 31.691 0 0 0 8.758 16.263 32.075 32.075 0 0 0 16.384 8.693 32.222 32.222 0 0 0 18.489-1.808A31.95 31.95 0 0 0 65.607 56.41 31.596 31.596 0 0 0 71 38.764a31.644 31.644 0 0 0-9.373-22.46A32.121 32.121 0 0 0 39 7Zm-7.787 48.703a12.922 12.922 0 0 1-7.155-2.141 12.78 12.78 0 0 1-4.745-5.73 12.67 12.67 0 0 1-.732-7.383 12.73 12.73 0 0 1 3.53-6.539 12.635 12.635 0 0 1 4.747-2.982 7.832 7.832 0 0 1-2.08-3.088 4.766 4.766 0 0 1 .249-3.882 3.979 3.979 0 0 1 1.178-1.37 4.016 4.016 0 0 1 1.666-.712 5.365 5.365 0 0 1 3.396.74 5.365 5.365 0 0 1 3.395-.74 3.89 3.89 0 0 1 1.602.656c.478.337.872.776 1.154 1.285a4.88 4.88 0 0 1 .32 4.023 7.48 7.48 0 0 1-2.133 3.088c.661.231 1.303.514 1.92.847a14.563 14.563 0 0 0-2.49 2.63 9.448 9.448 0 0 0-8.077.233 9.372 9.372 0 0 0-3.177 2.638 9.25 9.25 0 0 0-1.658 7.85 9.29 9.29 0 0 0 1.841 3.684 9.378 9.378 0 0 0 3.26 2.537c1.263.594 2.645.901 4.043.898a9.734 9.734 0 0 0 3.698-.742c.71.975 1.54 1.859 2.47 2.63a12.66 12.66 0 0 1-6.222 1.57Zm15.645 0A12.719 12.719 0 0 1 39 53.056a12.185 12.185 0 0 1-2.471-2.488 12.625 12.625 0 0 1-2.558-7.614c0-2.746.898-5.418 2.558-7.614A12.402 12.402 0 0 1 39 32.887a12.738 12.738 0 0 1 7.733-2.594c3.395 0 6.65 1.338 9.051 3.721a12.658 12.658 0 0 1 3.75 8.984c0 3.37-1.35 6.601-3.75 8.984a12.849 12.849 0 0 1-9.05 3.721h.124Z" fill="#B4C0ED"/><path d="M31.213 55.703a12.922 12.922 0 0 1-7.155-2.141 12.78 12.78 0 0 1-4.745-5.73 12.67 12.67 0 0 1-.732-7.383 12.73 12.73 0 0 1 3.53-6.539 12.635 12.635 0 0 1 4.747-2.982 7.832 7.832 0 0 1-2.08-3.088 4.766 4.766 0 0 1 .249-3.882 3.979 3.979 0 0 1 1.178-1.37 4.016 4.016 0 0 1 1.666-.712 5.365 5.365 0 0 1 3.396.74 5.365 5.365 0 0 1 3.395-.74 3.89 3.89 0 0 1 1.602.656c.478.337.872.776 1.154 1.285a4.88 4.88 0 0 1 .32 4.023 7.48 7.48 0 0 1-2.133 3.088c.661.231 1.303.514 1.92.847a14.563 14.563 0 0 0-2.49 2.63 9.448 9.448 0 0 0-8.077.233 9.372 9.372 0 0 0-3.177 2.638 9.25 9.25 0 0 0-1.658 7.85 9.29 9.29 0 0 0 1.841 3.684 9.378 9.378 0 0 0 3.26 2.537c1.263.594 2.645.901 4.043.898a9.734 9.734 0 0 0 3.698-.742c.71.975 1.54 1.859 2.47 2.63a12.66 12.66 0 0 1-6.222 1.57Z" fill="#F9FAFD"/><path d="M34.325 25.528c.87 1.765-1.885 3.67-3.13 4.412a7.616 7.616 0 0 1-3.217-3.212 1.944 1.944 0 0 1-.107-.6 1.28 1.28 0 0 1 .107-.53c.178-.317.355-.317.355-.317h.16c.6.091 1.16.348 1.618.741l.178.16c.083.057.172.104.267.14l.32.089c.217.035.44.035.657 0l.267-.036.267-.14.213-.142a3.106 3.106 0 0 1 1.778-.741.444.444 0 0 1 .267.176ZM46.858 34.05a8.935 8.935 0 0 0-5.102 1.571 9.19 9.19 0 0 0-2.49 2.541 8.916 8.916 0 0 0 0 9.6c.648 1 1.48 1.868 2.454 2.559a9.077 9.077 0 0 0 8.07 1.15 9.023 9.023 0 0 0 3.547-2.214 8.934 8.934 0 0 0 2.156-3.567 8.883 8.883 0 0 0-1.327-7.983 8.996 8.996 0 0 0-3.196-2.691 9.067 9.067 0 0 0-4.076-.965h-.036ZM42.68 48.698a6.907 6.907 0 0 1-2.453-3.176 9.583 9.583 0 0 0 .356-2.577 9.325 9.325 0 0 0-.338-2.54 6.89 6.89 0 0 1 2.489-3.142 12.699 12.699 0 0 1 0 11.435h-.054Z" fill="#B4C0ED"/></g><defs><clipPath id="bla"><path fill="#fff" transform="translate(7 7)" d="M0 0h64v64H0z"/></clipPath></defs></svg><view id="search" viewBox="147 102 24 24"/><svg width="24" height="24" fill="none" viewBox="0 0 24 24" x="147" y="102" xmlns="http://www.w3.org/2000/svg"><g stroke="#FBFBFB" stroke-width="2" stroke-linecap="round" stroke-linejoin="round"><path d="M11 19a8 8 0 1 0 0-16 8 8 0 0 0 0 16ZM21 21l-4.3-4.3"/></g></svg><view id="skype_bg_red" viewBox="331 200 40 40"/><svg width="40" height="40" fill="none" viewBox="0 0 40 40" x="331" y="200" xmlns="http://www.w3.org/2000/svg"><circle cx="12" cy="12" fill="#F9605A" r="12"/><path d="M24.317 15a3.333 3.333 0 0 0-2.884-1.667h-2.866a3.333 3.333 0 0 0 0 6.667h2.866a3.333 3.333 0 1 1 0 6.666h-2.866A3.334 3.334 0 0 1 15.683 25" stroke="#1F253B" stroke-width="2" stroke-linecap="round" stroke-linejoin="round"/><path d="M33.083 22.533c.169-.834.252-1.682.25-2.533A13.334 13.334 0 0 0 20 6.667c-.85-.002-1.7.082-2.533.25A7.4 7.4 0 0 0 12.5 5 7.517 7.517 0 0 0 5 12.5a7.4 7.4 0 0 0 1.917 5c-.166.823-.25 1.66-.25 2.5A13.333 13.333 0 0 0 20 33.333c.85.002 1.7-.082 2.533-.25a7.4 7.4 0 0 0 5 1.917A7.516 7.516 0 0 0 35 27.5a7.4 7.4 0 0 0-1.917-4.967Z" stroke="#1F253B" stroke-width="2" stroke-linecap="round" stroke-linejoin="round"/></svg><view id="up" viewBox="78 132 18 18"/><svg width="18" height="18" fill="none" viewBox="0 0 18 18" x="78" y="132" xmlns="http://www.w3.org/2000/svg"><path d="M4.5 11.25 9 6.75l4.5 4.5" stroke="#1F253B" stroke-width="2" stroke-linecap="round" stroke-linejoin="round"/></svg><view id="user" viewBox="236 311 32 32"/><svg width="32" height="32" fill="none" viewBox="0 0 32 32" x="236" y="311" xmlns="http://www.w3.org/2000/svg"><g clip-path="url(#bpa)"><path d="M20.15 19.747a7.5 7.5 0 1 0-8.3 0 12.027 12.027 0 0 0-5.668 4.356A1 1 0 0 0 7 25.678h18a1 1 0 0 0 .818-1.576 12.028 12.028 0 0 0-5.668-4.355Z" fill="#7D8BBD"/></g><defs><clipPath id="bpa"><path fill="#fff" d="M0 0h32v32H0z"/></clipPath></defs></svg><view id="user_bg_blue" viewBox="156 233 78 78"/><svg width="78" height="78" fill="none" viewBox="0 0 78 78" x="156" y="233" xmlns="http://www.w3.org/2000/svg"><path fill="#F5F5F5" d="M0 0h78v78H0z"/><g clip-path="url(#bra)"><path fill="#FBFBFB" d="M-100-7778h1440V5520H-100z"/><g clip-path="url(#brb)"><path d="M45.515 239.736c-135.695 118.86-378.168 7.765-484.557-113.548-44.455-51.169-102.681-137.761-58.915-214.56 36.05-63.249 138.043-53.437 194.468-82.859 141.751-69.885 74.219-328.892 253.01-314.712C186.466-474.45 211.82-290.449 178.19-72.499 162.814 43.884 128.201 171.393 45.515 239.736Z" fill="#F6F8FF" fill-opacity=".5"/><g style="mix-blend-mode:soft-light"><mask id="brc" style="mask-type:luminance" maskUnits="userSpaceOnUse" x="-256" y="-228" width="417" height="479"><path d="M74.26 35.882C-35.66 48.071 23.108-121.112-19.58-184.987c-40.76-59.054-135.335-61.306-155.626 23.461-8.338 37.969 14.107 73.97-4.288 114.814-15.079 28.678-47.878 40.969-65.876 69.998-37.008 63.219 30.834 144.273 77.62 172.363 37.127 19.138 72.537 3.18 110.368 13.83 55.641 11.906 99.013 67.282 154.336 27.116 20.817-14.226 40.731-38.445 53.199-63.456 30.565-69.172-7.187-143.708-75.902-137.257" fill="#fff"/></mask><g stroke="#FBFBFB" stroke-width="5.36" stroke-miterlimit="10" mask="url(#brc)"><path d="M159.287 587.751 77.071-149.258M130.119 560.755 47.894-176.242M100.945 533.751 18.729-203.246M71.769 506.743l-82.216-736.997M42.603 479.739l-82.215-736.997M13.428 452.736l-82.216-736.998"/></g></g><g stroke="#C2C8DD" stroke-miterlimit="10"><path opacity=".5" d="M-161.795 1775.93c78.84-48.66 159.196-108.4 198.894-199.17 51.992-118.95 18.856-260.99-46.447-363.36-65.278-102.41-158.38-176.55-240.837-261.511-82.456-84.963-158.078-189.382-171.515-317.214-18.623-177.229 85.667-352.401 87.62-532.221 1.615-149.914-74.85-292.619-191.463-357.155"/><path opacity=".5" d="M-203.795 1775.93c78.84-48.66 159.196-108.4 198.894-199.17 51.992-118.95 18.856-260.99-46.447-363.36-65.278-102.41-158.38-176.55-240.837-261.511-82.456-84.963-158.078-189.383-171.515-317.214-18.623-177.23 85.667-352.401 87.62-532.222 1.615-149.913-74.85-292.618-191.463-357.155"/><path opacity=".5" d="M-243.795 1775.93c78.84-48.66 159.196-108.4 198.894-199.17 51.992-118.95 18.856-260.99-46.447-363.36-65.278-102.41-158.38-176.55-240.837-261.511-82.456-84.963-158.078-189.382-171.515-317.214-18.623-177.229 85.667-352.401 87.62-532.221 1.615-149.914-74.85-292.619-191.463-357.155"/></g></g><rect width="78" height="78" rx="39" fill="#EAEEFA"/><path d="M39 7C21.35 7 7 21.35 7 39c0 17.718 14.35 32 32 32s32-14.35 32-32S56.65 7 39 7Zm0 13.608c5.39 0 9.836 4.38 9.836 9.769 0 5.39-4.38 9.836-9.836 9.836a9.804 9.804 0 0 1-9.836-9.836c0-5.39 4.446-9.769 9.836-9.769Zm0 42.308c-7.007 0-13.34-3.032-17.718-7.882.27-1.213.674-2.358 1.078-3.57 1.482-4.11 4.513-7.277 8.42-8.96 2.291 1.616 5.188 2.56 8.22 2.56 3.031 0 5.928-.944 8.286-2.56 3.84 1.683 6.939 4.85 8.421 8.96a71.873 71.873 0 0 1 1.078 3.57C52.339 59.817 46.006 62.916 39 62.916Z" fill="#B4C0ED"/><path d="M39 20.608c5.39 0 9.836 4.38 9.836 9.769 0 5.39-4.38 9.836-9.836 9.836a9.804 9.804 0 0 1-9.836-9.836c0-5.39 4.446-9.769 9.836-9.769ZM39 62.916c-7.007 0-13.34-3.032-17.718-7.882.27-1.213.674-2.358 1.078-3.57 1.482-4.11 4.513-7.277 8.42-8.96 2.291 1.616 5.188 2.56 8.22 2.56 3.031 0 5.928-.944 8.286-2.56 3.84 1.683 6.939 4.85 8.421 8.96a71.873 71.873 0 0 1 1.078 3.57C52.339 59.817 46.006 62.916 39 62.916Z" fill="#F9FAFD"/></g><defs><clipPath id="bra"><path fill="#fff" transform="translate(-100 -7778)" d="M0 0h1440v13298H0z"/></clipPath><clipPath id="brb"><path fill="#fff" transform="translate(-100 -2652)" d="M0 0h1440v7463H0z"/></clipPath></defs></svg><view id="users" viewBox="268 311 32 32"/><svg width="32" height="32" fill="none" viewBox="0 0 32 32" x="268" y="311" xmlns="http://www.w3.org/2000/svg"><g clip-path="url(#bqa)" fill="#7D8BBD"><path d="M15.15 19.745a7.499 7.499 0 1 0-8.3 0A12.027 12.027 0 0 0 1.182 24.1 1 1 0 0 0 2 25.676h18a1 1 0 0 0 .818-1.577 12.027 12.027 0 0 0-5.668-4.354Z"/><path d="M31.008 24.098a12.026 12.026 0 0 0-5.668-4.355A7.5 7.5 0 0 0 19.156 6.28a1 1 0 0 0-.532 1.56 9.48 9.48 0 0 1 .48 10.611 1 1 0 0 0 .256 1.325c.38.282.744.583 1.093.902a.98.98 0 0 0 .056.058 14.004 14.004 0 0 1 3.185 4.363 1 1 0 0 0 .906.577l5.59-.001a1 1 0 0 0 .818-1.576Z"/></g><defs><clipPath id="bqa"><path fill="#fff" d="M0 0h32v32H0z"/></clipPath></defs></svg><view id="whatsapp_bg_red" viewBox="331 240 40 40"/><svg width="40" height="40" fill="none" viewBox="0 0 40 40" x="331" y="240" xmlns="http://www.w3.org/2000/svg"><circle cx="12" cy="12" fill="#F9605A" r="12"/><path d="m14.466 18.232 2.55-2.566-.666-2.334h-3.017s-.683 4.234 4.2 9.1c4.883 4.867 9.133 4.234 9.133 4.234v-3.017l-2.333-.667-2.566 2.55m13.033-3.1a15 15 0 0 1-21.667 10.9L5 35l1.667-8.133A15 15 0 1 1 34.8 22.432Z" stroke="#1F253B" stroke-width="2" stroke-linecap="round" stroke-linejoin="round"/></svg><view id="wordpress" viewBox="99 126 24 24"/><svg width="24" height="24" fill="none" viewBox="0 0 24 24" x="99" y="126" xmlns="http://www.w3.org/2000/svg"><path d="M12 0C5.384 0 0 5.383 0 12s5.384 12 12 12c6.617 0 12-5.383 12-12S18.617 0 12 0ZM1.212 12c0-1.564.336-3.05.934-4.391l5.147 14.1A10.792 10.792 0 0 1 1.212 12Zm10.79 10.79c-1.06 0-2.082-.156-3.048-.44l3.237-9.407 3.317 9.086a.906.906 0 0 0 .076.149 10.774 10.774 0 0 1-3.582.611ZM13.487 6.94c.65-.034 1.235-.103 1.235-.103.581-.068.513-.923-.069-.888 0 0-1.747.137-2.876.137-1.06 0-2.842-.137-2.842-.137-.581-.035-.649.854-.068.888 0 0 .55.069 1.132.103l1.68 4.606-2.36 7.08L5.39 6.942c.65-.034 1.235-.102 1.235-.102.581-.069.513-.924-.07-.889 0 0-1.746.137-2.874.137-.203 0-.442-.005-.695-.013a10.775 10.775 0 0 1 9.015-4.863c2.809 0 5.366 1.074 7.285 2.832-.047-.002-.092-.009-.14-.009-1.06 0-1.812.924-1.812 1.915 0 .89.513 1.642 1.06 2.53.41.72.89 1.643.89 2.976 0 .924-.355 1.995-.822 3.488l-1.076 3.596-3.899-11.598Zm3.937 14.385 3.296-9.529c.616-1.538.82-2.77.82-3.864a8.2 8.2 0 0 0-.073-1.11A10.726 10.726 0 0 1 22.79 12c0 3.98-2.158 7.455-5.365 9.326Z" fill="#4A526F"/></svg><view id="yes" viewBox="72 311 36 36"/><svg width="36" height="36" fill="none" viewBox="0 0 36 36" x="72" y="311" xmlns="http://www.w3.org/2000/svg"><rect width="36" height="36" rx="18" fill="#EAEEFA"/><path d="M28 11 14.25 25 8 18.636" stroke="#7D8BBD" stroke-width="2" stroke-linecap="round" stroke-linejoin="round"/></svg>
</svg>