<?xml version="1.0" encoding="utf-8"?>
<!-- down earth map map-pin menu right -->
<svg xmlns="http://www.w3.org/2000/svg" xmlns:xlink="http://www.w3.org/1999/xlink">
<symbol id="down" viewBox="0 0 18 18" fill="none">
  <path d="m4.5 6.75 4.5 4.5 4.5-4.5" stroke-width="2" stroke-linecap="round" stroke-linejoin="round"/></symbol>
<symbol id="earth" viewBox="-1 -1 22 22" xmlns="http://www.w3.org/2000/svg">
  <path d="M10 0C4.486 0 0 4.486 0 10s4.486 10 10 10 10-4.486 10-10S15.514 0 10 0ZM2 10c0-.899.156-1.762.431-2.569L4 9l2 2v2l2 2 1 1v1.931C5.061 17.436 2 14.072 2 10Zm14.33 4.873C15.677 14.347 14.687 14 14 14v-1a2 2 0 0 0-2-2H8V8a2 2 0 0 0 2-2V5h1a2 2 0 0 0 2-2v-.411C15.928 3.778 18 6.65 18 10c0 1.765-.588 3.48-1.67 4.873Z"/></symbol>
<symbol id="map" viewBox="0 0 18 18" fill="none">
  <g stroke-width="2" stroke-linecap="round" stroke-linejoin="round"><path d="m2.25 4.5 4.5-2.25 4.5 2.25 4.5-2.25V13.5l-4.5 2.25-4.5-2.25-4.5 2.25V4.5ZM6.75 2.25V13.5M11.25 4.5v11.25"/></g></symbol>
  <symbol id="map-pin" viewBox="0 0 18 18" fill="none">
    <g stroke-width="2" stroke-linecap="round" stroke-linejoin="round"><path d="M15 7.5c0 4.5-6 9-6 9s-6-4.5-6-9a6 6 0 1 1 12 0Z"/><path d="M9 9.75a2.25 2.25 0 1 0 0-4.5 2.25 2.25 0 0 0 0 4.5Z"/></g></symbol>
<symbol id="menu" viewBox="0 0 32 32" fill="none">
  <g stroke-width="2" stroke-linecap="round" stroke-linejoin="round"><path d="M4 8h24M4 16h24M4 24h24"/></g></symbol>
<symbol id="right" viewBox="0 0 18 18" fill="none" xmlns="http://www.w3.org/2000/svg">
  <path d="m6.75 13.5 4.5-4.5-4.5-4.5" stroke="#6B769D" stroke-width="2" stroke-linecap="round" stroke-linejoin="round"/></symbol>
  <!-- <symbol id="" fill="none" viewBox="0 0 18 18" xmlns="http://www.w3.org/2000/svg"></symbol> -->
</svg>